{"glyphs":{"0":{"ha":814,"x_min":0,"x_max":0,"o":"m 788 469 b 401 1025 788 788 617 1025 b 28 475 186 1025 28 788 b 408 0 28 161 186 0 b 788 469 629 0 788 161 z m 335 610 b 406 879 335 813 372 879 b 481 599 440 879 481 808 b 408 351 481 399 443 351 b 335 610 374 351 335 401 z "},"1":{"ha":642,"x_min":0,"x_max":0,"o":"m 497 299 b 399 536 469 336 399 419 b 476 771 399 639 453 724 b 342 1022 551 925 461 1047 l 169 985 b 81 874 115 974 81 929 b 169 801 81 819 111 797 b 281 572 293 810 281 656 b 186 303 281 419 211 336 b 342 0 49 125 142 0 b 497 299 539 0 631 125 z "},"2":{"ha":801,"x_min":0,"x_max":0,"o":"m 772 238 b 631 468 772 325 740 468 b 474 385 569 468 503 424 b 406 351 458 365 436 351 b 344 392 374 351 344 367 b 744 776 344 485 744 529 b 383 1025 744 918 614 1025 b 29 790 204 1025 29 963 b 206 615 29 682 99 615 b 329 744 297 615 336 689 b 401 806 325 782 344 806 b 492 740 458 806 492 782 b 138 408 492 644 297 536 b 39 189 79 363 39 272 l 39 132 b 171 0 39 53 92 0 l 503 0 b 772 238 692 0 772 85 z "},"3":{"ha":849,"x_min":0,"x_max":0,"o":"m 821 292 b 635 546 821 411 735 503 b 638 565 617 556 617 561 b 794 767 732 589 794 667 b 433 1025 794 918 665 1025 b 79 790 256 1025 79 963 b 256 615 79 682 149 615 b 379 744 347 615 386 689 b 451 806 375 782 394 806 b 542 724 508 806 542 782 b 397 624 542 654 494 628 b 349 575 368 622 349 603 b 396 517 349 551 365 531 b 476 407 439 499 476 456 b 414 351 476 367 447 351 b 363 404 383 351 361 365 b 214 538 367 474 301 538 b 111 508 182 538 147 529 b 26 290 49 474 4 413 b 421 0 65 88 232 0 b 821 292 606 0 821 83 z "},"4":{"ha":831,"x_min":0,"x_max":0,"o":"m 738 299 b 714 329 732 307 724 317 b 726 351 706 343 710 351 l 740 351 b 799 440 776 351 799 375 b 740 528 799 506 776 528 l 672 528 b 638 586 636 528 638 569 b 725 789 638 679 692 724 b 596 1025 789 919 710 1025 l 492 1025 b 317 919 419 1025 350 982 l 107 519 b 81 410 90 489 81 446 b 139 351 81 374 104 351 l 433 351 b 444 329 450 351 454 343 b 426 303 438 318 431 310 b 581 0 289 125 382 0 b 738 299 779 0 871 125 z m 328 568 l 422 731 b 486 797 449 776 469 797 b 519 696 507 797 518 763 b 515 576 519 636 522 636 b 456 528 513 547 486 528 l 350 528 b 328 568 319 528 313 540 z "},"5":{"ha":832,"x_min":0,"x_max":0,"o":"m 807 356 b 506 688 807 474 769 688 b 363 671 464 688 417 683 b 313 708 331 664 313 676 l 313 736 b 367 790 313 769 333 790 l 411 790 b 650 747 489 790 583 747 b 739 869 703 747 739 774 b 456 1025 739 1022 646 1025 l 279 1025 b 101 914 203 1025 101 1024 l 101 644 b 154 581 101 613 122 586 l 196 572 b 301 574 221 568 257 568 b 476 413 458 596 476 450 b 414 351 476 367 447 351 b 363 403 383 351 361 365 b 208 535 365 469 297 535 b 111 508 178 535 144 526 b 26 290 49 474 4 413 b 421 0 65 88 232 0 b 807 356 606 0 807 83 z "},"6":{"ha":781,"x_min":0,"x_max":0,"o":"m 754 351 b 444 678 754 488 703 678 b 246 633 372 678 300 664 b 210 689 200 607 185 615 b 357 806 229 749 263 806 b 449 744 408 806 435 789 b 528 703 458 718 469 703 b 700 833 624 703 700 740 b 411 1025 700 963 551 1025 b 29 503 114 1025 29 746 b 403 0 29 182 179 0 b 754 351 553 0 754 83 z m 217 435 b 328 546 217 500 263 546 b 422 444 392 546 422 501 b 318 338 422 379 382 338 b 217 435 257 338 217 375 z "},"7":{"ha":800,"x_min":0,"x_max":0,"o":"m 594 314 b 718 914 549 688 718 718 b 540 1025 718 1024 618 1025 l 364 1025 b 81 840 174 1025 81 993 b 154 729 81 756 110 729 b 408 790 221 729 324 790 b 500 626 504 790 535 717 b 265 339 460 519 347 444 b 418 0 101 125 224 0 b 594 314 549 0 625 56 z "},"8":{"ha":811,"x_min":0,"x_max":0,"o":"m 783 296 b 635 543 783 411 726 503 b 633 567 607 556 607 561 b 757 754 724 589 757 667 b 406 1025 757 918 636 1025 b 54 754 174 1025 54 918 b 178 567 54 667 88 589 b 175 543 203 561 203 556 b 28 296 85 503 28 411 b 406 0 28 83 219 0 b 783 296 592 0 783 83 z m 278 724 b 406 806 278 782 349 806 b 533 724 463 806 533 782 b 406 625 533 658 492 625 b 278 724 319 625 278 658 z m 300 424 b 406 507 300 472 342 507 b 511 422 468 507 511 472 b 408 351 511 375 474 351 b 300 424 343 351 300 375 z "},"9":{"ha":771,"x_min":0,"x_max":0,"o":"m 740 533 b 375 1025 740 869 592 1025 b 60 728 217 1025 60 942 b 332 464 60 538 183 464 b 524 510 399 464 469 479 b 561 524 540 519 553 524 b 567 471 576 524 579 507 b 385 338 540 394 486 338 b 275 403 325 338 290 357 b 197 439 268 425 256 439 b 26 271 103 439 26 401 b 358 0 26 64 218 0 b 740 533 656 0 740 281 z m 347 699 b 453 806 347 763 388 806 b 553 707 513 806 553 767 b 442 596 553 643 508 596 b 347 699 378 596 347 642 z "},"Ĭ":{"ha":732,"x_min":0,"x_max":0,"o":"m 69 972 l 69 0 l 663 0 l 663 972 z m 624 944 l 365 515 l 108 944 z m 635 906 l 635 65 l 383 486 z m 349 486 l 99 68 l 99 903 z m 367 457 l 624 29 l 110 29 z "},"ĭ":{"ha":732,"x_min":0,"x_max":0,"o":"m 69 972 l 69 0 l 663 0 l 663 972 z m 624 944 l 365 515 l 108 944 z m 635 906 l 635 65 l 383 486 z m 349 486 l 99 68 l 99 903 z m 367 457 l 624 29 l 110 29 z "},"Ŋ":{"ha":732,"x_min":0,"x_max":0,"o":"m 69 972 l 69 0 l 663 0 l 663 972 z m 624 944 l 365 515 l 108 944 z m 635 906 l 635 65 l 383 486 z m 349 486 l 99 68 l 99 903 z m 367 457 l 624 29 l 110 29 z "},"ŋ":{"ha":732,"x_min":0,"x_max":0,"o":"m 69 972 l 69 0 l 663 0 l 663 972 z m 624 944 l 365 515 l 108 944 z m 635 906 l 635 65 l 383 486 z m 349 486 l 99 68 l 99 903 z m 367 457 l 624 29 l 110 29 z "},"―":{"ha":732,"x_min":0,"x_max":0,"o":"m 69 972 l 69 0 l 663 0 l 663 972 z m 624 944 l 365 515 l 108 944 z m 635 906 l 635 65 l 383 486 z m 349 486 l 99 68 l 99 903 z m 367 457 l 624 29 l 110 29 z "},"‖":{"ha":732,"x_min":0,"x_max":0,"o":"m 69 972 l 69 0 l 663 0 l 663 972 z m 624 944 l 365 515 l 108 944 z m 635 906 l 635 65 l 383 486 z m 349 486 l 99 68 l 99 903 z m 367 457 l 624 29 l 110 29 z "},"‗":{"ha":732,"x_min":0,"x_max":0,"o":"m 69 972 l 69 0 l 663 0 l 663 972 z m 624 944 l 365 515 l 108 944 z m 635 906 l 635 65 l 383 486 z m 349 486 l 99 68 l 99 903 z m 367 457 l 624 29 l 110 29 z "},"‟":{"ha":732,"x_min":0,"x_max":0,"o":"m 69 972 l 69 0 l 663 0 l 663 972 z m 624 944 l 365 515 l 108 944 z m 635 906 l 635 65 l 383 486 z m 349 486 l 99 68 l 99 903 z m 367 457 l 624 29 l 110 29 z "},"\u0000":{"ha":0,"x_min":0,"x_max":0,"o":""},"\r":{"ha":0,"x_min":0,"x_max":0,"o":""}," ":{"ha":374,"x_min":0,"x_max":0,"o":""},"\n":{"ha":0,"x_min":0,"x_max":0,"o":""},"!":{"ha":383,"x_min":0,"x_max":0,"o":"m 263 453 l 344 840 b 193 1025 367 951 306 1025 b 39 840 76 1025 17 951 l 121 453 b 192 396 129 419 157 396 b 263 453 228 396 254 419 z m 353 161 b 192 322 353 251 281 322 b 31 161 104 322 31 251 b 192 0 31 74 104 0 b 353 161 281 0 353 74 z "},"\"":{"ha":647,"x_min":0,"x_max":0,"o":"m 546 585 l 617 883 b 488 1025 636 969 585 1025 b 357 883 388 1025 336 969 l 426 585 b 486 540 432 558 457 540 b 546 585 518 540 540 558 z m 219 585 l 290 883 b 161 1025 310 969 258 1025 b 31 883 61 1025 11 969 l 100 585 b 160 540 106 558 131 540 b 219 585 192 540 214 558 z "},"#":{"ha":922,"x_min":0,"x_max":0,"o":"m 493 49 l 581 294 l 707 294 b 781 367 751 294 781 322 b 707 440 781 411 751 440 l 633 440 l 675 558 l 768 558 b 842 629 813 558 842 586 b 768 704 842 675 813 704 l 728 704 l 807 926 b 761 1021 821 969 801 1006 b 732 1025 751 1024 742 1025 b 669 976 703 1025 681 1008 l 572 704 l 508 704 l 588 926 b 542 1021 601 969 582 1006 b 513 1025 532 1024 522 1025 b 450 976 483 1025 461 1008 l 353 704 l 215 704 b 142 629 171 704 142 674 b 215 558 142 586 171 558 l 300 558 l 258 440 l 154 440 b 81 367 110 440 81 410 b 154 294 81 322 110 294 l 207 294 l 136 99 b 179 6 122 56 138 19 b 208 0 189 1 200 0 b 274 49 239 0 263 18 l 361 294 l 426 294 l 356 99 b 399 6 342 56 357 19 b 428 0 408 1 419 0 b 493 49 458 0 482 18 z m 456 558 l 519 558 l 478 440 l 414 440 z "},"$":{"ha":847,"x_min":0,"x_max":0,"o":"m 501 -72 l 501 7 b 821 292 663 26 821 113 b 328 740 821 607 328 583 b 419 806 328 782 361 806 b 490 744 476 806 494 782 b 614 615 483 689 522 615 b 790 790 721 615 790 682 b 501 1022 790 942 654 1007 l 501 1099 b 426 1171 501 1142 469 1171 b 354 1099 382 1171 354 1142 l 354 1021 b 75 776 175 999 75 900 b 476 407 75 529 476 560 b 414 351 476 367 447 351 b 363 404 383 351 361 365 b 214 538 367 474 301 538 b 111 508 182 538 147 529 b 26 290 49 474 4 413 b 354 6 60 110 193 24 l 354 -72 b 426 -146 354 -117 382 -146 b 501 -72 471 -146 501 -117 z "},"%":{"ha":1229,"x_min":0,"x_max":0,"o":"m 465 49 l 867 926 b 836 1021 886 969 876 1006 b 810 1025 826 1024 818 1025 b 758 976 786 1025 774 1008 l 357 99 b 385 6 338 56 344 19 b 413 0 396 1 404 0 b 465 49 438 0 450 18 z m 525 700 b 299 1025 525 886 425 1025 b 81 703 172 1025 81 886 b 303 425 81 519 172 425 b 525 700 432 425 525 519 z m 261 781 b 301 939 261 900 282 939 b 346 776 322 939 346 897 b 303 631 346 658 324 631 b 261 781 282 631 261 661 z m 1147 275 b 921 600 1147 461 1046 600 b 703 279 794 600 703 461 b 925 0 703 96 794 0 b 1147 275 1054 0 1147 96 z m 882 356 b 924 514 882 476 904 514 b 968 351 944 514 968 474 b 925 207 968 235 946 207 b 882 356 904 207 882 236 z "},"&":{"ha":876,"x_min":0,"x_max":0,"o":"m 858 126 b 819 354 858 199 793 232 b 604 594 849 492 781 592 b 307 724 510 596 307 569 b 404 806 307 774 344 806 b 472 753 456 806 474 782 b 597 644 471 713 503 644 b 769 790 690 644 769 688 b 415 1025 769 963 594 1025 b 54 767 185 1025 54 918 b 213 565 54 667 117 589 b 214 546 233 561 233 556 b 28 292 114 503 28 411 b 300 0 28 83 182 0 b 501 183 415 0 474 79 b 565 289 521 258 549 289 b 578 269 572 289 578 282 b 518 103 578 229 518 163 b 679 0 518 42 583 0 b 858 126 783 0 858 50 z m 374 411 b 451 476 374 454 404 476 b 519 421 494 476 519 457 b 435 351 519 367 464 351 b 374 411 393 351 374 378 z "},"'":{"ha":321,"x_min":0,"x_max":0,"o":"m 219 585 l 290 883 b 161 1025 310 969 258 1025 b 31 883 61 1025 11 969 l 100 585 b 160 540 106 558 131 540 b 219 585 192 540 214 558 z "},"(":{"ha":632,"x_min":0,"x_max":0,"o":"m 550 -136 b 493 -12 550 -79 525 -42 b 265 424 413 57 265 101 b 432 778 265 601 310 724 b 538 924 506 811 538 863 b 426 1025 538 983 508 1025 b 31 315 196 1025 31 703 b 372 -292 31 3 138 -292 b 550 -136 475 -292 550 -235 z "},")":{"ha":632,"x_min":0,"x_max":0,"o":"m 600 315 b 206 1025 600 703 435 1025 b 94 924 124 1025 94 983 b 199 778 94 863 125 811 b 367 424 321 724 367 601 b 138 -12 367 101 218 57 b 81 -136 106 -42 81 -79 b 260 -292 81 -235 156 -292 b 600 315 493 -292 600 3 z "},"*":{"ha":614,"x_min":0,"x_max":0,"o":"m 393 529 l 338 667 l 431 547 b 489 515 447 525 468 515 b 568 568 518 515 547 535 b 518 699 601 625 586 689 l 367 721 l 517 746 b 568 874 585 757 601 815 b 488 928 547 907 517 928 b 429 896 467 928 446 918 l 338 776 l 393 917 b 306 1025 418 981 371 1025 b 219 917 239 1025 194 979 l 274 779 l 185 896 b 126 928 168 918 147 928 b 46 874 96 928 65 907 b 96 746 11 815 28 757 l 246 721 l 94 699 b 46 568 26 689 11 625 b 124 515 65 535 94 515 b 183 547 144 515 167 525 l 272 664 l 219 529 b 306 421 194 465 239 421 b 393 529 371 421 419 465 z "},"+":{"ha":756,"x_min":0,"x_max":0,"o":"m 451 232 l 451 382 l 601 382 b 675 454 646 382 675 410 b 601 529 675 500 646 529 l 451 529 l 451 679 b 376 753 451 724 419 753 b 304 679 332 753 304 724 l 304 529 l 154 529 b 81 454 110 529 81 499 b 154 382 81 410 110 382 l 304 382 l 304 232 b 376 158 304 188 332 158 b 451 232 422 158 451 188 z "},",":{"ha":374,"x_min":0,"x_max":0,"o":"m 107 -182 b 347 129 251 -153 347 -10 b 188 322 347 251 275 322 b 25 161 99 322 25 251 b 104 22 25 108 51 61 b 133 -85 153 -12 167 -49 b 82 -126 121 -100 97 -118 b 51 -169 57 -142 50 -156 b 78 -186 53 -179 60 -186 b 107 -182 85 -186 94 -185 z "},"-":{"ha":508,"x_min":0,"x_max":0,"o":"m 486 315 b 413 390 486 361 457 390 l 96 390 b 22 315 51 390 22 358 b 96 243 22 271 51 243 l 413 243 b 486 315 457 243 486 271 z "},".":{"ha":372,"x_min":0,"x_max":0,"o":"m 347 161 b 186 322 347 250 275 322 b 25 161 97 322 25 250 b 186 0 25 72 97 0 b 347 161 275 0 347 72 z "},"/":{"ha":622,"x_min":0,"x_max":0,"o":"m 224 49 l 536 926 b 492 1021 551 969 532 1006 b 463 1025 482 1024 472 1025 b 399 976 433 1025 410 1008 l 86 99 b 128 6 71 56 88 19 b 158 0 139 1 149 0 b 224 49 189 0 213 18 z "},":":{"ha":386,"x_min":0,"x_max":0,"o":"m 354 571 b 193 732 354 661 282 732 b 32 571 106 732 32 661 b 193 410 32 483 106 410 b 354 571 282 410 354 483 z m 354 161 b 193 322 354 251 282 322 b 32 161 106 322 32 251 b 193 0 32 74 106 0 b 354 161 282 0 354 74 z "},";":{"ha":386,"x_min":0,"x_max":0,"o":"m 354 571 b 193 732 354 661 282 732 b 32 571 106 732 32 661 b 193 410 32 483 106 410 b 354 571 282 410 354 483 z m 114 -182 b 354 129 258 -153 354 -10 b 194 322 354 251 282 322 b 32 161 106 322 32 251 b 111 22 32 108 58 61 b 140 -85 160 -12 174 -49 b 89 -126 128 -100 104 -118 b 58 -169 64 -142 57 -156 b 85 -186 60 -179 67 -186 b 114 -182 92 -186 101 -185 z "},"<":{"ha":661,"x_min":0,"x_max":0,"o":"m 628 225 b 592 321 647 264 631 301 l 310 451 l 592 582 b 628 678 631 600 647 639 b 564 724 614 707 590 724 b 531 715 553 724 542 721 l 124 526 b 81 451 90 511 81 482 b 124 376 81 421 90 392 l 531 188 b 564 179 542 182 553 179 b 628 225 590 179 614 196 z "},"=":{"ha":650,"x_min":0,"x_max":0,"o":"m 622 588 b 549 663 622 633 593 663 l 101 663 b 28 588 57 663 28 631 b 101 515 28 543 57 515 l 549 515 b 622 588 593 515 622 543 z m 622 324 b 549 399 622 369 593 399 l 101 399 b 28 324 57 399 28 368 b 101 253 28 281 57 253 l 549 253 b 622 324 593 253 622 281 z "},">":{"ha":661,"x_min":0,"x_max":0,"o":"m 131 188 l 538 376 b 581 451 569 392 581 421 b 538 526 581 482 569 511 l 131 715 b 97 724 119 721 108 724 b 33 678 71 724 46 707 b 69 582 14 639 31 600 l 350 451 l 69 321 b 33 225 31 301 14 264 b 97 179 46 196 71 179 b 131 188 108 179 119 182 z "},"?":{"ha":878,"x_min":0,"x_max":0,"o":"m 511 432 b 796 775 511 564 796 563 b 435 1025 796 918 665 1025 b 81 790 256 1025 81 963 b 257 615 81 682 150 615 b 381 744 349 615 388 689 b 453 806 376 782 396 806 b 543 743 510 806 543 782 b 379 450 543 653 379 599 b 440 372 379 394 401 372 b 511 432 458 372 511 376 z m 601 161 b 440 322 601 251 531 322 b 279 161 353 322 279 251 b 440 0 279 74 353 0 b 601 161 531 0 601 74 z "},"@":{"ha":1247,"x_min":0,"x_max":0,"o":"m 1026 -225 b 1121 -81 1115 -186 1139 -135 b 1051 -26 1111 -46 1089 -26 b 976 -44 1032 -26 1007 -32 b 658 -101 910 -72 790 -101 b 142 372 351 -101 142 57 b 660 864 142 679 343 864 b 1104 449 951 864 1104 710 b 988 158 1104 367 1089 158 b 925 475 863 158 888 389 b 835 732 1001 633 944 732 b 740 636 779 732 753 689 b 728 614 738 621 733 614 b 710 629 724 614 718 619 b 522 732 668 690 608 732 b 293 371 354 732 293 571 b 485 0 293 143 374 0 b 707 161 576 0 668 97 b 721 158 722 185 721 186 b 924 0 724 33 799 0 b 1221 428 1158 0 1221 235 b 657 1025 1221 775 1015 1025 b 25 372 278 1025 25 744 b 679 -292 25 -8 289 -292 b 1026 -225 814 -292 951 -258 z m 542 440 b 635 571 542 544 594 571 b 736 435 689 571 736 525 b 636 308 736 322 663 308 b 542 440 613 308 542 321 z "},"A":{"ha":936,"x_min":0,"x_max":0,"o":"m 754 11 b 835 344 947 56 1011 201 b 690 549 804 369 717 435 b 711 792 667 649 699 743 b 468 1025 747 954 608 1025 b 225 792 328 1026 186 957 b 246 549 236 743 268 649 b 100 344 219 435 131 369 b 181 11 -75 201 -12 56 b 265 0 211 4 240 0 b 404 264 404 0 476 99 b 469 356 382 318 410 356 b 531 264 529 356 554 318 b 669 0 460 99 531 0 b 754 11 696 0 724 4 z m 396 625 b 474 701 419 676 447 701 b 547 625 501 701 528 676 b 468 474 585 526 543 474 b 396 625 393 474 353 526 z "},"B":{"ha":960,"x_min":0,"x_max":0,"o":"m 942 289 b 692 590 942 375 910 538 b 692 619 633 606 633 603 b 900 815 794 647 900 713 b 596 1025 900 926 774 1025 b 358 885 535 1025 426 1013 b 331 863 350 869 340 863 b 318 897 319 863 311 875 b 215 1025 340 983 289 1025 b 94 769 103 1025 19 925 b 169 536 117 724 169 639 b 75 303 169 419 100 336 b 201 0 -62 125 31 0 b 367 135 297 0 367 39 b 379 169 367 157 372 169 b 399 143 385 169 392 161 b 651 0 433 47 558 0 b 942 289 788 0 942 101 z m 378 747 b 507 806 404 783 453 806 b 626 736 560 806 626 785 b 463 643 626 679 538 643 b 378 747 375 643 336 693 z m 375 433 b 463 551 339 503 376 551 b 617 451 542 551 617 510 b 503 351 617 385 556 351 b 375 433 454 351 403 379 z "},"C":{"ha":917,"x_min":0,"x_max":0,"o":"m 900 303 b 808 511 921 413 878 474 b 710 539 775 529 742 539 b 572 438 653 539 603 507 b 468 351 538 361 489 351 b 310 615 392 351 310 460 b 453 879 310 769 389 879 b 508 781 482 879 514 856 b 635 615 503 693 543 615 b 810 797 747 615 810 686 b 519 1025 810 963 683 1025 b 17 475 204 1025 17 788 b 468 0 17 161 204 0 b 900 303 694 0 867 121 z "},"D":{"ha":976,"x_min":0,"x_max":0,"o":"m 957 467 b 583 1025 957 788 806 1025 b 358 885 535 1025 426 1013 b 331 863 350 869 340 863 b 318 897 319 863 311 875 b 215 1025 340 983 289 1025 b 94 769 103 1025 19 925 b 169 536 117 724 169 639 b 75 303 169 419 100 336 b 201 0 -62 125 31 0 b 367 135 297 0 367 39 b 379 169 367 157 372 169 b 399 143 385 169 392 161 b 650 0 433 47 558 0 b 957 467 819 0 957 161 z m 332 586 b 494 806 332 739 411 806 b 650 586 581 806 650 735 b 494 351 650 443 586 351 b 332 586 400 351 332 446 z "},"E":{"ha":814,"x_min":0,"x_max":0,"o":"m 794 260 b 661 503 794 431 724 503 b 582 446 628 503 597 482 b 471 388 564 400 524 388 b 307 490 388 388 307 419 b 385 554 307 539 343 554 b 486 531 421 554 461 543 b 561 513 510 518 536 513 b 674 615 619 513 672 546 b 575 710 674 674 633 710 b 469 679 543 710 508 700 b 375 649 443 664 406 649 b 329 699 349 649 329 661 b 450 790 329 765 394 790 b 636 769 500 790 574 769 b 754 888 701 769 754 793 b 550 1025 754 993 689 1025 b 357 914 499 1025 403 1021 b 322 913 333 857 307 860 b 221 1025 343 993 289 1025 b 94 769 103 1025 19 925 b 169 536 117 724 169 639 b 75 303 169 419 100 336 b 201 0 -62 125 31 0 b 367 135 297 0 367 39 b 379 169 367 157 372 169 b 399 143 385 169 392 161 b 607 0 429 57 519 0 b 794 260 689 0 794 51 z "},"F":{"ha":753,"x_min":0,"x_max":0,"o":"m 385 299 b 294 454 363 329 300 392 b 406 544 289 521 346 544 b 494 525 439 544 472 536 b 558 511 514 515 536 511 b 672 615 615 511 671 544 b 574 710 672 674 633 710 b 468 679 543 710 507 700 b 369 647 440 664 400 647 b 328 688 346 647 328 658 b 444 790 328 765 394 790 b 632 772 496 790 569 772 b 753 879 699 772 753 793 b 549 1025 753 993 688 1025 b 356 914 499 1025 401 1021 b 321 913 332 857 306 860 b 219 1025 342 993 288 1025 b 94 769 101 1025 18 925 b 168 536 117 724 168 639 b 74 303 168 419 99 336 b 229 0 -64 125 29 0 b 385 299 426 0 518 125 z "},"G":{"ha":901,"x_min":0,"x_max":0,"o":"m 886 126 b 854 393 886 199 819 232 b 656 586 875 492 867 583 b 474 450 465 588 351 514 b 479 351 556 406 539 351 b 311 617 393 351 311 460 b 444 879 311 769 390 879 b 510 781 483 879 515 856 b 636 615 504 693 544 615 b 811 797 749 615 811 686 b 513 1025 811 963 685 1025 b 18 475 206 1025 18 788 b 324 0 18 161 154 0 b 529 183 443 0 501 79 b 593 289 549 258 576 289 b 606 269 600 289 606 282 b 544 104 603 229 544 163 b 706 0 544 42 611 0 b 886 126 810 0 886 50 z "},"H":{"ha":919,"x_min":0,"x_max":0,"o":"m 847 299 b 749 536 819 336 749 419 b 826 771 749 639 803 724 b 690 1025 901 925 814 1025 b 557 769 564 1025 481 925 b 460 615 599 683 558 615 b 364 771 357 615 321 685 b 228 1025 440 924 351 1025 b 94 769 101 1025 18 925 b 168 536 117 724 168 639 b 74 303 168 419 99 336 b 229 0 -64 125 29 0 b 385 299 426 0 518 125 b 457 499 310 388 304 499 b 536 303 604 499 613 396 b 692 0 399 125 492 0 b 847 299 889 0 981 125 z "},"I":{"ha":457,"x_min":0,"x_max":0,"o":"m 385 299 b 286 536 357 336 286 419 b 364 771 286 639 340 724 b 228 1025 439 925 351 1025 b 94 769 101 1025 18 925 b 168 536 117 724 168 639 b 74 303 168 419 99 336 b 229 0 -64 125 29 0 b 385 299 426 0 518 125 z "},"J":{"ha":632,"x_min":0,"x_max":0,"o":"m 571 211 b 514 536 583 336 514 419 b 588 769 514 639 567 724 b 456 1025 664 925 581 1025 b 319 771 331 1025 243 925 b 396 544 342 724 396 639 b 299 388 396 464 356 388 b 229 444 256 388 238 429 b 138 504 208 483 174 504 b 6 296 74 504 6 439 b 292 0 6 104 125 0 b 571 211 368 0 551 24 z "},"K":{"ha":903,"x_min":0,"x_max":0,"o":"m 849 263 b 511 529 785 340 642 458 b 504 569 493 539 489 556 b 557 618 526 592 544 608 b 703 700 601 656 668 682 b 746 986 858 779 846 913 b 640 1025 713 1011 675 1025 b 488 863 571 1025 508 974 b 454 696 479 819 472 744 b 317 503 433 642 379 567 b 301 493 310 496 306 493 b 286 536 288 493 286 522 b 364 771 286 639 340 724 b 228 1025 439 925 351 1025 b 94 769 101 1025 18 925 b 168 536 117 724 168 639 b 74 303 168 419 99 336 b 229 0 -64 125 29 0 b 385 299 426 0 518 125 b 356 338 376 311 364 325 b 350 406 339 363 340 385 b 392 438 360 424 375 438 b 422 421 401 438 411 432 b 481 189 454 385 461 322 b 676 0 492 103 503 0 b 849 263 869 0 963 125 z "},"L":{"ha":803,"x_min":0,"x_max":0,"o":"m 794 260 b 661 503 794 431 724 503 b 582 446 628 503 597 482 b 471 388 564 400 524 388 b 286 553 344 388 286 464 b 364 771 286 639 340 724 b 228 1025 440 925 353 1025 b 94 769 103 1025 19 925 b 169 536 117 724 169 639 b 75 303 169 419 100 336 b 201 0 -62 125 31 0 b 367 135 297 0 367 39 b 379 169 367 157 372 169 b 399 143 385 169 392 161 b 607 0 429 57 519 0 b 794 260 689 0 794 51 z "},"M":{"ha":1240,"x_min":0,"x_max":0,"o":"m 1167 303 b 1072 536 1142 336 1072 419 b 1146 769 1072 639 1124 724 b 971 1025 1222 925 1139 1025 b 735 879 838 1025 744 997 b 717 590 728 788 775 686 b 617 525 690 547 653 525 b 524 590 581 525 546 546 b 506 879 465 686 513 788 b 269 1025 496 997 403 1025 b 94 768 101 1025 18 925 b 168 536 117 724 168 639 b 74 303 168 419 99 336 b 229 0 -64 125 29 0 b 385 299 426 0 518 125 b 286 536 357 336 286 419 b 290 615 286 560 289 601 b 324 707 296 683 308 707 b 406 581 351 707 389 624 b 464 249 460 438 446 331 b 619 90 485 164 546 90 b 776 251 693 90 756 163 b 835 581 794 331 781 438 b 917 707 851 624 889 707 b 950 615 932 707 944 683 b 954 536 951 601 954 560 b 856 299 954 419 883 336 b 1013 0 722 125 814 0 b 1167 303 1211 0 1304 125 z "},"N":{"ha":982,"x_min":0,"x_max":0,"o":"m 899 318 b 814 539 861 368 814 446 b 892 771 814 639 868 724 b 756 1025 968 925 881 1025 b 622 769 629 1025 546 925 b 697 538 644 724 697 639 b 696 483 697 521 696 490 b 665 432 693 450 683 432 b 604 478 651 432 631 446 b 489 760 539 556 499 671 b 229 1025 469 936 349 1025 b 94 769 101 1025 18 925 b 168 536 117 724 168 639 b 74 303 168 419 99 336 b 229 0 -64 125 29 0 b 385 299 426 0 518 125 b 286 539 357 336 286 419 b 290 617 286 557 288 597 b 317 660 293 643 301 660 b 393 599 333 660 358 642 b 492 275 453 521 504 413 b 753 0 476 81 590 0 b 899 318 954 0 1047 125 z "},"O":{"ha":938,"x_min":0,"x_max":0,"o":"m 919 469 b 460 1025 919 788 717 1025 b 17 475 204 1025 17 788 b 469 0 17 161 204 0 b 919 469 732 0 919 161 z m 310 610 b 464 879 310 769 389 879 b 626 600 543 879 626 764 b 471 351 626 443 550 351 b 310 610 392 351 310 446 z "},"P":{"ha":794,"x_min":0,"x_max":0,"o":"m 386 299 b 339 364 375 314 356 336 b 331 392 326 382 324 392 b 357 381 336 392 344 388 b 497 342 403 356 444 342 b 785 696 632 342 785 439 b 529 1025 785 865 718 1025 b 356 914 499 1025 401 1021 b 321 913 332 857 306 860 b 219 1025 342 993 288 1025 b 94 769 101 1025 18 925 b 168 536 117 724 168 639 b 74 303 168 419 99 336 b 229 0 -64 125 29 0 b 386 299 426 0 518 125 z m 303 690 b 400 790 303 750 339 790 b 496 690 468 790 496 739 b 393 593 496 619 439 593 b 303 690 339 593 303 628 z "},"Q":{"ha":933,"x_min":0,"x_max":0,"o":"m 783 -210 b 600 65 843 -87 706 19 b 582 115 528 96 526 119 b 919 513 774 97 919 281 b 460 1025 919 788 717 1025 b 17 475 204 1025 17 788 b 356 11 17 206 150 88 b 442 -215 428 -15 418 -139 b 588 -326 464 -294 524 -326 b 783 -210 665 -326 749 -279 z m 310 617 b 464 879 310 769 389 879 b 626 607 543 879 626 764 b 472 351 626 443 564 351 b 310 617 392 351 310 446 z "},"R":{"ha":906,"x_min":0,"x_max":0,"o":"m 838 267 b 556 467 801 303 690 401 b 560 507 521 483 524 497 b 785 753 669 539 785 603 b 529 1025 785 865 718 1025 b 356 914 499 1025 401 1021 b 321 913 332 857 306 860 b 219 1025 342 993 288 1025 b 94 769 101 1025 18 925 b 168 536 117 724 168 639 b 74 303 168 419 99 336 b 229 0 -64 125 29 0 b 411 265 426 0 518 125 b 325 447 375 314 338 393 b 332 479 321 468 322 479 b 365 465 339 479 350 474 b 494 189 433 428 468 378 b 692 0 508 103 517 0 b 838 267 885 0 976 125 z m 303 690 b 400 790 303 750 339 790 b 496 690 468 790 496 739 b 393 593 496 619 439 593 b 303 690 339 593 303 628 z "},"S":{"ha":832,"x_min":0,"x_max":0,"o":"m 814 292 b 321 740 814 607 321 583 b 413 806 321 782 354 806 b 483 744 469 806 488 782 b 607 615 476 689 515 615 b 783 790 714 615 783 682 b 429 1025 783 963 608 1025 b 68 776 199 1025 68 918 b 469 407 68 529 469 560 b 407 351 469 367 440 351 b 356 404 376 351 354 365 b 207 538 360 474 294 538 b 104 508 175 538 140 529 b 19 290 42 474 -3 413 b 414 0 58 88 225 0 b 814 292 599 0 814 83 z "},"T":{"ha":724,"x_min":0,"x_max":0,"o":"m 519 299 b 419 536 492 336 419 419 b 449 803 419 631 435 732 b 485 907 457 856 464 907 b 508 789 510 907 483 839 b 583 746 524 758 553 746 b 725 879 649 746 725 800 b 565 1025 725 993 660 1025 l 158 1025 b -1 879 63 1025 -1 993 b 139 746 -1 800 75 746 b 215 789 171 746 200 758 b 239 907 240 839 214 907 b 275 803 260 907 267 856 b 303 536 289 732 303 631 b 204 299 303 419 232 336 b 360 0 71 125 163 0 b 363 0 361 0 363 0 b 519 299 561 0 653 125 z "},"U":{"ha":807,"x_min":0,"x_max":0,"o":"m 783 251 b 678 546 783 388 678 419 b 756 771 678 639 732 724 b 619 1025 832 925 743 1025 b 486 769 493 1025 410 925 b 561 535 508 724 561 639 b 403 351 561 415 492 351 b 243 533 315 351 243 413 b 321 771 243 639 297 724 b 185 1025 397 925 308 1025 b 51 769 58 1025 -25 925 b 126 546 74 724 126 639 b 24 253 126 419 24 385 b 407 0 24 85 183 0 b 783 251 632 0 783 88 z "},"V":{"ha":833,"x_min":0,"x_max":0,"o":"m 689 214 b 643 522 689 308 613 407 b 754 717 669 619 742 700 b 714 1019 889 869 833 986 b 660 1026 696 1024 678 1026 b 518 800 561 1026 486 951 b 529 549 526 757 556 649 b 456 390 510 476 496 425 b 417 375 444 381 431 375 b 376 390 403 375 389 381 b 304 549 339 425 322 478 b 315 800 278 649 307 757 b 174 1026 346 951 271 1026 b 119 1019 156 1026 138 1024 b 78 717 -1 986 -57 869 b 190 522 92 700 164 619 b 144 214 221 407 144 308 b 422 0 144 67 283 -1 b 689 214 556 0 689 67 z "},"W":{"ha":1250,"x_min":0,"x_max":0,"o":"m 1114 197 b 1075 540 1114 308 1039 407 b 1186 738 1096 619 1153 700 b 1125 1019 1300 869 1244 986 b 1069 1026 1106 1025 1088 1026 b 924 822 972 1026 897 954 b 944 504 938 757 983 649 b 857 376 935 465 908 376 b 771 503 807 376 781 465 b 790 821 732 649 776 757 b 624 1025 819 963 731 1025 b 460 821 518 1025 431 963 b 478 494 474 757 518 649 b 435 397 472 476 457 425 b 394 376 422 383 408 376 b 307 503 343 376 318 465 b 326 821 268 649 313 757 b 181 1026 353 954 278 1026 b 125 1019 163 1026 144 1025 b 64 738 6 986 -50 869 b 175 540 97 700 154 619 b 136 199 211 407 136 308 b 368 0 136 67 246 -1 b 592 238 488 0 592 67 b 606 519 592 308 575 407 b 626 579 611 540 618 560 b 644 519 633 560 639 540 b 658 239 675 407 658 308 b 890 0 658 67 768 -1 b 1114 197 1011 0 1114 67 z "},"X":{"ha":924,"x_min":0,"x_max":0,"o":"m 792 38 b 768 385 968 151 949 329 b 599 506 711 403 654 444 b 600 582 578 528 578 560 b 749 708 654 638 711 689 b 782 997 890 786 899 929 b 681 1025 751 1015 715 1025 b 521 874 608 1025 539 981 b 461 661 517 842 488 661 b 401 874 435 661 406 842 b 242 1025 383 981 314 1025 b 140 997 207 1025 171 1015 b 175 708 24 929 32 786 b 322 582 211 689 268 638 b 324 506 344 560 344 528 b 154 385 268 444 211 403 b 131 38 -26 329 -46 151 b 260 -6 174 8 218 -6 b 424 210 351 -6 425 65 b 450 418 424 239 421 336 b 461 440 456 433 458 440 b 474 418 465 440 468 433 b 499 210 503 336 499 239 b 663 -6 497 65 571 -6 b 792 38 704 -6 749 8 z "},"Y":{"ha":774,"x_min":0,"x_max":0,"o":"m 543 299 b 446 493 518 331 461 399 b 457 533 444 507 449 522 b 672 710 515 613 635 683 b 688 999 818 807 796 936 b 592 1026 656 1017 624 1026 b 442 847 515 1026 450 971 b 394 649 438 804 425 726 b 378 649 390 638 382 638 b 331 847 347 726 335 804 b 181 1026 322 971 257 1026 b 85 999 150 1026 117 1017 b 101 710 -24 936 -46 807 b 313 533 139 683 256 614 b 322 492 321 522 324 506 b 231 303 307 399 253 333 b 386 0 93 125 188 0 b 543 299 583 0 676 125 z "},"Z":{"ha":819,"x_min":0,"x_max":0,"o":"m 799 260 b 665 503 799 431 728 503 b 586 446 632 503 601 482 b 492 388 568 400 528 388 b 778 914 306 388 778 718 b 600 1025 778 1024 678 1025 b 499 913 532 1025 478 993 b 464 914 514 860 488 857 b 271 1025 418 1021 322 1025 b 38 860 132 1025 38 993 b 136 744 38 771 81 744 b 365 790 211 744 311 790 b 471 679 410 790 503 763 b 79 303 429 567 188 444 b 206 0 -58 125 35 0 b 371 135 301 0 371 39 b 383 169 371 157 376 169 b 403 143 389 169 396 161 b 611 0 433 57 524 0 b 799 260 693 0 799 51 z "},"[":{"ha":585,"x_min":0,"x_max":0,"o":"m 358 -292 b 503 -147 444 -292 503 -233 b 358 0 503 -58 444 0 l 339 0 b 218 369 222 0 218 288 b 339 819 218 460 215 819 l 403 819 b 503 921 464 819 503 860 b 403 1025 503 983 464 1025 b 322 1029 399 1025 367 1029 b 31 813 214 1029 31 1003 b 101 369 31 696 101 533 b 31 -79 101 203 31 39 b 358 -292 31 -318 322 -292 z "},"\\":{"ha":622,"x_min":0,"x_max":0,"o":"m 494 6 b 536 99 535 19 551 56 l 224 976 b 160 1025 213 1008 189 1025 b 131 1021 150 1025 140 1024 b 86 926 90 1006 71 969 l 399 49 b 464 0 410 18 433 0 b 494 6 474 0 483 1 z "},"]":{"ha":585,"x_min":0,"x_max":0,"o":"m 553 -79 b 483 369 553 39 483 203 b 553 813 483 533 553 696 b 261 1029 553 1003 369 1029 b 182 1025 218 1029 186 1025 b 81 921 119 1025 81 983 b 182 819 81 860 119 819 l 244 819 b 367 369 369 819 367 460 b 244 0 367 288 361 0 l 225 0 b 81 -147 139 0 81 -58 b 225 -292 81 -233 139 -292 b 553 -79 263 -292 553 -318 z "},"^":{"ha":544,"x_min":0,"x_max":0,"o":"m 483 553 b 521 649 525 571 540 610 l 346 982 b 272 1025 329 1015 303 1025 b 197 982 240 1025 214 1015 l 22 649 b 60 553 3 610 18 571 b 92 546 71 547 82 546 b 156 588 118 546 143 561 l 272 810 l 388 588 b 451 546 400 561 425 546 b 483 553 461 546 472 547 z "},"_":{"ha":686,"x_min":0,"x_max":0,"o":"m 640 -221 b 567 -146 640 -175 611 -146 l 119 -146 b 46 -221 75 -146 46 -176 b 119 -292 46 -264 75 -292 l 567 -292 b 640 -221 611 -292 640 -264 z "},"`":{"ha":411,"x_min":0,"x_max":0,"o":"m 385 831 l 346 1036 b 228 1113 335 1097 288 1128 l 138 1090 b 103 990 76 1076 64 1036 l 247 818 b 338 776 268 792 304 776 b 385 831 372 776 390 799 z "},"a":{"ha":717,"x_min":0,"x_max":0,"o":"m 651 221 b 657 475 594 358 636 431 b 567 732 733 633 676 732 b 472 636 511 732 485 689 b 460 614 469 621 465 614 b 442 629 456 614 450 619 b 254 732 400 690 342 732 b 25 371 86 732 25 571 b 217 0 25 143 106 0 b 439 161 308 0 400 97 b 453 158 454 185 456 186 b 564 0 435 17 513 0 b 651 221 707 0 689 126 z m 274 440 b 368 571 274 544 326 571 b 468 435 422 571 468 525 b 369 308 468 322 396 308 b 274 440 344 308 274 321 z "},"b":{"ha":735,"x_min":0,"x_max":0,"o":"m 713 333 b 456 732 713 563 599 732 b 290 638 390 732 333 697 b 336 782 308 701 317 743 b 210 1025 408 925 306 1025 b 100 750 114 1025 15 925 b 151 531 114 724 151 639 b 81 313 151 419 96 336 b 147 0 -51 125 19 0 b 275 158 214 0 285 36 b 288 161 274 186 278 188 b 494 0 319 72 404 0 b 713 333 608 0 713 115 z m 268 453 b 363 586 271 547 315 586 b 464 440 411 586 464 544 b 368 308 464 321 393 308 b 268 453 289 308 268 389 z "},"c":{"ha":682,"x_min":0,"x_max":0,"o":"m 667 244 b 519 413 675 364 585 413 b 353 308 426 413 424 308 b 268 440 326 308 268 322 b 363 615 268 546 315 615 b 408 567 379 615 408 607 b 493 493 408 522 446 493 b 593 601 564 493 593 557 b 383 732 593 681 506 732 b 19 336 163 732 19 563 b 346 0 19 115 154 0 b 667 244 543 0 656 122 z "},"d":{"ha":735,"x_min":0,"x_max":0,"o":"m 654 313 b 583 531 639 336 583 419 b 633 750 583 639 621 724 b 525 1025 719 925 621 1025 b 399 782 429 1025 326 925 b 443 638 418 743 426 701 b 278 732 401 697 344 732 b 22 333 136 732 22 563 b 240 0 22 115 126 0 b 447 161 329 0 414 72 b 460 158 457 188 461 186 b 588 0 450 36 519 0 b 654 313 714 0 786 125 z m 271 440 b 372 586 271 544 324 586 b 465 453 419 586 464 547 b 367 308 465 389 446 308 b 271 440 342 308 271 321 z "},"e":{"ha":682,"x_min":0,"x_max":0,"o":"m 667 244 b 519 413 675 364 585 413 b 353 308 426 413 424 308 b 288 349 338 308 307 314 b 310 382 279 365 288 379 b 593 608 482 399 593 483 b 383 732 593 681 506 732 b 19 336 163 732 19 563 b 346 0 19 115 154 0 b 667 244 543 0 656 122 z m 275 526 b 358 615 275 575 311 615 b 397 567 375 615 397 611 b 321 478 397 514 367 478 b 275 526 290 478 275 493 z "},"f":{"ha":444,"x_min":0,"x_max":0,"o":"m 333 322 b 267 531 325 336 267 419 b 264 586 267 546 265 565 b 290 615 263 603 274 615 l 375 615 b 435 674 411 615 435 639 b 375 732 435 710 411 732 l 251 732 b 224 864 178 732 178 864 b 349 753 265 864 243 753 b 467 865 396 753 467 774 b 260 1025 467 1000 314 1025 b 54 840 157 1025 54 939 b 126 744 54 778 97 756 b 124 732 144 738 142 732 l 79 732 b 19 674 43 732 19 708 b 79 615 19 638 43 615 l 110 615 b 146 586 128 615 143 603 b 150 531 149 568 150 549 b 79 313 150 419 94 336 b 210 0 -53 125 56 0 b 333 322 364 0 471 125 z "},"g":{"ha":707,"x_min":0,"x_max":0,"o":"m 646 -44 b 585 243 646 54 585 133 b 660 479 585 346 636 431 b 567 732 733 633 676 732 b 472 636 511 732 485 689 b 460 614 469 621 465 614 b 442 629 456 614 450 619 b 254 732 400 690 342 732 b 25 371 86 732 25 571 b 231 0 25 143 106 0 b 421 111 308 0 382 60 b 446 110 442 143 451 142 b 290 -58 438 40 378 -58 b 139 -28 240 -58 207 -28 b 26 -128 68 -28 26 -62 b 304 -322 26 -229 121 -322 b 646 -44 510 -322 646 -193 z m 274 440 b 368 571 274 544 326 571 b 468 435 422 571 468 525 b 369 308 468 322 396 308 b 274 440 344 308 274 321 z "},"h":{"ha":806,"x_min":0,"x_max":0,"o":"m 764 210 b 667 375 725 269 667 299 b 733 594 667 456 733 515 b 538 732 733 679 657 732 b 313 622 493 732 390 725 b 282 593 297 601 288 593 b 275 636 272 593 272 611 b 310 747 282 692 306 738 b 200 1025 399 925 296 1025 b 90 750 104 1025 6 925 b 142 531 104 724 142 639 b 71 313 142 419 86 336 b 201 0 -61 125 47 0 b 325 322 356 0 461 125 b 269 447 318 333 269 378 b 415 532 269 521 375 532 b 550 394 497 532 550 471 b 429 194 550 299 465 269 b 610 0 376 90 469 0 b 764 210 749 0 842 90 z "},"i":{"ha":406,"x_min":0,"x_max":0,"o":"m 342 904 b 203 1025 342 976 269 1025 b 64 904 138 1025 64 976 b 203 783 64 832 138 783 b 342 904 269 783 342 832 z m 363 210 b 265 378 324 269 265 299 b 340 560 265 456 319 517 b 207 732 390 661 288 732 b 76 560 125 732 28 661 b 149 388 96 517 149 456 b 28 194 149 299 64 269 b 208 0 -25 90 68 0 b 363 210 347 0 440 90 z "},"j":{"ha":324,"x_min":0,"x_max":0,"o":"m 293 904 b 154 1025 293 976 219 1025 b 14 904 88 1025 14 976 b 154 783 14 832 88 783 b 293 904 219 783 293 832 z m 328 -114 b 217 324 328 35 217 136 b 292 560 217 456 271 517 b 158 732 340 661 239 732 b 26 560 76 732 -22 661 b 100 200 47 517 100 456 b 43 -58 100 94 90 -58 b -50 -42 28 -58 -3 -42 b -160 -137 -119 -42 -160 -78 b 85 -322 -160 -229 -67 -322 b 328 -114 176 -322 328 -286 z "},"k":{"ha":803,"x_min":0,"x_max":0,"o":"m 761 240 b 469 399 694 319 526 329 b 485 432 460 411 465 428 b 600 453 529 444 572 451 b 711 672 753 460 765 597 b 589 733 683 711 638 733 b 446 644 536 733 482 707 b 292 476 417 593 356 531 b 263 486 276 464 265 469 b 258 539 258 503 258 521 b 308 746 258 639 299 724 b 200 1025 399 925 296 1025 b 90 750 104 1025 6 925 b 142 539 104 724 142 639 b 71 313 142 419 86 336 b 201 0 -61 125 47 0 b 325 322 356 0 463 125 b 313 342 324 325 319 331 b 326 381 304 356 308 376 b 346 386 332 382 339 386 b 365 365 353 386 360 381 b 425 192 390 283 415 229 b 621 0 443 121 517 0 b 761 240 735 0 840 146 z "},"l":{"ha":400,"x_min":0,"x_max":0,"o":"m 325 322 b 258 539 317 336 258 419 b 308 746 258 639 299 724 b 200 1025 399 925 296 1025 b 90 750 104 1025 6 925 b 142 539 104 724 142 639 b 71 313 142 419 86 336 b 201 0 -61 125 47 0 b 325 322 356 0 463 125 z "},"m":{"ha":1224,"x_min":0,"x_max":0,"o":"m 1182 210 b 1085 375 1142 269 1085 299 b 1151 594 1085 456 1151 515 b 956 732 1151 679 1075 732 b 713 615 911 732 794 725 b 690 594 703 603 694 594 b 682 619 685 594 683 603 b 546 732 676 678 646 732 b 315 613 503 732 400 725 b 293 590 304 597 297 590 b 285 633 286 590 288 610 b 178 732 278 697 246 732 b 61 567 83 732 15 661 b 151 382 85 517 151 456 b 31 194 151 299 67 269 b 211 0 -22 90 71 0 b 365 210 350 0 443 90 b 268 388 328 267 268 296 b 425 532 268 508 374 532 b 560 394 507 532 560 471 b 439 194 560 299 475 269 b 619 0 386 90 479 0 b 774 210 758 0 851 90 b 676 397 735 269 676 299 b 849 532 676 474 779 532 b 968 394 915 532 968 471 b 847 194 968 299 883 269 b 1028 0 794 90 888 0 b 1182 210 1167 0 1260 90 z "},"n":{"ha":815,"x_min":0,"x_max":0,"o":"m 774 210 b 676 375 735 269 676 299 b 743 594 676 456 743 515 b 547 732 743 679 667 732 b 315 613 503 732 400 725 b 293 590 304 597 297 590 b 285 633 286 590 288 610 b 178 732 278 697 246 732 b 61 567 83 732 15 661 b 151 382 85 517 151 456 b 31 194 151 299 67 269 b 211 0 -22 90 71 0 b 365 210 350 0 443 90 b 268 388 328 267 268 296 b 425 532 268 508 374 532 b 560 394 507 532 560 471 b 439 194 560 299 475 269 b 619 0 386 90 479 0 b 774 210 758 0 851 90 z "},"o":{"ha":732,"x_min":0,"x_max":0,"o":"m 711 335 b 358 732 711 563 556 732 b 19 339 163 732 19 563 b 367 0 19 115 163 0 b 711 335 568 0 711 115 z m 268 447 b 363 615 268 546 315 615 b 463 440 410 615 463 544 b 368 308 463 321 393 308 b 268 447 342 308 268 322 z "},"p":{"ha":708,"x_min":0,"x_max":0,"o":"m 339 -17 b 264 115 315 17 279 54 b 282 121 258 142 265 143 b 478 0 326 60 399 0 b 683 371 603 0 683 143 b 453 732 683 571 621 732 b 265 629 367 732 308 690 b 247 614 258 619 253 614 b 235 636 242 614 238 621 b 142 732 224 689 197 732 b 47 479 32 732 -25 633 b 124 238 71 431 124 346 b 53 19 124 126 68 43 b 183 -292 -79 -168 29 -292 b 339 -17 339 -292 444 -168 z m 239 435 b 340 571 239 525 286 571 b 435 440 382 571 435 544 b 339 308 435 321 364 308 b 239 435 313 308 239 322 z "},"q":{"ha":708,"x_min":0,"x_max":0,"o":"m 656 19 b 585 238 640 43 585 126 b 660 479 585 346 636 431 b 567 732 733 633 676 732 b 472 636 511 732 485 689 b 460 614 469 621 465 614 b 442 629 456 614 450 619 b 254 732 400 690 342 732 b 25 371 86 732 25 571 b 231 0 25 143 106 0 b 426 121 308 0 382 60 b 443 115 442 143 450 142 b 369 -17 429 54 393 17 b 524 -292 264 -168 369 -292 b 656 19 679 -292 788 -168 z m 274 440 b 368 571 274 544 326 571 b 468 435 422 571 468 525 b 369 308 468 322 396 308 b 274 440 344 308 274 321 z "},"r":{"ha":628,"x_min":0,"x_max":0,"o":"m 365 210 b 268 396 328 267 268 296 b 368 517 268 508 343 517 b 421 497 388 517 401 511 b 494 468 444 478 469 468 b 581 513 524 468 553 482 b 585 696 636 572 638 646 b 482 732 557 724 525 732 b 311 614 456 732 383 732 b 292 590 301 597 294 590 b 285 633 286 590 288 610 b 178 732 278 697 246 732 b 61 567 83 732 15 661 b 151 382 85 517 151 456 b 31 194 151 299 67 269 b 211 0 -22 90 71 0 b 365 210 350 0 443 90 z "},"s":{"ha":628,"x_min":0,"x_max":0,"o":"m 604 243 b 285 531 604 490 285 413 b 357 586 285 574 331 586 b 408 553 379 586 408 576 b 493 493 408 522 446 493 b 593 601 564 493 593 557 b 357 732 593 681 506 732 b 44 551 192 732 44 669 b 344 325 44 381 344 388 b 297 293 344 311 328 293 b 138 369 233 293 246 369 b 19 247 56 369 19 325 b 311 0 19 122 113 0 b 604 243 474 0 604 83 z "},"t":{"ha":544,"x_min":0,"x_max":0,"o":"m 529 192 b 426 333 529 286 485 333 b 394 329 417 333 406 332 b 344 313 369 322 360 313 b 274 549 279 313 274 514 b 275 592 274 564 274 576 b 303 615 276 606 288 615 l 435 615 b 493 674 469 615 493 639 b 435 732 493 710 469 732 l 325 732 b 357 842 282 732 336 772 b 232 1025 386 938 335 1025 b 108 825 103 1025 81 914 b 128 732 126 763 165 732 l 69 732 b 11 674 35 732 11 708 b 69 615 11 639 35 615 l 131 615 b 156 592 146 615 154 607 b 156 581 156 588 156 585 b 75 288 156 419 100 336 b 289 0 0 135 65 0 b 529 192 403 0 529 36 z "},"u":{"ha":743,"x_min":0,"x_max":0,"o":"m 715 165 b 624 389 692 215 624 276 b 647 488 624 433 636 463 b 551 732 725 643 661 732 b 429 517 439 732 347 643 b 507 382 463 465 507 436 b 363 274 507 297 401 274 b 244 403 297 274 244 336 b 268 488 244 433 257 463 b 172 732 346 643 282 732 b 51 514 61 732 -32 643 b 128 371 85 463 128 433 b 33 135 128 276 33 243 b 200 0 33 53 88 0 b 464 126 308 0 406 49 b 482 143 474 139 479 143 b 490 100 489 143 488 124 b 597 0 499 36 531 0 b 715 165 693 0 760 72 z "},"v":{"ha":736,"x_min":0,"x_max":0,"o":"m 581 150 b 576 358 581 200 556 285 b 697 518 600 435 669 488 b 625 726 776 606 704 703 b 579 733 611 731 594 733 b 447 600 508 733 432 690 b 465 393 454 554 489 469 b 368 292 449 339 417 292 b 269 393 319 292 288 339 b 289 600 246 469 282 554 b 157 733 304 690 228 733 b 110 726 140 733 124 731 b 39 518 31 703 -40 606 b 158 358 67 488 135 435 b 156 150 181 285 156 200 b 368 0 156 51 261 0 b 581 150 474 0 581 43 z "},"w":{"ha":1057,"x_min":0,"x_max":0,"o":"m 928 132 b 899 368 928 200 874 285 b 1017 518 919 435 988 488 b 944 726 1094 606 1024 703 b 899 733 931 731 914 733 b 765 600 828 733 751 690 b 789 375 774 554 808 469 b 717 292 782 339 764 292 b 643 375 668 292 650 339 b 639 638 621 485 654 571 b 529 732 622 703 561 732 b 418 638 496 732 433 703 b 413 375 401 571 435 485 b 340 292 406 339 389 292 b 267 375 292 292 274 339 b 290 600 247 469 283 554 b 158 733 306 690 229 733 b 111 726 142 733 125 731 b 40 518 32 703 -39 606 b 157 368 68 488 136 435 b 128 132 182 285 128 200 b 304 0 128 51 204 0 b 493 172 397 0 493 43 b 529 376 493 224 503 331 b 563 172 554 318 563 235 b 751 0 563 43 658 0 b 928 132 851 0 928 51 z "},"x":{"ha":722,"x_min":0,"x_max":0,"o":"m 628 19 b 599 267 744 96 731 226 b 471 343 558 281 503 310 b 471 419 446 371 446 394 b 581 493 503 450 572 488 b 597 717 703 560 710 668 b 524 733 574 726 547 733 b 404 624 467 733 417 703 b 379 504 400 599 389 536 b 361 474 374 483 368 474 b 343 504 356 474 349 483 b 318 624 332 536 322 599 b 199 733 304 703 254 733 b 125 717 175 733 149 726 b 140 493 13 668 19 560 b 250 419 150 488 219 450 b 250 343 275 394 275 371 b 124 267 219 310 164 281 b 94 19 -10 226 -24 96 b 213 -18 133 -6 175 -18 b 347 107 286 -18 349 28 b 354 301 347 160 319 231 b 368 299 360 313 361 313 b 374 104 404 218 374 160 b 510 -18 374 26 435 -18 b 628 19 547 -18 589 -6 z "},"y":{"ha":711,"x_min":0,"x_max":0,"o":"m 692 -26 b 624 361 692 75 624 186 b 647 488 624 433 636 463 b 551 732 725 643 661 732 b 429 517 439 732 347 643 b 507 382 463 465 507 436 b 363 274 507 297 401 274 b 244 403 297 274 244 336 b 268 488 244 433 257 463 b 172 732 346 643 282 732 b 51 514 61 732 -32 643 b 128 371 85 463 128 433 b 33 135 128 276 33 243 b 200 0 33 53 88 0 b 461 122 308 0 406 49 b 485 143 474 139 481 143 b 492 124 492 143 492 131 b 310 -58 488 29 425 -58 b 244 -49 283 -58 264 -54 l 206 -37 b 142 -28 186 -32 167 -28 b 28 -128 69 -28 28 -62 b 307 -322 28 -229 122 -322 b 692 -26 511 -322 692 -193 z "},"z":{"ha":614,"x_min":0,"x_max":0,"o":"m 596 218 b 483 369 596 296 560 369 b 318 293 406 369 382 293 b 271 321 288 293 271 311 b 482 521 271 349 388 444 b 542 651 518 553 542 603 b 463 732 542 700 510 732 l 258 732 b 22 601 110 732 22 681 b 122 493 22 557 51 493 b 207 553 169 493 207 522 b 269 586 207 576 236 586 b 331 561 285 586 331 588 b 86 297 331 514 188 417 b 25 107 50 256 25 179 b 131 0 25 44 68 0 l 319 0 b 596 218 503 0 596 93 z "},"{":{"ha":761,"x_min":0,"x_max":0,"o":"m 681 -119 b 572 -3 681 -79 665 -19 b 464 185 467 17 471 85 b 288 397 456 317 435 379 b 440 583 410 431 440 501 b 518 778 440 653 418 750 b 668 924 636 811 668 863 b 513 1025 668 983 638 1025 b 246 572 336 1025 150 968 b 139 460 261 511 193 471 b 81 399 101 453 81 431 b 138 336 81 367 100 346 b 222 224 186 322 228 282 b 458 -292 183 -151 247 -292 b 681 -119 563 -292 681 -235 z "},"|":{"ha":239,"x_min":0,"x_max":0,"o":"m 192 -219 l 192 951 b 118 1025 192 996 161 1025 b 46 951 74 1025 46 996 l 46 -219 b 118 -292 46 -262 74 -292 b 192 -219 163 -292 192 -262 z "},"}":{"ha":761,"x_min":0,"x_max":0,"o":"m 539 224 b 624 336 533 282 575 322 b 681 399 661 346 681 367 b 622 460 681 431 660 453 b 515 572 568 471 500 511 b 249 1025 613 968 425 1025 b 94 924 124 1025 94 983 b 243 778 94 863 125 811 b 321 583 343 750 321 653 b 474 397 321 501 351 431 b 297 185 326 379 306 317 b 189 -3 290 85 294 17 b 81 -119 96 -19 81 -79 b 303 -292 81 -235 199 -292 b 539 224 514 -292 578 -151 z "},"~":{"ha":640,"x_min":0,"x_max":0,"o":"m 614 621 b 574 650 613 650 593 650 b 532 622 563 650 551 643 b 468 565 524 614 511 565 b 188 651 410 565 281 651 b 28 419 74 651 13 519 b 56 390 31 401 38 390 b 104 419 85 390 88 394 b 179 476 113 429 125 476 b 460 390 253 476 367 390 b 614 621 582 390 617 539 z "}," ":{"ha":374,"x_min":0,"x_max":0,"o":""},"¡":{"ha":372,"x_min":0,"x_max":0,"o":"m 347 571 b 186 732 347 658 275 732 b 25 571 99 732 25 658 b 186 410 25 482 99 410 b 347 571 275 410 347 482 z m 339 -108 l 257 281 b 186 338 249 314 222 338 b 115 281 151 338 124 314 l 33 -108 b 188 -292 11 -219 71 -292 b 339 -108 300 -292 361 -219 z "},"¢":{"ha":685,"x_min":0,"x_max":0,"o":"m 424 -54 l 424 7 b 669 244 574 33 660 138 b 522 413 678 364 588 413 b 356 308 429 413 426 308 b 271 440 329 308 271 322 b 365 615 271 546 318 615 b 411 567 382 615 411 607 b 496 493 411 522 449 493 b 596 601 567 493 596 557 b 424 731 596 672 525 722 l 424 786 b 351 860 424 831 396 860 b 276 786 306 860 276 831 l 276 717 b 22 336 119 669 22 522 b 276 7 22 144 125 33 l 276 -54 b 351 -126 276 -97 306 -126 b 424 -54 396 -126 424 -97 z "},"£":{"ha":844,"x_min":0,"x_max":0,"o":"m 819 260 b 686 503 819 431 749 503 b 607 446 653 503 622 482 b 496 388 588 400 549 388 b 338 474 418 388 365 417 l 422 474 b 496 544 467 474 496 501 b 422 619 496 590 467 619 l 311 619 b 411 806 311 656 310 806 b 465 744 450 806 469 782 b 589 615 458 689 497 615 b 765 790 696 615 765 682 b 411 1025 765 963 589 1025 b 50 797 179 1025 50 918 b 138 619 50 725 94 669 l 106 619 b 32 544 61 619 32 589 b 106 474 32 501 61 474 l 204 474 b 100 303 197 393 119 329 b 226 0 -39 125 56 0 b 392 135 322 0 392 39 b 403 169 392 157 397 169 b 422 143 408 169 415 161 b 632 0 453 57 544 0 b 819 260 714 0 819 51 z "},"¤":{"ha":743,"x_min":0,"x_max":0,"o":"m 693 176 b 693 279 725 207 725 247 l 603 369 b 629 494 619 406 629 449 b 604 618 629 540 619 583 l 693 706 b 693 808 725 736 725 778 b 640 832 678 825 658 832 b 589 810 622 832 604 825 l 504 725 b 365 758 465 747 418 758 b 235 729 315 758 274 749 l 153 810 b 101 832 138 825 119 832 b 49 808 83 832 65 825 b 49 706 17 778 17 736 l 131 625 b 101 494 113 589 101 543 b 132 361 101 444 113 399 l 49 279 b 49 176 17 247 17 207 b 101 153 65 160 83 153 b 153 175 119 153 138 160 l 238 260 b 365 232 275 242 318 232 b 500 263 417 232 463 242 l 589 175 b 640 153 604 160 622 153 b 693 176 658 153 678 160 z m 249 494 b 365 613 249 565 294 613 b 482 494 436 613 482 565 b 365 378 482 425 436 378 b 249 494 294 378 249 425 z "},"¥":{"ha":940,"x_min":0,"x_max":0,"o":"m 649 267 l 697 267 b 771 339 742 267 771 294 b 697 413 771 383 742 413 l 553 413 b 543 443 549 422 546 432 l 697 443 b 771 514 742 443 771 471 b 697 589 771 560 742 589 l 592 589 b 756 710 651 644 726 690 b 771 999 901 807 879 936 b 675 1026 739 1017 707 1026 b 525 847 599 1026 533 971 b 478 649 521 804 508 726 b 461 649 474 638 465 638 b 414 847 431 726 418 804 b 264 1026 406 971 340 1026 b 168 999 233 1026 200 1017 b 185 710 60 936 38 807 b 347 589 214 690 288 644 l 250 589 b 176 514 206 589 176 558 b 250 443 176 471 206 443 l 393 443 b 382 413 390 432 386 422 l 250 413 b 176 339 206 413 176 382 b 250 267 176 294 206 267 l 289 267 b 469 0 192 108 283 0 b 649 267 656 0 746 110 z "},"¦":{"ha":233,"x_min":0,"x_max":0,"o":"m 189 485 l 189 951 b 115 1025 189 996 158 1025 b 43 951 71 1025 43 996 l 43 485 b 115 411 43 440 71 411 b 189 485 160 411 189 440 z m 189 -219 l 189 247 b 115 321 189 292 158 321 b 43 247 71 321 43 292 l 43 -219 b 115 -292 43 -262 71 -292 b 189 -219 160 -292 189 -262 z "},"§":{"ha":650,"x_min":0,"x_max":0,"o":"m 614 142 b 543 292 614 217 585 263 b 544 326 525 303 526 315 b 614 464 590 357 614 401 b 294 721 614 681 294 603 b 367 776 294 764 340 776 b 418 743 389 776 418 767 b 503 683 418 713 456 683 b 603 792 574 683 603 747 b 367 922 603 871 515 922 b 54 744 201 922 54 860 b 139 613 54 685 90 646 b 138 576 157 600 156 588 b 54 449 86 546 54 504 b 354 224 54 279 354 285 b 307 190 354 208 338 190 b 147 267 243 190 256 267 b 29 146 65 267 29 224 b 321 -101 29 19 122 -101 b 614 142 483 -101 614 -18 z m 294 421 b 336 492 294 453 307 492 b 379 425 361 492 379 463 b 335 363 379 385 361 363 b 294 421 304 363 294 393 z "},"¨":{"ha":585,"x_min":0,"x_max":0,"o":"m 560 901 b 433 1028 560 972 504 1028 b 307 901 364 1028 307 972 b 433 776 307 833 364 776 b 560 901 504 776 560 833 z m 276 901 b 151 1028 276 972 221 1028 b 25 901 82 1028 25 972 b 151 776 25 833 82 776 b 276 901 221 776 276 833 z "},"©":{"ha":982,"x_min":0,"x_max":0,"o":"m 957 514 b 490 1025 957 819 769 1025 b 24 514 211 1025 24 819 b 490 0 24 207 211 0 b 957 514 769 0 957 207 z m 82 539 b 490 929 82 774 246 929 b 899 539 735 929 899 774 b 490 146 899 303 735 146 b 82 539 246 146 82 303 z m 751 428 b 696 556 764 494 736 532 b 635 572 675 567 654 572 b 549 510 599 572 568 553 b 486 458 529 463 499 458 b 406 619 438 458 406 525 b 478 781 406 713 436 781 b 510 722 494 781 514 767 b 614 622 506 661 539 607 b 696 731 686 638 696 697 b 517 871 696 832 618 871 b 208 533 324 871 208 725 b 485 242 208 342 324 242 b 751 428 624 242 731 317 z "},"ª":{"ha":506,"x_min":0,"x_max":0,"o":"m 447 682 b 454 856 410 775 439 822 b 392 1025 503 958 465 1025 b 329 961 354 1025 336 996 b 308 956 325 942 319 942 b 185 1025 279 997 242 1025 b 29 783 71 1025 29 917 b 158 536 29 629 83 536 b 306 643 219 536 279 600 b 315 642 317 658 318 658 b 389 536 303 546 356 536 b 447 682 486 536 474 619 z m 196 831 b 258 917 196 899 231 917 b 326 826 294 917 326 886 b 258 740 326 751 276 740 b 196 831 243 740 196 750 z "},"«":{"ha":843,"x_min":0,"x_max":0,"o":"m 811 94 b 774 190 829 133 804 154 l 669 321 l 774 451 b 811 547 804 488 829 508 b 747 597 797 576 774 597 b 713 585 736 597 724 593 l 467 396 b 425 321 438 374 425 351 b 467 246 425 290 438 268 l 713 57 b 747 44 724 49 736 44 b 811 94 774 44 797 65 z m 467 94 b 431 190 486 133 460 154 l 325 321 l 431 451 b 467 547 460 488 486 508 b 404 597 454 576 429 597 b 369 585 392 597 381 593 l 124 396 b 81 321 94 374 81 351 b 124 246 81 290 94 268 l 369 57 b 404 44 381 49 392 44 b 467 94 429 44 454 65 z "},"¬":{"ha":707,"x_min":0,"x_max":0,"o":"m 675 388 l 675 628 b 601 703 675 674 646 703 l 154 703 b 81 628 110 703 81 672 b 154 557 81 585 110 557 l 528 557 l 528 388 b 600 314 528 343 556 314 b 675 388 646 314 675 343 z "},"­":{"ha":0,"x_min":0,"x_max":0,"o":""},"®":{"ha":982,"x_min":0,"x_max":0,"o":"m 957 514 b 490 1025 957 819 769 1025 b 24 514 211 1025 24 819 b 490 0 24 207 211 0 b 957 514 769 0 957 207 z m 82 539 b 490 929 82 774 246 929 b 899 539 735 929 899 774 b 490 146 899 303 735 146 b 82 539 246 146 82 303 z m 733 403 b 558 529 710 428 642 488 b 561 554 538 539 539 547 b 700 704 628 574 700 613 b 543 872 700 775 658 872 b 435 804 522 872 463 869 b 413 804 421 769 404 771 b 351 872 426 854 393 872 b 274 715 278 872 225 811 b 319 571 288 688 319 635 b 261 428 319 499 275 447 b 356 240 176 317 233 240 b 469 404 479 240 536 317 b 415 517 447 433 424 482 b 439 528 411 538 415 540 b 521 351 483 504 506 474 b 643 240 529 303 535 240 b 733 403 761 240 818 317 z m 403 667 b 463 728 403 703 425 728 b 521 667 506 728 521 697 b 458 607 521 622 486 607 b 403 667 425 607 403 628 z "},"¯":{"ha":585,"x_min":0,"x_max":0,"o":"m 563 863 b 489 938 563 908 533 938 l 96 938 b 22 863 51 938 22 907 b 96 790 22 818 51 790 l 489 790 b 563 863 533 790 563 818 z "},"°":{"ha":472,"x_min":0,"x_max":0,"o":"m 444 817 b 236 1025 444 942 361 1025 b 26 817 110 1025 26 942 b 236 608 26 692 110 608 b 444 817 361 608 444 692 z m 143 817 b 236 908 143 871 181 908 b 328 817 292 908 328 871 b 236 725 328 761 292 725 b 143 817 181 725 143 761 z "},"±":{"ha":639,"x_min":0,"x_max":0,"o":"m 393 232 l 393 382 l 543 382 b 617 454 588 382 617 410 b 543 529 617 500 588 529 l 393 529 l 393 679 b 318 753 393 724 361 753 b 246 679 274 753 246 724 l 246 529 l 96 529 b 22 454 51 529 22 499 b 96 382 22 410 51 382 l 246 382 l 246 232 b 318 158 246 188 274 158 b 393 232 364 158 393 188 z m 617 72 b 543 147 617 118 588 147 l 96 147 b 22 72 51 147 22 117 b 96 0 22 28 51 0 l 543 0 b 617 72 588 0 617 28 z "},"²":{"ha":496,"x_min":0,"x_max":0,"o":"m 467 563 b 404 696 467 624 444 682 b 292 650 363 708 311 676 b 251 629 282 638 269 629 b 215 653 232 629 215 639 b 450 879 215 708 450 733 b 238 1025 450 963 375 1025 b 31 888 133 1025 31 989 b 110 788 31 858 39 801 b 206 861 182 774 213 822 b 249 896 203 883 215 896 b 301 860 282 896 301 883 b 93 664 301 801 188 738 b 36 535 60 636 36 585 l 36 501 b 114 424 36 456 67 424 l 308 424 b 467 563 419 424 467 474 z "},"³":{"ha":526,"x_min":0,"x_max":0,"o":"m 497 593 b 389 744 497 664 447 718 b 389 754 376 749 376 751 b 482 872 446 769 482 814 b 268 1025 482 963 404 1025 b 61 888 164 1025 61 989 b 140 786 61 858 69 800 b 238 860 211 772 242 822 b 281 896 235 882 246 896 b 333 847 313 896 333 882 b 249 789 333 807 306 792 b 218 760 231 789 218 776 b 246 726 218 746 229 733 b 294 663 272 715 294 690 b 258 628 294 638 278 628 b 228 658 239 628 226 638 b 140 738 229 700 192 738 b 79 721 121 738 100 733 b 31 593 43 700 17 665 b 261 422 51 474 150 422 b 497 593 371 422 497 472 z "},"´":{"ha":411,"x_min":0,"x_max":0,"o":"m 164 818 l 307 990 b 274 1090 347 1036 333 1076 l 183 1113 b 64 1036 122 1128 76 1097 l 26 831 b 74 776 21 799 38 776 b 164 818 107 776 142 792 z "},"μ":{"ha":753,"x_min":0,"x_max":0,"o":"m 335 -140 b 233 75 335 -29 238 -10 b 322 21 256 36 289 21 b 465 126 385 21 451 72 b 476 147 469 142 474 147 b 492 100 483 147 489 124 b 599 0 500 36 532 0 b 717 165 694 0 761 72 b 625 389 693 215 625 276 b 649 488 625 433 638 463 b 551 732 726 643 663 732 b 431 517 440 732 349 643 b 508 382 464 465 508 436 b 364 274 508 297 403 274 b 246 403 299 274 246 336 b 269 488 246 433 258 463 b 174 732 347 643 283 732 b 53 514 63 732 -31 643 b 129 344 86 463 129 433 b 0 -71 129 126 85 103 b 176 -276 -57 -187 38 -276 b 335 -140 301 -276 335 -204 z "},"¶":{"ha":785,"x_min":0,"x_max":0,"o":"m 738 -219 l 738 951 b 663 1025 738 996 707 1025 l 456 1025 b 81 672 244 1025 81 883 b 383 321 81 478 200 342 l 383 -219 b 456 -292 383 -262 411 -292 b 531 -219 500 -292 531 -262 l 531 908 l 592 908 l 592 -219 b 663 -292 592 -262 619 -292 b 738 -219 708 -292 738 -262 z "},"·":{"ha":372,"x_min":0,"x_max":0,"o":"m 347 469 b 181 625 344 558 269 628 b 25 458 92 622 22 547 b 192 303 28 369 103 300 b 347 469 281 306 350 381 z "},"¸":{"ha":142,"x_min":0,"x_max":0,"o":"m 181 -167 b 126 -79 181 -129 165 -100 b 107 -31 104 -68 97 -50 l 131 14 l 13 14 l -39 -67 b -22 -104 -50 -85 -44 -96 b 21 -164 10 -115 21 -144 b -56 -237 21 -204 -18 -229 b -89 -275 -76 -243 -89 -257 b -56 -314 -89 -296 -75 -312 b 181 -167 57 -321 181 -276 z "},"¹":{"ha":331,"x_min":0,"x_max":0,"o":"m 269 596 b 211 736 254 618 211 668 b 257 875 211 799 243 847 b 178 1025 301 968 247 1039 l 75 1004 b 22 939 43 999 22 971 b 75 894 22 907 42 892 b 140 758 149 899 140 808 b 85 599 140 668 100 618 b 178 419 3 493 58 419 b 269 596 294 419 349 493 z "},"º":{"ha":519,"x_min":0,"x_max":0,"o":"m 492 758 b 256 1025 492 911 386 1025 b 28 761 125 1025 28 911 b 261 535 28 613 125 535 b 492 758 396 535 492 613 z m 194 835 b 257 946 194 900 225 946 b 325 831 290 946 325 899 b 261 740 325 750 278 740 b 194 835 243 740 194 751 z "},"»":{"ha":843,"x_min":0,"x_max":0,"o":"m 129 57 l 375 246 b 418 321 404 268 418 290 b 375 396 418 351 404 374 l 129 585 b 94 597 118 593 107 597 b 32 547 69 597 44 576 b 68 451 13 508 39 488 l 174 321 l 68 190 b 32 94 39 154 13 133 b 94 44 44 65 69 44 b 129 57 107 44 118 49 z m 474 57 l 719 246 b 761 321 749 268 761 290 b 719 396 761 351 749 374 l 474 585 b 439 597 463 593 450 597 b 375 547 413 597 389 576 b 413 451 357 508 383 488 l 517 321 l 413 190 b 375 94 383 154 357 133 b 439 44 389 65 413 44 b 474 57 450 44 463 49 z "},"¼":{"ha":1150,"x_min":0,"x_max":0,"o":"m 328 596 b 269 736 313 618 269 668 b 315 875 269 799 301 847 b 236 1025 360 968 306 1039 l 133 1004 b 81 939 101 999 81 971 b 133 894 81 907 100 892 b 199 758 207 899 199 808 b 143 599 199 668 158 618 b 236 419 61 493 117 419 b 328 596 353 419 407 493 z m 392 49 l 793 926 b 763 1021 813 969 804 1006 b 736 1025 753 1024 744 1025 b 685 976 713 1025 700 1008 l 283 99 b 313 6 265 56 271 19 b 339 0 322 1 332 0 b 392 49 364 0 378 18 z m 1032 176 b 1018 193 1029 181 1025 186 b 1026 207 1013 203 1015 207 l 1035 207 b 1068 260 1056 207 1068 221 b 1035 311 1068 297 1056 311 l 993 311 b 974 336 974 311 974 336 b 1025 464 974 400 1006 426 b 949 603 1063 542 1015 603 l 888 603 b 785 542 846 603 804 579 l 661 307 b 646 242 651 288 646 263 b 681 207 646 219 658 207 l 853 207 b 861 193 863 207 865 203 b 849 179 856 188 851 182 b 940 0 768 74 822 0 b 1032 176 1057 0 1111 74 z m 792 335 l 846 431 b 883 469 860 457 874 469 b 904 408 896 469 903 449 b 901 340 904 374 906 374 b 867 311 900 322 883 311 l 804 311 b 792 335 786 311 783 318 z "},"½":{"ha":1203,"x_min":0,"x_max":0,"o":"m 328 596 b 269 736 313 618 269 668 b 315 875 269 799 301 847 b 236 1025 360 968 306 1039 l 133 1004 b 81 939 101 999 81 971 b 133 894 81 907 100 892 b 199 758 207 899 199 808 b 143 599 199 668 158 618 b 236 419 61 493 117 419 b 328 596 353 419 407 493 z m 392 49 l 793 926 b 763 1021 813 969 804 1006 b 736 1025 753 1024 744 1025 b 685 976 713 1025 700 1008 l 283 99 b 313 6 265 56 271 19 b 339 0 322 1 332 0 b 392 49 364 0 378 18 z m 1121 139 b 1058 272 1121 201 1099 260 b 946 228 1017 286 965 254 b 906 207 936 214 924 207 b 869 231 888 207 869 215 b 1106 456 869 286 1106 311 b 892 601 1106 539 1029 601 b 685 464 788 601 685 565 b 764 365 685 435 694 378 b 861 438 836 350 867 400 b 903 474 858 460 869 474 b 956 436 936 474 956 460 b 747 240 956 378 842 315 b 690 111 714 213 690 161 l 690 78 b 768 0 690 33 722 0 l 963 0 b 1121 139 1074 0 1121 50 z "},"¾":{"ha":1150,"x_min":0,"x_max":0,"o":"m 328 596 b 269 736 313 618 269 668 b 315 875 269 799 301 847 b 236 1025 360 968 306 1039 l 133 1004 b 81 939 101 999 81 971 b 133 894 81 907 100 892 b 199 758 207 899 199 808 b 143 599 199 668 158 618 b 236 419 61 493 117 419 b 328 596 353 419 407 493 z m 392 49 l 793 926 b 763 1021 813 969 804 1006 b 736 1025 753 1024 744 1025 b 685 976 713 1025 700 1008 l 283 99 b 313 6 265 56 271 19 b 339 0 322 1 332 0 b 392 49 364 0 378 18 z m 1032 176 b 1018 193 1029 181 1025 186 b 1026 207 1013 203 1015 207 l 1035 207 b 1068 260 1056 207 1068 221 b 1035 311 1068 297 1056 311 l 993 311 b 974 336 974 311 974 336 b 1025 464 974 400 1006 426 b 949 603 1063 542 1015 603 l 888 603 b 785 542 846 603 804 579 l 661 307 b 646 242 651 288 646 263 b 681 207 646 219 658 207 l 853 207 b 861 193 863 207 865 203 b 849 179 856 188 851 182 b 940 0 768 74 822 0 b 1032 176 1057 0 1111 74 z m 792 335 l 846 431 b 883 469 860 457 874 469 b 904 408 896 469 903 449 b 901 340 904 374 906 374 b 867 311 900 322 883 311 l 804 311 b 792 335 786 311 783 318 z "},"¿":{"ha":878,"x_min":0,"x_max":0,"o":"m 597 571 b 436 732 597 658 524 732 b 275 571 347 732 275 658 b 436 410 275 482 347 410 b 597 571 524 410 597 482 z m 796 -58 b 661 115 796 -8 782 92 b 496 -11 540 139 488 51 b 425 -72 500 -50 482 -72 b 333 -10 368 -72 333 -50 b 497 283 333 79 497 133 b 436 361 497 339 476 361 b 367 300 418 361 367 356 b 81 -42 367 169 81 171 b 442 -292 81 -186 211 -292 b 796 -58 621 -292 796 -229 z "},"À":{"ha":936,"x_min":0,"x_max":0,"o":"m 617 1122 l 579 1329 b 461 1406 567 1389 521 1419 l 369 1383 b 336 1282 310 1368 297 1329 l 479 1111 b 571 1068 501 1085 536 1068 b 617 1122 606 1068 622 1090 z m 754 11 b 835 344 947 56 1011 201 b 690 549 804 369 717 435 b 711 792 667 649 699 743 b 468 1025 747 954 608 1025 b 225 792 328 1026 186 957 b 246 549 236 743 268 649 b 100 344 219 435 131 369 b 181 11 -75 201 -12 56 b 265 0 211 4 240 0 b 404 264 404 0 476 99 b 469 356 382 318 410 356 b 531 264 529 356 554 318 b 669 0 460 99 531 0 b 754 11 696 0 724 4 z m 396 625 b 474 701 419 676 447 701 b 547 625 501 701 528 676 b 468 474 585 526 543 474 b 396 625 393 474 353 526 z "},"Á":{"ha":936,"x_min":0,"x_max":0,"o":"m 451 1111 l 594 1282 b 561 1383 635 1329 621 1368 l 471 1406 b 353 1329 411 1419 364 1389 l 314 1122 b 361 1068 308 1090 326 1068 b 451 1111 394 1068 429 1085 z m 754 11 b 835 344 947 56 1011 201 b 690 549 804 369 717 435 b 711 792 667 649 699 743 b 468 1025 747 954 608 1025 b 225 792 328 1026 186 957 b 246 549 236 743 268 649 b 100 344 219 435 131 369 b 181 11 -75 201 -12 56 b 265 0 211 4 240 0 b 404 264 404 0 476 99 b 469 356 382 318 410 356 b 531 264 529 356 554 318 b 669 0 460 99 531 0 b 754 11 696 0 724 4 z m 396 625 b 474 701 419 676 447 701 b 547 625 501 701 528 676 b 468 474 585 526 543 474 b 396 625 393 474 353 526 z "},"Â":{"ha":936,"x_min":0,"x_max":0,"o":"m 625 1063 l 686 1085 b 719 1186 744 1106 758 1139 l 576 1357 b 465 1396 550 1388 506 1396 b 356 1357 424 1396 381 1388 l 211 1186 b 246 1085 172 1139 186 1106 l 307 1063 b 336 1057 317 1060 328 1057 b 425 1139 381 1057 413 1092 l 467 1286 l 506 1139 b 593 1057 515 1090 549 1057 b 625 1063 603 1057 614 1058 z m 754 11 b 835 344 947 56 1011 201 b 690 549 804 369 717 435 b 711 792 667 649 699 743 b 468 1025 747 954 608 1025 b 225 792 328 1026 186 957 b 246 549 236 743 268 649 b 100 344 219 435 131 369 b 181 11 -75 201 -12 56 b 265 0 211 4 240 0 b 404 264 404 0 476 99 b 469 356 382 318 410 356 b 531 264 529 356 554 318 b 669 0 460 99 531 0 b 754 11 696 0 724 4 z m 396 625 b 474 701 419 676 447 701 b 547 625 501 701 528 676 b 468 474 585 526 543 474 b 396 625 393 474 353 526 z "},"Ã":{"ha":936,"x_min":0,"x_max":0,"o":"m 681 1256 b 639 1285 679 1285 660 1285 b 599 1257 629 1285 617 1278 b 563 1244 589 1249 578 1244 b 404 1286 519 1244 478 1286 b 254 1099 301 1286 239 1199 b 282 1068 257 1081 264 1068 b 332 1099 311 1068 314 1074 b 372 1111 339 1108 353 1111 b 543 1068 450 1111 476 1068 b 681 1256 647 1068 683 1174 z m 754 11 b 835 344 947 56 1011 201 b 690 549 804 369 717 435 b 711 792 667 649 699 743 b 468 1025 747 954 608 1025 b 225 792 328 1026 186 957 b 246 549 236 743 268 649 b 100 344 219 435 131 369 b 181 11 -75 201 -12 56 b 265 0 211 4 240 0 b 404 264 404 0 476 99 b 469 356 382 318 410 356 b 531 264 529 356 554 318 b 669 0 460 99 531 0 b 754 11 696 0 724 4 z m 396 625 b 474 701 419 676 447 701 b 547 625 501 701 528 676 b 468 474 585 526 543 474 b 396 625 393 474 353 526 z "},"Ä":{"ha":936,"x_min":0,"x_max":0,"o":"m 732 1194 b 607 1321 732 1265 676 1321 b 481 1194 538 1321 481 1265 b 607 1068 481 1126 538 1068 b 732 1194 676 1068 732 1126 z m 450 1194 b 325 1321 450 1265 394 1321 b 199 1194 256 1321 199 1265 b 325 1068 199 1126 256 1068 b 450 1194 394 1068 450 1126 z m 754 11 b 835 344 947 56 1011 201 b 690 549 804 369 717 435 b 711 792 667 649 699 743 b 468 1025 747 954 608 1025 b 225 792 328 1026 186 957 b 246 549 236 743 268 649 b 100 344 219 435 131 369 b 181 11 -75 201 -12 56 b 265 0 211 4 240 0 b 404 264 404 0 476 99 b 469 356 382 318 410 356 b 531 264 529 356 554 318 b 669 0 460 99 531 0 b 754 11 696 0 724 4 z m 396 625 b 474 701 419 676 447 701 b 547 625 501 701 528 676 b 468 474 585 526 543 474 b 396 625 393 474 353 526 z "},"Å":{"ha":936,"x_min":0,"x_max":0,"o":"m 649 1251 b 467 1435 649 1361 576 1435 b 283 1251 357 1435 283 1361 b 467 1068 283 1142 357 1068 b 649 1251 576 1068 649 1142 z m 400 1251 b 467 1318 400 1292 426 1318 b 532 1251 506 1318 532 1292 b 467 1186 532 1213 506 1186 b 400 1251 426 1186 400 1213 z m 754 11 b 835 344 947 56 1011 201 b 690 549 804 369 717 435 b 711 792 667 649 699 743 b 468 1025 747 954 608 1025 b 225 792 328 1026 186 957 b 246 549 236 743 268 649 b 100 344 219 435 131 369 b 181 11 -75 201 -12 56 b 265 0 211 4 240 0 b 404 264 404 0 476 99 b 469 356 382 318 410 356 b 531 264 529 356 554 318 b 669 0 460 99 531 0 b 754 11 696 0 724 4 z m 396 625 b 474 701 419 676 447 701 b 547 625 501 701 528 676 b 468 474 585 526 543 474 b 396 625 393 474 353 526 z "},"Æ":{"ha":1282,"x_min":0,"x_max":0,"o":"m 425 264 b 479 356 414 318 419 356 b 536 293 528 356 557 326 b 671 0 426 117 414 0 b 836 135 765 0 836 39 b 847 169 836 157 842 169 b 867 143 853 169 860 161 b 1076 0 897 57 989 0 b 1264 260 1158 0 1264 51 b 1131 503 1264 431 1193 503 b 1051 446 1097 503 1067 482 b 940 388 1032 400 993 388 b 776 490 857 388 776 419 b 853 554 776 539 813 554 b 954 531 889 554 929 543 b 1029 513 978 518 1004 513 b 1142 615 1088 513 1140 546 b 1043 710 1142 674 1103 710 b 939 679 1013 710 978 700 b 844 649 913 664 875 649 b 799 699 818 649 799 661 b 919 790 799 765 864 790 b 1104 769 969 790 1043 769 b 1222 888 1169 769 1222 793 b 1019 1025 1222 993 1158 1025 b 826 914 968 1025 871 1021 b 790 913 803 857 776 860 b 619 1025 821 1032 697 1025 b 328 792 481 1025 328 957 b 296 549 328 743 340 649 b 136 344 244 435 174 369 b 147 11 -68 201 -36 56 b 229 0 176 4 204 0 b 425 264 368 0 460 99 z m 464 625 b 557 701 497 676 531 701 b 614 625 585 701 606 676 b 503 474 631 526 578 474 b 464 625 428 474 399 526 z "},"Ç":{"ha":915,"x_min":0,"x_max":0,"o":"m 579 -167 b 525 -79 579 -128 564 -99 b 506 -31 503 -67 496 -50 l 524 3 b 900 303 722 21 869 135 b 808 511 921 413 878 474 b 710 539 775 529 742 539 b 572 438 653 539 603 507 b 468 351 538 361 489 351 b 310 615 392 351 310 460 b 453 879 310 769 389 879 b 508 781 482 879 514 856 b 635 615 503 693 543 615 b 810 797 747 615 810 686 b 519 1025 810 963 683 1025 b 17 475 204 1025 17 788 b 403 3 17 188 174 28 l 360 -65 b 376 -104 347 -83 353 -94 b 419 -164 407 -115 419 -143 b 343 -236 419 -203 379 -228 b 310 -275 322 -243 310 -256 b 343 -312 310 -296 324 -311 b 579 -167 456 -319 579 -276 z "},"È":{"ha":814,"x_min":0,"x_max":0,"o":"m 554 1122 l 517 1329 b 399 1406 504 1389 458 1419 l 307 1383 b 274 1282 247 1368 235 1329 l 417 1111 b 508 1068 439 1085 474 1068 b 554 1122 543 1068 560 1090 z m 794 260 b 661 503 794 431 724 503 b 582 446 628 503 597 482 b 471 388 564 400 524 388 b 307 490 388 388 307 419 b 385 554 307 539 343 554 b 486 531 421 554 461 543 b 561 513 510 518 536 513 b 674 615 619 513 672 546 b 575 710 674 674 633 710 b 469 679 543 710 508 700 b 375 649 443 664 406 649 b 329 699 349 649 329 661 b 450 790 329 765 394 790 b 636 769 500 790 574 769 b 754 888 701 769 754 793 b 550 1025 754 993 689 1025 b 357 914 499 1025 403 1021 b 322 913 333 857 307 860 b 221 1025 343 993 289 1025 b 94 769 103 1025 19 925 b 169 536 117 724 169 639 b 75 303 169 419 100 336 b 201 0 -62 125 31 0 b 367 135 297 0 367 39 b 379 169 367 157 372 169 b 399 143 385 169 392 161 b 607 0 429 57 519 0 b 794 260 689 0 794 51 z "},"É":{"ha":814,"x_min":0,"x_max":0,"o":"m 389 1111 l 532 1282 b 499 1383 572 1329 558 1368 l 408 1406 b 290 1329 349 1419 301 1389 l 251 1122 b 299 1068 246 1090 264 1068 b 389 1111 332 1068 367 1085 z m 794 260 b 661 503 794 431 724 503 b 582 446 628 503 597 482 b 471 388 564 400 524 388 b 307 490 388 388 307 419 b 385 554 307 539 343 554 b 486 531 421 554 461 543 b 561 513 510 518 536 513 b 674 615 619 513 672 546 b 575 710 674 674 633 710 b 469 679 543 710 508 700 b 375 649 443 664 406 649 b 329 699 349 649 329 661 b 450 790 329 765 394 790 b 636 769 500 790 574 769 b 754 888 701 769 754 793 b 550 1025 754 993 689 1025 b 357 914 499 1025 403 1021 b 322 913 333 857 307 860 b 221 1025 343 993 289 1025 b 94 769 103 1025 19 925 b 169 536 117 724 169 639 b 75 303 169 419 100 336 b 201 0 -62 125 31 0 b 367 135 297 0 367 39 b 379 169 367 157 372 169 b 399 143 385 169 392 161 b 607 0 429 57 519 0 b 794 260 689 0 794 51 z "},"Ê":{"ha":814,"x_min":0,"x_max":0,"o":"m 563 1063 l 624 1085 b 657 1186 682 1106 696 1139 l 514 1357 b 403 1396 488 1388 443 1396 b 293 1357 361 1396 318 1388 l 149 1186 b 183 1085 110 1139 125 1106 l 244 1063 b 274 1057 254 1060 265 1057 b 363 1139 318 1057 350 1092 l 404 1286 l 443 1139 b 531 1057 453 1090 486 1057 b 563 1063 540 1057 551 1058 z m 794 260 b 661 503 794 431 724 503 b 582 446 628 503 597 482 b 471 388 564 400 524 388 b 307 490 388 388 307 419 b 385 554 307 539 343 554 b 486 531 421 554 461 543 b 561 513 510 518 536 513 b 674 615 619 513 672 546 b 575 710 674 674 633 710 b 469 679 543 710 508 700 b 375 649 443 664 406 649 b 329 699 349 649 329 661 b 450 790 329 765 394 790 b 636 769 500 790 574 769 b 754 888 701 769 754 793 b 550 1025 754 993 689 1025 b 357 914 499 1025 403 1021 b 322 913 333 857 307 860 b 221 1025 343 993 289 1025 b 94 769 103 1025 19 925 b 169 536 117 724 169 639 b 75 303 169 419 100 336 b 201 0 -62 125 31 0 b 367 135 297 0 367 39 b 379 169 367 157 372 169 b 399 143 385 169 392 161 b 607 0 429 57 519 0 b 794 260 689 0 794 51 z "},"Ë":{"ha":814,"x_min":0,"x_max":0,"o":"m 671 1194 b 544 1321 671 1265 614 1321 b 418 1194 475 1321 418 1265 b 544 1068 418 1126 475 1068 b 671 1194 614 1068 671 1126 z m 388 1194 b 263 1321 388 1265 332 1321 b 136 1194 193 1321 136 1265 b 263 1068 136 1126 193 1068 b 388 1194 332 1068 388 1126 z m 794 260 b 661 503 794 431 724 503 b 582 446 628 503 597 482 b 471 388 564 400 524 388 b 307 490 388 388 307 419 b 385 554 307 539 343 554 b 486 531 421 554 461 543 b 561 513 510 518 536 513 b 674 615 619 513 672 546 b 575 710 674 674 633 710 b 469 679 543 710 508 700 b 375 649 443 664 406 649 b 329 699 349 649 329 661 b 450 790 329 765 394 790 b 636 769 500 790 574 769 b 754 888 701 769 754 793 b 550 1025 754 993 689 1025 b 357 914 499 1025 403 1021 b 322 913 333 857 307 860 b 221 1025 343 993 289 1025 b 94 769 103 1025 19 925 b 169 536 117 724 169 639 b 75 303 169 419 100 336 b 201 0 -62 125 31 0 b 367 135 297 0 367 39 b 379 169 367 157 372 169 b 399 143 385 169 392 161 b 607 0 429 57 519 0 b 794 260 689 0 794 51 z "},"Ì":{"ha":457,"x_min":0,"x_max":0,"o":"m 372 1122 l 335 1329 b 215 1406 322 1389 275 1419 l 125 1383 b 92 1282 65 1368 51 1329 l 235 1111 b 325 1068 257 1085 292 1068 b 372 1122 360 1068 378 1090 z m 385 299 b 286 536 357 336 286 419 b 364 771 286 639 340 724 b 228 1025 439 925 351 1025 b 94 769 101 1025 18 925 b 168 536 117 724 168 639 b 74 303 168 419 99 336 b 229 0 -64 125 29 0 b 385 299 426 0 518 125 z "},"Í":{"ha":457,"x_min":0,"x_max":0,"o":"m 207 1111 l 350 1282 b 317 1383 390 1329 376 1368 l 226 1406 b 107 1329 165 1419 119 1389 l 69 1122 b 117 1068 64 1090 81 1068 b 207 1111 150 1068 185 1085 z m 385 299 b 286 536 357 336 286 419 b 364 771 286 639 340 724 b 228 1025 439 925 351 1025 b 94 769 101 1025 18 925 b 168 536 117 724 168 639 b 74 303 168 419 99 336 b 229 0 -64 125 29 0 b 385 299 426 0 518 125 z "},"Î":{"ha":457,"x_min":0,"x_max":0,"o":"m 379 1063 l 440 1085 b 475 1186 500 1106 514 1139 l 331 1357 b 219 1396 304 1388 261 1396 b 110 1357 179 1396 135 1388 l -33 1186 b 0 1085 -74 1139 -58 1106 l 61 1063 b 92 1057 72 1060 82 1057 b 181 1139 135 1057 167 1092 l 221 1286 l 261 1139 b 349 1057 271 1090 304 1057 b 379 1063 358 1057 368 1058 z m 385 299 b 286 536 357 336 286 419 b 364 771 286 639 340 724 b 228 1025 439 925 351 1025 b 94 769 101 1025 18 925 b 168 536 115 724 168 639 b 74 303 168 419 99 336 b 229 0 -64 125 29 0 b 385 299 426 0 518 125 z "},"Ï":{"ha":458,"x_min":0,"x_max":0,"o":"m 489 1194 b 363 1321 489 1265 433 1321 b 236 1194 293 1321 236 1265 b 363 1068 236 1126 293 1068 b 489 1194 433 1068 489 1126 z m 206 1194 b 81 1321 206 1265 150 1321 b -46 1194 11 1321 -46 1265 b 81 1068 -46 1126 11 1068 b 206 1194 150 1068 206 1126 z m 386 299 b 286 536 358 336 286 419 b 364 771 286 639 340 724 b 228 1025 440 925 353 1025 b 94 769 101 1025 18 925 b 169 536 117 724 169 639 b 74 303 169 419 99 336 b 229 0 -64 125 31 0 b 386 299 426 0 519 125 z "},"Ð":{"ha":986,"x_min":0,"x_max":0,"o":"m 967 467 b 593 1025 967 788 815 1025 b 368 885 544 1025 436 1013 b 340 863 360 869 350 863 b 328 897 329 863 321 875 b 225 1025 350 983 299 1025 b 104 769 113 1025 29 925 b 163 642 118 739 144 696 l 104 642 b 32 567 61 642 32 611 b 104 494 32 522 61 494 l 176 494 b 85 303 164 400 107 331 b 211 0 -53 125 40 0 b 376 135 307 0 376 39 b 389 169 376 157 382 169 b 408 143 394 169 401 161 b 660 0 443 47 568 0 b 967 467 829 0 967 161 z m 353 494 l 499 494 b 572 567 542 494 572 522 b 499 642 572 613 542 642 l 346 642 b 504 806 363 756 431 806 b 660 586 590 806 660 735 b 504 351 660 443 596 351 b 353 494 431 351 374 406 z "},"Ñ":{"ha":982,"x_min":0,"x_max":0,"o":"m 701 1256 b 660 1285 700 1285 681 1285 b 619 1257 650 1285 639 1278 b 585 1244 611 1249 599 1244 b 426 1286 540 1244 500 1286 b 275 1099 322 1286 261 1199 b 303 1068 278 1081 286 1068 b 353 1099 332 1068 336 1074 b 394 1111 360 1108 374 1111 b 564 1068 472 1111 499 1068 b 701 1256 669 1068 704 1174 z m 899 318 b 814 539 861 368 814 446 b 892 771 814 639 868 724 b 756 1025 968 925 881 1025 b 622 769 629 1025 546 925 b 697 538 644 724 697 639 b 696 483 697 521 696 490 b 665 432 693 450 683 432 b 604 478 651 432 631 446 b 489 760 539 556 499 671 b 229 1025 469 936 349 1025 b 94 769 101 1025 18 925 b 168 536 117 724 168 639 b 74 303 168 419 99 336 b 229 0 -64 125 29 0 b 385 299 426 0 518 125 b 286 539 357 336 286 419 b 290 617 286 557 288 597 b 317 660 293 643 301 660 b 393 599 333 660 358 642 b 492 275 453 521 504 413 b 753 0 476 81 590 0 b 899 318 954 0 1047 125 z "},"Ò":{"ha":938,"x_min":0,"x_max":0,"o":"m 636 1122 l 597 1329 b 479 1406 586 1389 539 1419 l 389 1383 b 354 1282 328 1368 315 1329 l 499 1111 b 589 1068 519 1085 556 1068 b 636 1122 624 1068 642 1090 z m 919 469 b 460 1025 919 788 717 1025 b 17 475 204 1025 17 788 b 469 0 17 161 204 0 b 919 469 732 0 919 161 z m 310 610 b 464 879 310 769 389 879 b 626 600 543 879 626 764 b 471 351 626 443 550 351 b 310 610 392 351 310 446 z "},"Ó":{"ha":938,"x_min":0,"x_max":0,"o":"m 472 1111 l 615 1282 b 582 1383 654 1329 642 1368 l 490 1406 b 372 1329 431 1419 385 1389 l 335 1122 b 381 1068 328 1090 346 1068 b 472 1111 415 1068 450 1085 z m 919 469 b 460 1025 919 788 717 1025 b 17 475 204 1025 17 788 b 469 0 17 161 204 0 b 919 469 732 0 919 161 z m 310 610 b 464 879 310 769 389 879 b 626 600 543 879 626 764 b 471 351 626 443 550 351 b 310 610 392 351 310 446 z "},"Ô":{"ha":938,"x_min":0,"x_max":0,"o":"m 643 1063 l 704 1085 b 738 1186 763 1106 778 1139 l 594 1357 b 483 1396 568 1388 525 1396 b 374 1357 443 1396 399 1388 l 231 1186 b 264 1085 190 1139 206 1106 l 325 1063 b 356 1057 336 1060 346 1057 b 444 1139 399 1057 431 1092 l 485 1286 l 525 1139 b 613 1057 535 1090 568 1057 b 643 1063 622 1057 632 1058 z m 919 469 b 460 1025 919 788 717 1025 b 17 475 204 1025 17 788 b 469 0 17 161 204 0 b 919 469 732 0 919 161 z m 310 610 b 464 879 310 769 389 879 b 626 600 543 879 626 764 b 471 351 626 443 550 351 b 310 610 392 351 310 446 z "},"Õ":{"ha":938,"x_min":0,"x_max":0,"o":"m 699 1256 b 658 1285 697 1285 678 1285 b 617 1257 647 1285 636 1278 b 582 1244 608 1249 596 1244 b 424 1286 538 1244 497 1286 b 272 1099 319 1286 258 1199 b 300 1068 276 1081 283 1068 b 350 1099 331 1068 333 1074 b 392 1111 358 1108 371 1111 b 561 1068 469 1111 496 1068 b 699 1256 667 1068 701 1174 z m 919 469 b 460 1025 919 788 717 1025 b 17 475 204 1025 17 788 b 469 0 17 161 204 0 b 919 469 732 0 919 161 z m 310 610 b 464 879 310 769 389 879 b 626 600 543 879 626 764 b 471 351 626 443 550 351 b 310 610 392 351 310 446 z "},"Ö":{"ha":938,"x_min":0,"x_max":0,"o":"m 753 1194 b 626 1321 753 1265 697 1321 b 501 1194 558 1321 501 1265 b 626 1068 501 1126 558 1068 b 753 1194 697 1068 753 1126 z m 471 1194 b 344 1321 471 1265 415 1321 b 218 1194 276 1321 218 1265 b 344 1068 218 1126 276 1068 b 471 1194 415 1068 471 1126 z m 919 469 b 460 1025 919 788 717 1025 b 17 475 204 1025 17 788 b 469 0 17 161 204 0 b 919 469 732 0 919 161 z m 310 610 b 464 879 310 769 389 879 b 626 600 543 879 626 764 b 471 351 626 443 550 351 b 310 610 392 351 310 446 z "},"×":{"ha":524,"x_min":0,"x_max":0,"o":"m 471 244 b 472 349 503 276 503 318 l 365 456 l 472 563 b 471 667 503 593 501 636 b 419 690 456 682 438 690 b 368 667 401 690 383 682 l 261 560 l 154 667 b 104 689 139 682 122 689 b 51 665 86 689 67 681 b 51 563 21 635 21 593 l 158 456 l 51 349 b 51 246 21 318 21 276 b 104 222 68 229 86 222 b 154 244 122 222 139 229 l 261 351 l 368 244 b 419 222 383 229 401 222 b 471 244 438 222 456 229 z "},"Ø":{"ha":956,"x_min":0,"x_max":0,"o":"m 165 49 l 196 89 b 486 0 272 29 372 0 b 936 469 749 0 936 161 b 801 868 936 629 885 769 l 847 926 b 801 1021 875 964 843 1006 b 710 976 760 1035 736 1011 l 696 961 b 476 1025 632 1001 557 1025 b 33 475 221 1025 33 788 b 103 194 33 361 58 268 l 28 99 b 69 6 0 63 29 19 b 96 1 79 3 88 1 b 165 49 124 1 143 21 z m 326 610 b 482 879 326 769 406 879 b 583 814 517 879 554 856 l 339 501 b 326 610 331 533 326 568 z m 418 375 l 639 661 b 643 600 642 642 643 621 b 488 351 643 443 567 351 b 418 375 464 351 440 358 z "},"Ù":{"ha":807,"x_min":0,"x_max":0,"o":"m 553 1122 l 515 1329 b 397 1406 504 1389 457 1419 l 306 1383 b 272 1282 246 1368 233 1329 l 415 1111 b 507 1068 438 1085 472 1068 b 553 1122 542 1068 560 1090 z m 783 251 b 678 546 783 388 678 419 b 756 771 678 639 732 724 b 619 1025 832 925 743 1025 b 486 769 493 1025 410 925 b 561 535 508 724 561 639 b 403 351 561 415 492 351 b 243 533 315 351 243 413 b 321 771 243 639 297 724 b 185 1025 397 925 308 1025 b 51 769 58 1025 -25 925 b 126 546 74 724 126 639 b 24 253 126 419 24 385 b 407 0 24 85 183 0 b 783 251 632 0 783 88 z "},"Ú":{"ha":807,"x_min":0,"x_max":0,"o":"m 388 1111 l 532 1282 b 497 1383 571 1329 558 1368 l 407 1406 b 289 1329 347 1419 300 1389 l 250 1122 b 297 1068 244 1090 263 1068 b 388 1111 331 1068 367 1085 z m 783 251 b 678 546 783 388 678 419 b 756 771 678 639 732 724 b 619 1025 832 925 743 1025 b 486 769 493 1025 410 925 b 561 535 508 724 561 639 b 403 351 561 415 492 351 b 243 533 315 351 243 413 b 321 771 243 639 297 724 b 185 1025 397 925 308 1025 b 51 769 58 1025 -25 925 b 126 546 74 724 126 639 b 24 253 126 419 24 385 b 407 0 24 85 183 0 b 783 251 632 0 783 88 z "},"Û":{"ha":807,"x_min":0,"x_max":0,"o":"m 561 1063 l 622 1085 b 656 1186 681 1106 696 1139 l 513 1357 b 401 1396 486 1388 442 1396 b 292 1357 360 1396 317 1388 l 149 1186 b 182 1085 108 1139 124 1106 l 243 1063 b 272 1057 253 1060 264 1057 b 361 1139 317 1057 349 1092 l 403 1286 l 442 1139 b 529 1057 451 1090 485 1057 b 561 1063 539 1057 550 1058 z m 783 251 b 678 546 783 388 678 419 b 756 771 678 639 732 724 b 619 1025 832 925 743 1025 b 486 769 493 1025 410 925 b 561 535 508 724 561 639 b 403 351 561 415 492 351 b 243 533 315 351 243 413 b 321 771 243 639 297 724 b 185 1025 397 925 308 1025 b 51 769 58 1025 -25 925 b 126 546 74 724 126 639 b 24 253 126 419 24 385 b 407 0 24 85 183 0 b 783 251 632 0 783 88 z "},"Ü":{"ha":807,"x_min":0,"x_max":0,"o":"m 669 1194 b 543 1321 669 1265 614 1321 b 417 1194 474 1321 417 1265 b 543 1068 417 1126 474 1068 b 669 1194 614 1068 669 1126 z m 386 1194 b 261 1321 386 1265 331 1321 b 135 1194 192 1321 135 1265 b 261 1068 135 1126 192 1068 b 386 1194 331 1068 386 1126 z m 783 251 b 678 546 783 388 678 419 b 756 771 678 639 732 724 b 619 1025 832 925 743 1025 b 486 769 493 1025 410 925 b 561 535 508 724 561 639 b 403 351 561 415 492 351 b 243 533 315 351 243 413 b 321 771 243 639 297 724 b 185 1025 397 925 308 1025 b 51 769 58 1025 -25 925 b 126 546 74 724 126 639 b 24 253 126 419 24 385 b 407 0 24 85 183 0 b 783 251 632 0 783 88 z "},"Ý":{"ha":774,"x_min":0,"x_max":0,"o":"m 378 1111 l 521 1282 b 488 1383 560 1329 547 1368 l 396 1406 b 278 1329 336 1419 290 1389 l 240 1122 b 286 1068 233 1090 251 1068 b 378 1111 321 1068 356 1085 z m 543 299 b 446 493 518 331 461 399 b 457 533 444 507 449 522 b 672 710 515 613 635 683 b 688 999 818 807 796 936 b 592 1026 656 1017 624 1026 b 442 847 515 1026 450 971 b 394 649 438 804 425 726 b 378 649 390 638 382 638 b 331 847 347 726 335 804 b 181 1026 322 971 257 1026 b 85 999 150 1026 117 1017 b 101 710 -24 936 -46 807 b 313 533 139 683 256 614 b 322 492 321 522 324 506 b 231 303 307 399 253 333 b 386 0 93 125 188 0 b 543 299 583 0 676 125 z "},"Þ":{"ha":790,"x_min":0,"x_max":0,"o":"m 388 226 b 407 254 378 246 383 257 b 781 560 557 236 781 290 b 524 889 781 729 713 889 b 379 817 503 889 435 886 b 364 822 365 800 363 800 b 228 1025 371 926 321 1025 b 94 769 101 1025 18 925 b 168 536 117 724 168 639 b 74 303 168 419 99 336 b 229 0 -64 125 29 0 b 388 226 381 0 474 60 z m 299 554 b 396 654 299 614 335 654 b 492 554 464 654 492 603 b 388 457 492 483 435 457 b 299 554 335 457 299 492 z "},"ß":{"ha":960,"x_min":0,"x_max":0,"o":"m 942 289 b 692 590 942 375 910 538 b 692 619 633 606 633 603 b 900 815 794 647 900 713 b 596 1025 900 926 774 1025 b 94 828 454 1025 94 1063 b 169 528 94 719 169 639 b 75 303 169 419 100 336 b 201 0 -62 125 31 0 b 367 154 297 0 368 39 b 335 557 365 228 335 367 b 504 806 335 615 338 806 b 626 736 560 806 626 785 b 508 647 626 692 569 658 b 463 597 481 642 463 624 b 508 542 463 571 481 551 b 617 451 556 528 617 493 b 488 383 617 406 572 378 b 381 292 401 392 381 361 b 476 50 381 193 421 92 b 651 0 515 21 590 0 b 942 289 788 0 942 101 z "},"à":{"ha":717,"x_min":0,"x_max":0,"o":"m 515 831 l 478 1036 b 358 1113 465 1097 418 1128 l 268 1090 b 235 990 208 1076 194 1036 l 378 818 b 468 776 400 792 435 776 b 515 831 504 776 521 799 z m 651 221 b 657 475 594 358 636 431 b 567 732 733 633 676 732 b 472 636 511 732 485 689 b 460 614 469 621 465 614 b 442 629 456 614 450 619 b 254 732 400 690 342 732 b 25 371 86 732 25 571 b 217 0 25 143 106 0 b 439 161 308 0 400 97 b 453 158 454 185 456 186 b 564 0 435 17 513 0 b 651 221 707 0 689 126 z m 274 440 b 368 571 274 544 326 571 b 468 435 422 571 468 525 b 369 308 468 322 396 308 b 274 440 344 308 274 321 z "},"á":{"ha":717,"x_min":0,"x_max":0,"o":"m 351 818 l 494 990 b 461 1090 535 1036 521 1076 l 371 1113 b 251 1036 311 1128 264 1097 l 214 831 b 261 776 208 799 225 776 b 351 818 294 776 329 792 z m 651 221 b 657 475 594 358 636 431 b 567 732 733 633 676 732 b 472 636 511 732 485 689 b 460 614 469 621 465 614 b 442 629 456 614 450 619 b 254 732 400 690 342 732 b 25 371 86 732 25 571 b 217 0 25 143 106 0 b 439 161 308 0 400 97 b 453 158 454 185 456 186 b 564 0 435 17 513 0 b 651 221 707 0 689 126 z m 274 440 b 368 571 274 544 326 571 b 468 435 422 571 468 525 b 369 308 468 322 396 308 b 274 440 344 308 274 321 z "},"â":{"ha":717,"x_min":0,"x_max":0,"o":"m 522 771 l 585 792 b 618 893 643 813 657 846 l 475 1064 b 363 1104 449 1094 404 1104 b 253 1064 322 1104 278 1094 l 110 893 b 143 792 71 846 85 813 l 206 771 b 236 765 217 767 226 765 b 324 846 279 765 310 800 l 364 994 l 404 846 b 489 765 413 797 446 765 b 522 771 500 765 511 767 z m 651 221 b 657 475 594 358 636 431 b 567 732 733 633 676 732 b 472 636 511 732 485 689 b 460 614 469 621 465 614 b 442 629 456 614 450 619 b 254 732 400 690 342 732 b 25 371 86 732 25 571 b 217 0 25 143 106 0 b 439 161 308 0 400 97 b 453 158 454 185 456 186 b 564 0 435 17 513 0 b 651 221 707 0 689 126 z m 274 440 b 368 571 274 544 326 571 b 468 435 422 571 468 525 b 369 308 468 322 396 308 b 274 440 344 308 274 321 z "},"ã":{"ha":717,"x_min":0,"x_max":0,"o":"m 578 964 b 538 993 576 993 558 993 b 496 965 526 993 515 985 b 461 951 488 956 476 951 b 303 994 417 951 376 994 b 153 806 199 994 138 907 b 181 776 156 788 163 776 b 231 806 210 776 213 781 b 271 818 238 815 250 818 b 440 776 349 818 375 776 b 578 964 546 776 581 882 z m 651 221 b 657 475 594 358 636 431 b 567 732 733 633 676 732 b 472 636 511 732 485 689 b 460 614 469 621 465 614 b 442 629 456 614 450 619 b 254 732 400 690 342 732 b 25 371 86 732 25 571 b 217 0 25 143 106 0 b 439 161 308 0 400 97 b 453 158 454 185 456 186 b 564 0 435 17 513 0 b 651 221 707 0 689 126 z m 274 440 b 368 571 274 544 326 571 b 468 435 422 571 468 525 b 369 308 468 322 396 308 b 274 440 344 308 274 321 z "},"ä":{"ha":717,"x_min":0,"x_max":0,"o":"m 632 901 b 507 1028 632 972 576 1028 b 381 901 438 1028 381 972 b 507 776 381 833 438 776 b 632 901 576 776 632 833 z m 350 901 b 224 1028 350 972 294 1028 b 99 901 156 1028 99 972 b 224 776 99 833 156 776 b 350 901 294 776 350 833 z m 651 221 b 657 475 594 358 636 431 b 567 732 733 633 676 732 b 472 636 511 732 485 689 b 460 614 469 621 465 614 b 442 629 456 614 450 619 b 254 732 400 690 342 732 b 25 371 86 732 25 571 b 217 0 25 143 106 0 b 439 161 308 0 400 97 b 453 158 454 185 456 186 b 564 0 435 17 513 0 b 651 221 707 0 689 126 z m 274 440 b 368 571 274 544 326 571 b 468 435 422 571 468 525 b 369 308 468 322 396 308 b 274 440 344 308 274 321 z "},"å":{"ha":717,"x_min":0,"x_max":0,"o":"m 547 958 b 364 1142 547 1068 475 1142 b 182 958 254 1142 182 1068 b 364 776 182 849 254 776 b 547 958 475 776 547 849 z m 299 958 b 364 1025 299 999 325 1025 b 431 958 404 1025 431 999 b 364 893 431 919 404 893 b 299 958 325 893 299 919 z m 651 221 b 657 475 594 358 636 431 b 567 732 733 633 676 732 b 472 636 511 732 485 689 b 460 614 469 621 465 614 b 442 629 456 614 450 619 b 254 732 400 690 342 732 b 25 371 86 732 25 571 b 217 0 25 143 106 0 b 439 161 308 0 400 97 b 453 158 454 185 456 186 b 564 0 435 17 513 0 b 651 221 707 0 689 126 z m 274 440 b 368 571 274 544 326 571 b 468 435 422 571 468 525 b 369 308 468 322 396 308 b 274 440 344 308 274 321 z "},"æ":{"ha":1128,"x_min":0,"x_max":0,"o":"m 1113 244 b 967 413 1121 364 1031 413 b 799 308 872 413 869 308 b 735 349 783 308 754 314 b 756 382 726 365 735 381 b 1039 608 928 400 1039 483 b 831 732 1039 681 951 732 b 664 665 776 732 711 715 b 644 672 651 650 647 651 b 568 732 636 718 600 732 b 472 636 511 732 485 689 b 460 614 469 621 465 614 b 442 629 456 614 450 619 b 254 732 400 690 342 732 b 25 371 86 732 25 571 b 217 0 25 143 106 0 b 439 161 308 0 400 97 b 453 158 454 185 456 186 b 544 0 435 17 513 0 b 658 97 594 0 650 39 b 672 100 661 118 663 118 b 840 0 699 47 749 0 b 1113 244 989 0 1101 122 z m 722 526 b 806 615 722 575 757 615 b 843 567 821 615 843 611 b 767 478 843 514 813 478 b 722 526 738 478 722 493 z m 274 440 b 368 571 274 544 326 571 b 468 435 422 571 468 525 b 369 308 468 322 396 308 b 274 440 344 308 274 321 z "},"ç":{"ha":682,"x_min":0,"x_max":0,"o":"m 460 -167 b 406 -79 460 -128 446 -99 b 388 -31 383 -67 376 -50 l 404 6 b 667 244 565 26 657 135 b 519 413 675 364 585 413 b 353 308 426 413 424 308 b 268 440 326 308 268 322 b 363 615 268 546 315 615 b 408 567 379 615 408 607 b 493 493 408 522 446 493 b 593 601 564 493 593 557 b 383 732 593 681 506 732 b 19 336 163 732 19 563 b 285 6 19 139 126 26 l 240 -65 b 258 -104 229 -83 235 -94 b 300 -164 289 -115 300 -143 b 225 -236 300 -203 261 -228 b 190 -275 204 -243 190 -256 b 225 -312 190 -296 206 -311 b 460 -167 338 -319 460 -276 z "},"è":{"ha":682,"x_min":0,"x_max":0,"o":"m 486 831 l 449 1036 b 329 1113 436 1097 390 1128 l 239 1090 b 206 990 179 1076 165 1036 l 349 818 b 439 776 371 792 406 776 b 486 831 475 776 492 799 z m 667 244 b 519 413 675 364 585 413 b 353 308 426 413 424 308 b 288 349 338 308 307 314 b 310 382 279 365 288 379 b 593 608 482 399 593 483 b 383 732 593 681 506 732 b 19 336 163 732 19 563 b 346 0 19 115 154 0 b 667 244 543 0 656 122 z m 275 526 b 358 615 275 575 311 615 b 397 567 375 615 397 611 b 321 478 397 514 367 478 b 275 526 290 478 275 493 z "},"é":{"ha":682,"x_min":0,"x_max":0,"o":"m 322 818 l 465 990 b 432 1090 506 1036 492 1076 l 342 1113 b 222 1036 282 1128 235 1097 l 185 831 b 232 776 179 799 197 776 b 322 818 265 776 300 792 z m 667 244 b 519 413 675 364 585 413 b 353 308 426 413 424 308 b 288 349 338 308 307 314 b 310 382 279 365 288 379 b 593 608 482 399 593 483 b 383 732 593 681 506 732 b 19 336 163 732 19 563 b 346 0 19 115 154 0 b 667 244 543 0 656 122 z m 275 526 b 358 615 275 575 311 615 b 397 567 375 615 397 611 b 321 478 397 514 367 478 b 275 526 290 478 275 493 z "},"ê":{"ha":682,"x_min":0,"x_max":0,"o":"m 493 771 l 556 792 b 589 893 614 813 628 846 l 446 1064 b 335 1104 419 1094 375 1104 b 225 1064 293 1104 249 1094 l 81 893 b 115 792 42 846 56 813 l 176 771 b 207 765 188 767 197 765 b 294 846 250 765 282 800 l 336 994 l 375 846 b 461 765 385 797 418 765 b 493 771 471 765 482 767 z m 667 244 b 519 413 675 364 585 413 b 353 308 426 413 424 308 b 288 349 338 308 307 314 b 310 382 279 365 288 379 b 593 608 482 399 593 483 b 383 732 593 681 506 732 b 19 336 163 732 19 563 b 346 0 19 115 154 0 b 667 244 543 0 656 122 z m 275 526 b 358 615 275 575 311 615 b 397 567 375 615 397 611 b 321 478 397 514 367 478 b 275 526 290 478 275 493 z "},"ë":{"ha":682,"x_min":0,"x_max":0,"o":"m 601 901 b 476 1028 601 972 546 1028 b 350 901 407 1028 350 972 b 476 776 350 833 407 776 b 601 901 546 776 601 833 z m 319 901 b 193 1028 319 972 264 1028 b 68 901 125 1028 68 972 b 193 776 68 833 125 776 b 319 901 264 776 319 833 z m 667 244 b 519 413 675 364 585 413 b 353 308 426 413 424 308 b 288 349 338 308 307 314 b 310 382 279 365 288 379 b 593 608 482 399 593 483 b 383 732 593 681 506 732 b 19 336 163 732 19 563 b 346 0 19 115 154 0 b 667 244 543 0 656 122 z m 275 526 b 358 615 275 575 311 615 b 397 567 375 615 397 611 b 321 478 397 514 367 478 b 275 526 290 478 275 493 z "},"ì":{"ha":406,"x_min":0,"x_max":0,"o":"m 354 831 l 315 1036 b 197 1113 304 1097 257 1128 l 107 1090 b 72 990 46 1076 33 1036 l 217 818 b 307 776 238 792 274 776 b 354 831 342 776 360 799 z m 363 210 b 265 378 324 269 265 299 b 340 560 265 456 319 517 b 207 732 390 661 288 732 b 76 560 125 732 28 661 b 149 388 96 517 149 456 b 28 194 149 299 64 269 b 208 0 -25 90 68 0 b 363 210 347 0 440 90 z "},"í":{"ha":406,"x_min":0,"x_max":0,"o":"m 189 818 l 332 990 b 299 1090 371 1036 358 1076 l 207 1113 b 89 1036 147 1128 100 1097 l 51 831 b 97 776 44 799 63 776 b 189 818 132 776 167 792 z m 363 210 b 265 378 324 269 265 299 b 340 560 265 456 319 517 b 207 732 390 661 288 732 b 76 560 125 732 28 661 b 149 388 96 517 149 456 b 28 194 149 299 64 269 b 208 0 -25 90 68 0 b 363 210 347 0 440 90 z "},"î":{"ha":406,"x_min":0,"x_max":0,"o":"m 361 771 l 422 792 b 457 893 482 813 496 846 l 313 1064 b 201 1104 286 1094 243 1104 b 92 1064 161 1104 117 1094 l -51 893 b -18 792 -92 846 -76 813 l 43 771 b 75 765 54 767 65 765 b 163 846 118 765 149 800 l 203 994 l 243 846 b 328 765 251 797 285 765 b 361 771 339 765 350 767 z m 363 210 b 267 378 324 269 267 299 b 340 560 267 456 321 517 b 207 732 390 661 288 732 b 76 560 125 732 28 661 b 149 388 96 517 149 456 b 28 194 149 299 64 269 b 210 0 -25 90 68 0 b 363 210 349 0 440 90 z "},"ï":{"ha":406,"x_min":0,"x_max":0,"o":"m 469 901 b 343 1028 469 972 414 1028 b 217 901 274 1028 217 972 b 343 776 217 833 274 776 b 469 901 414 776 469 833 z m 186 901 b 61 1028 186 972 131 1028 b -65 901 -8 1028 -65 972 b 61 776 -65 833 -8 776 b 186 901 131 776 186 833 z m 363 210 b 265 378 322 269 265 299 b 340 560 265 456 319 517 b 207 732 390 661 288 732 b 75 560 125 732 26 661 b 149 388 96 517 149 456 b 26 194 149 299 64 269 b 208 0 -26 90 68 0 b 363 210 347 0 440 90 z "},"ð":{"ha":768,"x_min":0,"x_max":0,"o":"m 744 503 b 674 838 744 617 725 739 l 701 853 b 725 925 731 868 739 896 b 678 957 714 946 696 957 b 649 949 668 957 658 954 l 610 926 b 363 1025 551 986 472 1025 b 74 814 221 1025 74 963 b 153 732 74 740 110 732 b 267 778 221 732 251 754 b 410 851 289 810 346 851 b 456 843 428 851 443 847 l 369 794 b 347 719 340 779 331 749 b 393 690 358 700 375 690 b 422 699 403 690 413 693 l 536 761 b 556 711 544 743 551 724 b 560 621 579 644 578 621 b 528 633 553 621 542 625 b 328 678 474 664 401 678 b 19 351 71 678 19 488 b 371 0 19 83 219 0 b 744 503 594 0 744 182 z m 350 444 b 446 546 350 501 381 546 b 557 435 511 546 557 500 b 456 338 557 375 515 338 b 350 444 392 338 350 379 z "},"ñ":{"ha":815,"x_min":0,"x_max":0,"o":"m 601 964 b 560 993 600 993 581 993 b 519 965 550 993 538 985 b 483 951 510 956 499 951 b 326 994 440 951 399 994 b 175 806 222 994 161 907 b 203 776 178 788 185 776 b 253 806 232 776 235 781 b 293 818 260 815 274 818 b 464 776 371 818 397 776 b 601 964 568 776 604 882 z m 774 210 b 676 375 735 269 676 299 b 743 594 676 456 743 515 b 547 732 743 679 667 732 b 315 613 503 732 400 725 b 293 590 304 597 297 590 b 285 633 286 590 288 610 b 178 732 278 697 246 732 b 61 567 83 732 15 661 b 151 382 85 517 151 456 b 31 194 151 299 67 269 b 211 0 -22 90 71 0 b 365 210 350 0 443 90 b 268 388 328 267 268 296 b 425 532 268 508 374 532 b 560 394 507 532 560 471 b 439 194 560 299 475 269 b 619 0 386 90 479 0 b 774 210 758 0 851 90 z "},"ò":{"ha":731,"x_min":0,"x_max":0,"o":"m 499 831 l 460 1036 b 342 1113 449 1097 401 1128 l 251 1090 b 217 990 190 1076 178 1036 l 361 818 b 451 776 382 792 418 776 b 499 831 486 776 504 799 z m 711 335 b 358 732 711 563 556 732 b 19 339 163 732 19 563 b 367 0 19 115 163 0 b 711 335 568 0 711 115 z m 268 447 b 363 615 268 546 315 615 b 463 440 410 615 463 544 b 368 308 463 321 393 308 b 268 447 342 308 268 322 z "},"ó":{"ha":731,"x_min":0,"x_max":0,"o":"m 335 818 l 478 990 b 444 1090 517 1036 504 1076 l 353 1113 b 235 1036 293 1128 246 1097 l 197 831 b 243 776 190 799 208 776 b 335 818 276 776 313 792 z m 711 335 b 358 732 711 563 556 732 b 19 339 163 732 19 563 b 367 0 19 115 163 0 b 711 335 568 0 711 115 z m 268 447 b 363 615 268 546 315 615 b 463 440 410 615 463 544 b 368 308 463 321 393 308 b 268 447 342 308 268 322 z "},"ô":{"ha":732,"x_min":0,"x_max":0,"o":"m 506 771 l 567 792 b 600 893 625 813 640 846 l 457 1064 b 346 1104 431 1094 386 1104 b 236 1064 304 1104 261 1094 l 93 893 b 126 792 53 846 68 813 l 188 771 b 218 765 199 767 208 765 b 307 846 261 765 293 800 l 347 994 l 386 846 b 472 765 396 797 429 765 b 506 771 483 765 494 767 z m 711 335 b 358 732 711 563 556 732 b 19 339 163 732 19 563 b 367 0 19 115 163 0 b 711 335 568 0 711 115 z m 268 447 b 363 615 268 546 315 615 b 463 440 410 615 463 544 b 368 308 463 321 393 308 b 268 447 342 308 268 322 z "},"õ":{"ha":731,"x_min":0,"x_max":0,"o":"m 561 964 b 519 993 560 993 540 993 b 479 965 510 993 499 985 b 444 951 471 956 458 951 b 286 994 400 951 358 994 b 135 806 182 994 121 907 b 163 776 138 788 146 776 b 213 806 192 776 194 781 b 254 818 219 815 233 818 b 424 776 331 818 357 776 b 561 964 529 776 564 882 z m 711 335 b 358 732 711 563 556 732 b 19 339 163 732 19 563 b 367 0 19 115 163 0 b 711 335 568 0 711 115 z m 268 447 b 363 615 268 546 315 615 b 463 440 410 615 463 544 b 368 308 463 321 393 308 b 268 447 342 308 268 322 z "},"ö":{"ha":731,"x_min":0,"x_max":0,"o":"m 615 901 b 489 1028 615 972 560 1028 b 364 901 421 1028 364 972 b 489 776 364 833 421 776 b 615 901 560 776 615 833 z m 333 901 b 207 1028 333 972 276 1028 b 81 901 138 1028 81 972 b 207 776 81 833 138 776 b 333 901 276 776 333 833 z m 711 335 b 358 732 711 563 556 732 b 19 339 163 732 19 563 b 367 0 19 115 163 0 b 711 335 568 0 711 115 z m 268 447 b 363 615 268 546 315 615 b 463 440 410 615 463 544 b 368 308 463 321 393 308 b 268 447 342 308 268 322 z "},"÷":{"ha":756,"x_min":0,"x_max":0,"o":"m 517 713 b 378 853 517 789 456 853 b 239 713 301 853 239 789 b 378 574 239 638 301 574 b 517 713 456 574 517 638 z m 675 454 b 601 529 675 500 646 529 l 154 529 b 81 454 110 529 81 499 b 154 382 81 410 110 382 l 601 382 b 675 454 646 382 675 410 z m 517 189 b 378 328 517 267 456 328 b 239 189 301 328 239 267 b 378 50 239 113 301 50 b 517 189 456 50 517 113 z "},"ø":{"ha":742,"x_min":0,"x_max":0,"o":"m 144 49 l 156 61 b 375 0 214 19 288 0 b 719 335 576 0 719 115 b 625 611 719 444 685 540 l 647 638 b 624 731 672 669 658 718 b 536 688 590 743 563 718 l 535 685 b 367 732 486 715 429 732 b 28 339 171 732 28 563 b 75 147 28 261 43 199 l 33 99 b 67 6 6 67 35 18 b 86 1 74 3 81 1 b 144 49 110 1 124 24 z m 276 447 b 369 615 276 546 324 615 b 438 569 393 615 418 599 l 282 390 b 276 447 278 406 276 425 z m 471 431 b 365 308 468 358 442 308 z "},"ù":{"ha":743,"x_min":0,"x_max":0,"o":"m 508 831 l 471 1036 b 351 1113 458 1097 411 1128 l 261 1090 b 228 990 201 1076 188 1036 l 371 818 b 461 776 393 792 428 776 b 508 831 497 776 514 799 z m 715 165 b 624 389 692 215 624 276 b 647 488 624 433 636 463 b 551 732 725 643 661 732 b 429 517 439 732 347 643 b 507 382 463 465 507 436 b 363 274 507 297 401 274 b 244 403 297 274 244 336 b 268 488 244 433 257 463 b 172 732 346 643 282 732 b 51 514 61 732 -32 643 b 128 371 85 463 128 433 b 33 135 128 276 33 243 b 200 0 33 53 88 0 b 464 126 308 0 406 49 b 482 143 474 139 479 143 b 490 100 489 143 488 124 b 597 0 499 36 531 0 b 715 165 693 0 760 72 z "},"ú":{"ha":743,"x_min":0,"x_max":0,"o":"m 344 818 l 488 990 b 454 1090 528 1036 514 1076 l 364 1113 b 244 1036 303 1128 257 1097 l 207 831 b 254 776 201 799 218 776 b 344 818 288 776 322 792 z m 715 165 b 624 389 692 215 624 276 b 647 488 624 433 636 463 b 551 732 725 643 661 732 b 429 517 439 732 347 643 b 507 382 463 465 507 436 b 363 274 507 297 401 274 b 244 403 297 274 244 336 b 268 488 244 433 257 463 b 172 732 346 643 282 732 b 51 514 61 732 -32 643 b 128 371 85 463 128 433 b 33 135 128 276 33 243 b 200 0 33 53 88 0 b 464 126 308 0 406 49 b 482 143 474 139 479 143 b 490 100 489 143 488 124 b 597 0 499 36 531 0 b 715 165 693 0 760 72 z "},"û":{"ha":743,"x_min":0,"x_max":0,"o":"m 515 771 l 578 792 b 611 893 636 813 650 846 l 467 1064 b 356 1104 442 1094 397 1104 b 246 1064 315 1104 271 1094 l 103 893 b 136 792 64 846 78 813 l 199 771 b 229 765 210 767 219 765 b 317 846 272 765 303 800 l 357 994 l 397 846 b 482 765 406 797 439 765 b 515 771 493 765 504 767 z m 715 165 b 624 389 692 215 624 276 b 647 488 624 433 636 463 b 551 732 725 643 661 732 b 429 517 439 732 347 643 b 507 382 463 465 507 436 b 363 274 507 297 401 274 b 244 403 297 274 244 336 b 268 488 244 433 257 463 b 172 732 346 643 282 732 b 51 514 61 732 -32 643 b 128 371 85 463 128 433 b 33 135 128 276 33 243 b 200 0 33 53 88 0 b 464 126 308 0 406 49 b 482 143 474 139 479 143 b 490 100 489 143 488 124 b 597 0 499 36 531 0 b 715 165 693 0 760 72 z "},"ü":{"ha":743,"x_min":0,"x_max":0,"o":"m 625 901 b 500 1028 625 972 569 1028 b 374 901 431 1028 374 972 b 500 776 374 833 431 776 b 625 901 569 776 625 833 z m 343 901 b 217 1028 343 972 288 1028 b 92 901 149 1028 92 972 b 217 776 92 833 149 776 b 343 901 288 776 343 833 z m 714 165 b 624 389 692 215 624 276 b 647 488 624 433 636 463 b 551 732 725 643 661 732 b 429 517 439 732 347 643 b 507 382 463 465 507 436 b 363 274 507 297 401 274 b 244 403 297 274 244 336 b 268 488 244 433 257 463 b 172 732 346 643 282 732 b 51 514 61 732 -32 643 b 128 371 85 463 128 433 b 33 135 128 276 33 243 b 200 0 33 53 88 0 b 464 126 308 0 406 49 b 482 143 474 139 479 143 b 490 100 489 143 488 124 b 597 0 499 36 531 0 b 714 165 693 0 760 72 z "},"ý":{"ha":711,"x_min":0,"x_max":0,"o":"m 342 818 l 485 990 b 451 1090 525 1036 511 1076 l 361 1113 b 242 1036 300 1128 254 1097 l 204 831 b 251 776 199 799 215 776 b 342 818 285 776 319 792 z m 692 -26 b 624 361 692 75 624 186 b 647 488 624 433 636 463 b 550 732 725 643 661 732 b 429 517 439 732 347 643 b 507 382 463 465 507 436 b 363 274 507 297 401 274 b 244 403 297 274 244 336 b 268 488 244 433 257 463 b 172 732 346 643 282 732 b 51 514 61 732 -32 643 b 128 371 85 463 128 433 b 33 135 128 276 33 243 b 200 0 33 53 88 0 b 461 122 308 0 406 49 b 485 143 474 139 481 143 b 492 124 492 143 492 131 b 310 -58 488 29 425 -58 b 244 -49 283 -58 264 -54 l 206 -37 b 142 -28 186 -32 167 -28 b 28 -128 69 -28 28 -62 b 307 -322 28 -229 122 -322 b 692 -26 511 -322 692 -193 z "},"þ":{"ha":679,"x_min":0,"x_max":0,"o":"m 310 -17 b 235 115 286 17 250 54 b 253 121 229 142 236 143 b 449 0 297 60 369 0 b 654 371 574 0 654 143 b 424 732 654 571 592 732 b 236 629 338 732 279 690 b 215 614 229 619 221 614 b 207 631 210 614 206 619 b 257 789 215 692 235 746 b 126 1025 325 925 222 1025 b 17 750 31 1025 -68 925 b 94 238 94 594 94 410 b 24 19 94 126 39 43 b 154 -292 -108 -168 0 -292 b 310 -17 310 -292 415 -168 z m 210 435 b 311 571 210 525 257 571 b 406 440 353 571 406 544 b 310 308 406 321 335 308 b 210 435 283 308 210 322 z "},"ÿ":{"ha":711,"x_min":0,"x_max":0,"o":"m 622 901 b 497 1028 622 972 567 1028 b 371 901 428 1028 371 972 b 497 776 371 833 428 776 b 622 901 567 776 622 833 z m 340 901 b 214 1028 340 972 285 1028 b 89 901 146 1028 89 972 b 214 776 89 833 146 776 b 340 901 285 776 340 833 z m 692 -26 b 624 361 692 75 624 186 b 647 488 624 433 636 463 b 551 732 725 643 661 732 b 429 517 439 732 347 643 b 507 382 463 465 507 436 b 363 274 507 297 401 274 b 244 403 297 274 244 336 b 268 488 244 433 257 463 b 172 732 346 643 282 732 b 51 514 61 732 -32 643 b 128 371 85 463 128 433 b 33 135 128 276 33 243 b 200 0 33 53 88 0 b 461 122 308 0 406 49 b 485 143 474 139 481 143 b 492 124 492 143 492 131 b 310 -58 488 29 425 -58 b 244 -49 283 -58 264 -54 l 206 -37 b 142 -28 186 -32 167 -28 b 28 -128 69 -28 28 -62 b 307 -322 28 -229 122 -322 b 692 -26 511 -322 692 -193 z "},"đ":{"ha":736,"x_min":0,"x_max":0,"o":"m 654 313 b 583 531 639 336 583 419 b 633 750 583 639 621 724 b 644 774 639 757 642 765 l 688 774 b 761 844 732 774 761 801 b 688 919 761 890 732 919 l 660 919 b 525 1025 643 989 585 1025 b 381 919 464 1025 401 985 l 294 919 b 221 844 250 919 221 889 b 294 774 221 801 250 774 l 403 774 b 443 638 419 736 428 697 b 278 732 401 697 344 732 b 22 333 136 732 22 563 b 240 0 22 115 126 0 b 447 161 329 0 414 72 b 460 158 457 188 461 186 b 588 0 450 36 519 0 b 654 313 714 0 786 125 z m 271 440 b 372 586 271 544 324 586 b 465 453 419 586 464 547 b 367 308 465 389 446 308 b 271 440 342 308 271 321 z "},"Ł":{"ha":814,"x_min":0,"x_max":0,"o":"m 806 260 b 672 503 806 431 735 503 b 594 446 640 503 610 482 b 482 388 575 400 535 388 b 300 532 365 388 308 453 l 489 600 b 532 693 529 615 547 651 b 467 743 521 725 496 743 b 439 738 458 743 449 742 l 340 703 b 376 771 354 729 367 753 b 240 1025 451 925 364 1025 b 107 769 114 1025 31 925 b 165 639 121 739 147 694 l 68 603 b 25 508 28 589 10 549 b 89 460 36 476 61 460 b 118 465 99 460 108 463 l 176 488 b 86 303 161 397 108 331 b 214 0 -51 125 42 0 b 379 135 308 0 379 39 b 390 169 379 157 383 169 b 410 143 396 169 403 161 b 618 0 440 57 531 0 b 806 260 700 0 806 51 z "},"ł":{"ha":497,"x_min":0,"x_max":0,"o":"m 375 322 b 311 497 368 335 322 400 l 435 542 b 479 635 475 557 493 593 b 414 685 467 667 443 685 b 385 679 404 685 394 683 l 326 657 b 358 746 338 700 353 733 b 250 1025 447 925 346 1025 b 140 750 154 1025 56 925 b 186 608 151 729 174 676 l 61 563 b 18 467 21 547 3 508 b 82 419 29 436 53 419 b 111 425 92 419 101 421 l 182 450 b 119 313 164 378 132 329 b 251 0 -11 125 97 0 b 375 322 406 0 513 125 z "},"Œ":{"ha":1342,"x_min":0,"x_max":0,"o":"m 1324 260 b 1190 503 1324 431 1253 503 b 1111 446 1157 503 1126 482 b 1000 388 1092 400 1053 388 b 836 490 917 388 836 419 b 914 554 836 539 872 554 b 1015 531 950 554 990 543 b 1089 513 1039 518 1064 513 b 1201 615 1147 513 1200 546 b 1103 710 1201 674 1163 710 b 999 679 1072 710 1038 700 b 904 649 972 664 935 649 b 858 699 878 649 858 661 b 979 790 858 765 924 790 b 1164 769 1029 790 1103 769 b 1282 888 1229 769 1282 793 b 1079 1025 1282 993 1218 1025 b 886 914 1028 1025 931 1021 b 851 913 863 857 836 860 b 750 1025 871 993 817 1025 b 633 981 703 1025 661 1010 b 604 965 624 971 614 965 b 579 975 596 965 588 969 b 401 1025 532 1010 463 1025 b 18 475 181 1025 18 788 b 407 0 18 161 181 0 b 563 67 461 0 519 21 b 583 78 571 75 576 78 b 607 63 590 78 599 74 b 731 0 635 25 688 0 b 896 135 826 0 896 39 b 907 169 896 157 901 169 b 926 143 913 169 919 161 b 1136 0 957 57 1049 0 b 1324 260 1218 0 1324 51 z m 311 610 b 465 879 311 769 390 879 b 628 600 544 879 628 764 b 472 351 628 443 551 351 b 311 610 393 351 311 446 z "},"œ":{"ha":1125,"x_min":0,"x_max":0,"o":"m 1110 244 b 964 413 1118 364 1028 413 b 797 308 869 413 867 308 b 731 349 781 308 750 314 b 753 382 722 365 731 379 b 1036 608 925 399 1036 483 b 828 732 1036 681 949 732 b 603 657 738 732 663 706 b 568 657 593 649 579 649 b 358 732 510 706 438 732 b 19 339 163 732 19 563 b 367 0 19 115 163 0 b 565 49 443 0 510 17 b 603 47 576 56 592 54 b 789 0 654 17 718 0 b 1110 244 986 0 1100 122 z m 719 526 b 803 615 719 575 754 615 b 840 567 818 615 840 611 b 764 478 840 514 810 478 b 719 526 733 478 719 493 z m 268 447 b 363 615 268 546 315 615 b 463 440 410 615 463 544 b 368 308 463 321 393 308 b 268 447 342 308 268 322 z "},"Š":{"ha":832,"x_min":0,"x_max":0,"o":"m 531 1111 l 674 1282 b 640 1383 714 1329 699 1363 l 579 1406 b 547 1411 568 1410 557 1411 b 460 1329 504 1411 469 1378 l 421 1182 l 379 1329 b 292 1411 367 1376 335 1411 b 261 1406 282 1411 272 1410 l 200 1383 b 167 1282 142 1363 126 1329 l 310 1111 b 419 1072 335 1081 378 1072 b 531 1111 460 1072 504 1081 z m 814 292 b 321 740 814 607 321 583 b 413 806 321 782 354 806 b 483 744 469 806 488 782 b 607 615 476 689 515 615 b 783 790 714 615 783 682 b 429 1025 783 963 608 1025 b 68 776 199 1025 68 918 b 469 407 68 529 469 560 b 407 351 469 367 440 351 b 356 404 376 351 354 365 b 207 538 360 474 294 538 b 104 508 175 538 140 529 b 19 290 42 474 -3 413 b 414 0 58 88 225 0 b 814 292 599 0 814 83 z "},"š":{"ha":628,"x_min":0,"x_max":0,"o":"m 425 818 l 568 990 b 535 1090 608 1036 593 1071 l 474 1113 b 442 1118 463 1117 451 1118 b 354 1036 397 1118 364 1085 l 315 889 l 274 1036 b 186 1118 261 1083 229 1118 b 156 1113 176 1118 167 1117 l 94 1090 b 61 990 36 1071 21 1036 l 204 818 b 314 779 229 788 272 779 b 425 818 354 779 399 788 z m 604 243 b 285 531 604 490 285 413 b 357 586 285 574 331 586 b 408 553 379 586 408 576 b 493 493 408 522 446 493 b 593 601 564 493 593 557 b 357 732 593 681 506 732 b 44 551 192 732 44 669 b 344 325 44 381 344 388 b 297 293 344 311 328 293 b 138 369 233 293 246 369 b 19 247 56 369 19 325 b 311 0 19 122 113 0 b 604 243 474 0 604 83 z "},"Ÿ":{"ha":774,"x_min":0,"x_max":0,"o":"m 658 1194 b 532 1321 658 1265 603 1321 b 407 1194 464 1321 407 1265 b 532 1068 407 1126 464 1068 b 658 1194 603 1068 658 1126 z m 376 1194 b 250 1321 376 1265 321 1321 b 124 1194 182 1321 124 1265 b 250 1068 124 1126 182 1068 b 376 1194 321 1068 376 1126 z m 543 299 b 446 493 518 331 461 399 b 457 533 444 507 449 522 b 672 710 515 613 635 683 b 688 999 818 807 796 936 b 592 1026 656 1017 624 1026 b 442 847 515 1026 450 971 b 394 649 438 804 425 726 b 378 649 390 638 382 638 b 331 847 347 726 335 804 b 181 1026 322 971 257 1026 b 85 999 150 1026 117 1017 b 101 710 -24 936 -46 807 b 313 533 139 683 256 614 b 322 492 321 522 324 506 b 231 303 307 399 253 333 b 386 0 93 125 188 0 b 543 299 583 0 676 125 z "},"Ž":{"ha":819,"x_min":0,"x_max":0,"o":"m 525 1111 l 668 1282 b 635 1383 708 1329 693 1363 l 574 1406 b 542 1411 563 1410 551 1411 b 454 1329 499 1411 464 1378 l 415 1182 l 375 1329 b 286 1411 361 1376 329 1411 b 256 1406 276 1411 267 1410 l 194 1383 b 161 1282 136 1363 121 1329 l 304 1111 b 414 1072 329 1081 372 1072 b 525 1111 454 1072 499 1081 z m 799 260 b 665 503 799 431 728 503 b 586 446 632 503 601 482 b 492 388 568 400 528 388 b 778 914 306 388 778 718 b 600 1025 778 1024 678 1025 b 499 913 532 1025 478 993 b 464 914 514 860 488 857 b 271 1025 418 1021 322 1025 b 38 860 132 1025 38 993 b 136 744 38 771 81 744 b 365 790 211 744 311 790 b 471 679 410 790 503 763 b 79 303 429 567 188 444 b 206 0 -58 125 35 0 b 371 135 301 0 371 39 b 383 169 371 157 376 169 b 403 143 389 169 396 161 b 611 0 433 57 524 0 b 799 260 693 0 799 51 z "},"ž":{"ha":614,"x_min":0,"x_max":0,"o":"m 425 818 l 568 990 b 535 1090 607 1036 593 1071 l 474 1113 b 440 1118 463 1117 451 1118 b 354 1036 397 1118 364 1085 l 315 889 l 274 1036 b 186 1118 261 1083 229 1118 b 156 1113 176 1118 167 1117 l 94 1090 b 60 990 36 1071 21 1036 l 204 818 b 314 779 229 788 272 779 b 425 818 354 779 399 788 z m 596 218 b 483 369 596 296 560 369 b 318 293 406 369 382 293 b 271 321 288 293 271 311 b 482 521 271 349 388 444 b 542 651 518 553 542 603 b 463 732 542 700 510 732 l 258 732 b 22 601 110 732 22 681 b 122 493 22 557 51 493 b 207 553 169 493 207 522 b 269 586 207 576 236 586 b 331 561 285 586 331 588 b 86 297 331 514 188 417 b 25 107 50 256 25 179 b 131 0 25 44 68 0 l 319 0 b 596 218 503 0 596 93 z "},"ƒ":{"ha":517,"x_min":0,"x_max":0,"o":"m 353 322 b 324 531 346 336 304 419 b 332 586 326 546 329 565 b 363 615 333 603 344 615 l 447 615 b 515 674 482 615 510 639 b 468 732 524 710 503 732 l 343 732 b 339 864 269 732 293 864 b 446 753 381 864 339 753 b 582 865 493 753 565 774 b 403 1025 606 1000 457 1025 b 165 840 300 1025 182 939 b 222 744 154 778 194 756 b 215 732 238 738 233 732 l 171 732 b 101 674 135 732 107 708 b 150 615 96 638 115 615 l 181 615 b 213 586 200 615 213 603 b 97 313 204 479 169 394 b 174 0 -67 125 18 0 b 353 322 326 0 456 125 z "},"ˆ":{"ha":597,"x_min":0,"x_max":0,"o":"m 457 771 l 518 792 b 553 893 578 813 592 846 l 408 1064 b 297 1104 382 1094 339 1104 b 188 1064 257 1104 213 1094 l 44 893 b 78 792 6 846 19 813 l 139 771 b 171 765 150 767 161 765 b 258 846 214 765 244 800 l 299 994 l 339 846 b 424 765 347 797 381 765 b 457 771 435 765 446 767 z "},"ˇ":{"ha":714,"x_min":0,"x_max":0,"o":"m 467 818 l 611 990 b 576 1090 650 1036 636 1071 l 515 1113 b 483 1118 504 1117 493 1118 b 397 1036 439 1118 406 1085 l 357 889 l 317 1036 b 228 1118 303 1083 272 1118 b 197 1113 218 1118 208 1117 l 136 1090 b 103 990 78 1071 64 1036 l 246 818 b 356 779 271 788 315 779 b 467 818 397 779 440 788 z "},"˘":{"ha":411,"x_min":0,"x_max":0,"o":"m 386 974 b 351 1010 388 994 374 1010 b 303 975 333 1010 321 1000 b 206 925 282 944 235 925 b 107 975 176 925 129 944 b 58 1010 90 1000 76 1010 b 24 974 36 1010 22 994 b 206 776 36 854 106 776 b 386 974 304 776 375 854 z "},"˙":{"ha":372,"x_min":0,"x_max":0,"o":"m 347 938 b 186 1099 347 1026 275 1099 b 25 938 97 1099 25 1026 b 186 776 25 849 97 776 b 347 938 275 776 347 849 z "},"˚":{"ha":417,"x_min":0,"x_max":0,"o":"m 390 958 b 208 1142 390 1068 318 1142 b 25 958 99 1142 25 1068 b 208 776 25 849 99 776 b 390 958 318 776 390 849 z m 142 958 b 208 1025 142 999 168 1025 b 274 958 247 1025 274 999 b 208 893 274 919 247 893 b 142 958 168 893 142 919 z "},"˛":{"ha":121,"x_min":0,"x_max":0,"o":"m 67 -314 b 100 -275 85 -312 100 -296 b 67 -237 100 -257 86 -243 b -10 -150 29 -229 -10 -204 b 108 14 -10 -94 29 -44 l 14 14 b -171 -178 -62 0 -171 -83 b 67 -314 -171 -276 -46 -321 z "},"˜":{"ha":476,"x_min":0,"x_max":0,"o":"m 451 964 b 411 993 450 993 431 993 b 369 965 400 993 389 985 b 335 951 361 956 349 951 b 176 994 290 951 250 994 b 26 806 72 994 11 907 b 54 776 29 788 36 776 b 103 806 83 776 86 781 b 144 818 111 815 124 818 b 314 776 222 818 249 776 b 451 964 419 776 454 882 z "},"˝":{"ha":713,"x_min":0,"x_max":0,"o":"m 465 818 l 608 990 b 575 1090 649 1036 635 1076 l 485 1113 b 365 1036 424 1128 378 1097 l 328 831 b 375 776 322 799 339 776 b 465 818 408 776 443 792 z m 164 818 l 307 990 b 274 1090 347 1036 333 1076 l 183 1113 b 64 1036 122 1128 76 1097 l 26 831 b 74 776 21 799 38 776 b 164 818 107 776 142 792 z "},"Ω":{"ha":1193,"x_min":0,"x_max":0,"o":"m 532 132 l 532 189 b 478 336 532 272 503 306 b 300 629 361 481 300 554 b 593 813 300 738 421 813 b 893 635 761 813 893 740 b 700 336 893 554 817 481 b 646 189 675 306 646 272 l 646 132 b 776 0 646 53 697 0 l 1007 0 b 1174 129 1196 0 1174 13 b 1083 325 1174 285 1135 325 b 906 279 1028 325 957 279 b 847 321 876 279 847 293 b 1146 651 847 411 1146 397 b 593 1025 1146 879 910 1025 b 47 653 271 1025 47 875 b 346 321 47 397 346 411 b 286 279 346 293 315 279 b 110 325 235 279 165 325 b 19 129 58 325 19 285 b 186 0 19 13 -3 0 l 401 0 b 532 132 479 0 532 53 z "},"π":{"ha":881,"x_min":0,"x_max":0,"o":"m 778 189 b 639 529 663 211 642 418 l 725 529 b 769 531 740 529 754 529 b 868 642 826 535 868 589 b 757 739 868 697 818 739 l 326 739 b 11 518 192 739 11 761 b 61 415 11 481 15 415 b 83 419 68 415 75 417 b 281 526 149 440 122 511 b 174 238 264 432 189 267 b 297 0 100 90 194 0 b 407 157 385 0 443 65 b 399 529 367 254 392 422 l 501 529 b 492 308 500 447 493 340 b 676 0 479 90 574 0 b 778 189 819 0 888 169 z "},"–":{"ha":639,"x_min":0,"x_max":0,"o":"m 617 315 b 543 390 617 361 588 390 l 96 390 b 22 315 51 390 22 358 b 96 243 22 271 51 243 l 543 243 b 617 315 588 243 617 271 z "},"—":{"ha":1247,"x_min":0,"x_max":0,"o":"m 1224 315 b 1150 390 1224 361 1194 390 l 96 390 b 22 315 51 390 22 358 b 96 243 22 271 51 243 l 1150 243 b 1224 315 1194 243 1224 271 z "},"‘":{"ha":375,"x_min":0,"x_max":0,"o":"m 349 672 b 269 811 349 725 322 774 b 240 918 221 846 207 882 b 292 961 253 935 276 951 b 322 1003 317 975 324 990 b 267 1017 319 1018 307 1025 b 26 704 122 986 26 843 b 188 511 26 583 99 511 b 349 672 275 511 349 583 z "},"’":{"ha":375,"x_min":0,"x_max":0,"o":"m 108 519 b 349 832 253 549 349 693 b 189 1025 349 953 276 1025 b 26 864 100 1025 26 953 b 106 725 26 811 53 763 b 135 618 154 690 168 654 b 83 575 122 601 99 585 b 53 533 58 561 51 546 b 108 519 56 518 68 511 z "},"‚":{"ha":374,"x_min":0,"x_max":0,"o":"m 107 -182 b 347 129 251 -153 347 -10 b 188 322 347 251 275 322 b 25 161 99 322 25 251 b 104 22 25 108 51 61 b 133 -85 153 -12 167 -49 b 82 -126 121 -100 97 -118 b 51 -169 57 -142 50 -156 b 78 -186 53 -179 60 -186 b 107 -182 85 -186 94 -185 z "},"‛":{"ha":375,"x_min":0,"x_max":0,"o":"m 322 533 b 292 575 324 546 317 561 b 240 618 276 585 253 601 b 269 725 207 654 221 690 b 349 864 322 763 349 811 b 188 1025 349 953 275 1025 b 26 832 99 1025 26 953 b 267 519 26 693 122 549 b 322 533 307 511 319 518 z "},"“":{"ha":751,"x_min":0,"x_max":0,"o":"m 349 672 b 269 811 349 725 322 774 b 240 918 221 846 207 882 b 292 961 253 935 276 951 b 322 1003 317 975 324 990 b 267 1017 319 1018 307 1025 b 26 704 122 986 26 843 b 188 511 26 583 99 511 b 349 672 275 511 349 583 z m 725 672 b 646 811 725 725 699 774 b 617 918 597 846 582 882 b 668 961 629 935 653 951 b 699 1003 692 975 700 990 b 643 1017 696 1018 683 1025 b 403 704 497 986 403 843 b 564 511 403 583 474 511 b 725 672 651 511 725 583 z "},"”":{"ha":751,"x_min":0,"x_max":0,"o":"m 485 519 b 725 832 629 549 725 693 b 565 1025 725 953 653 1025 b 403 864 476 1025 403 953 b 482 725 403 811 429 763 b 511 618 529 690 544 654 b 460 575 497 601 474 585 b 429 533 435 561 428 546 b 485 519 432 518 443 511 z m 108 519 b 349 832 253 549 349 693 b 189 1025 349 953 276 1025 b 26 864 100 1025 26 953 b 106 725 26 811 53 763 b 135 618 154 690 168 654 b 83 575 122 601 99 585 b 53 533 58 561 51 546 b 108 519 56 518 68 511 z "},"„":{"ha":750,"x_min":0,"x_max":0,"o":"m 483 -182 b 724 129 628 -153 724 -10 b 564 322 724 251 651 322 b 401 161 475 322 401 251 b 481 22 401 108 428 61 b 510 -85 528 -12 543 -49 b 458 -126 496 -100 472 -118 b 428 -169 433 -142 426 -156 b 453 -186 429 -179 436 -186 b 483 -182 461 -186 471 -185 z m 107 -182 b 347 129 251 -153 347 -10 b 188 322 347 251 275 322 b 25 161 99 322 25 251 b 104 22 25 108 51 61 b 133 -85 153 -12 167 -49 b 82 -126 121 -100 97 -118 b 51 -169 57 -142 50 -156 b 78 -186 53 -179 60 -186 b 107 -182 85 -186 94 -185 z "},"†":{"ha":1007,"x_min":0,"x_max":0,"o":"m 675 3 b 561 396 632 47 561 153 b 568 522 561 444 564 485 b 739 458 668 511 722 472 b 818 425 767 436 794 425 b 926 586 882 425 926 494 b 818 746 926 675 882 746 b 735 711 793 746 765 736 b 593 651 724 701 678 668 b 629 744 607 701 622 731 b 501 1025 714 899 626 1025 b 375 746 376 1025 293 899 b 411 653 382 732 397 703 b 272 711 328 669 283 701 b 189 746 242 736 214 746 b 81 586 125 746 81 675 b 189 425 81 494 125 425 b 268 458 213 425 240 436 b 436 522 286 472 338 510 b 443 397 440 486 443 444 b 329 3 443 153 374 47 b 504 -276 211 -118 304 -276 b 675 3 701 -276 793 -118 z "},"‡":{"ha":901,"x_min":0,"x_max":0,"o":"m 622 3 b 547 129 600 25 571 65 b 686 69 626 113 672 81 b 765 36 714 47 742 36 b 874 197 829 36 874 106 b 765 357 874 286 829 357 b 682 322 740 357 711 346 b 517 260 669 313 617 272 b 508 396 511 299 508 344 b 515 522 508 444 511 485 b 686 458 615 511 669 472 b 765 425 714 436 742 425 b 874 586 829 425 874 494 b 765 746 874 675 829 746 b 682 711 740 746 713 736 b 540 651 671 701 625 668 b 576 744 554 701 569 731 b 449 1025 661 899 574 1025 b 322 746 324 1025 240 899 b 358 653 329 732 344 703 b 219 711 275 669 231 701 b 136 746 189 736 161 746 b 28 586 72 746 28 675 b 136 425 28 494 72 425 b 215 458 160 425 188 436 b 383 522 233 472 285 510 b 390 397 388 486 390 444 b 382 260 390 346 388 299 b 219 322 283 272 233 313 b 136 357 190 346 161 357 b 28 197 72 357 28 286 b 136 36 28 106 72 36 b 215 69 160 36 188 47 b 351 128 229 81 274 111 b 276 3 328 64 299 25 b 451 -276 158 -118 251 -276 b 622 3 649 -276 740 -118 z "},"•":{"ha":610,"x_min":0,"x_max":0,"o":"m 582 469 b 313 756 588 622 467 751 b 26 486 160 760 31 639 b 296 200 22 332 143 204 b 582 469 450 194 578 315 z "},"…":{"ha":1315,"x_min":0,"x_max":0,"o":"m 1289 161 b 1128 322 1289 251 1218 322 b 968 161 1040 322 968 251 b 1128 0 968 74 1040 0 b 1289 161 1218 0 1289 74 z m 818 161 b 657 322 818 251 746 322 b 496 161 569 322 496 251 b 657 0 496 74 569 0 b 818 161 746 0 818 74 z m 347 161 b 186 322 347 251 275 322 b 25 161 99 322 25 251 b 186 0 25 74 99 0 b 347 161 275 0 347 74 z "},"‰":{"ha":1711,"x_min":0,"x_max":0,"o":"m 465 49 l 867 926 b 836 1021 886 969 876 1006 b 810 1025 826 1024 818 1025 b 758 976 786 1025 774 1008 l 357 99 b 385 6 338 56 344 19 b 413 0 396 1 404 0 b 465 49 438 0 450 18 z m 525 700 b 299 1025 525 886 425 1025 b 81 703 172 1025 81 886 b 303 425 81 519 172 425 b 525 700 432 425 525 519 z m 261 781 b 301 939 261 900 282 939 b 346 776 322 939 346 897 b 303 631 346 658 324 631 b 261 781 282 631 261 661 z m 1631 275 b 1403 600 1631 461 1529 600 b 1186 279 1278 600 1186 461 b 1408 0 1186 96 1278 0 b 1631 275 1536 0 1631 96 z m 1147 275 b 921 600 1147 461 1046 600 b 703 279 794 600 703 461 b 925 0 703 96 794 0 b 1147 275 1054 0 1147 96 z m 1365 356 b 1407 514 1365 476 1388 514 b 1450 351 1426 514 1450 474 b 1408 207 1450 235 1428 207 b 1365 356 1388 207 1365 236 z m 882 356 b 924 514 882 476 904 514 b 968 351 944 514 968 474 b 925 207 968 235 946 207 b 882 356 904 207 882 236 z "},"‹":{"ha":499,"x_min":0,"x_max":0,"o":"m 467 94 b 431 190 486 133 460 154 l 325 321 l 431 451 b 467 547 460 488 486 508 b 404 597 454 576 429 597 b 369 585 392 597 381 593 l 124 396 b 81 321 94 374 81 351 b 124 246 81 290 94 268 l 369 57 b 404 44 381 49 392 44 b 467 94 429 44 454 65 z "},"›":{"ha":499,"x_min":0,"x_max":0,"o":"m 129 57 l 375 246 b 418 321 404 268 418 290 b 375 396 418 351 404 374 l 129 585 b 94 597 118 593 107 597 b 32 547 69 597 44 576 b 68 451 13 508 39 488 l 174 321 l 68 190 b 32 94 39 154 13 133 b 94 44 44 65 69 44 b 129 57 107 44 118 49 z "},"⁄":{"ha":622,"x_min":0,"x_max":0,"o":"m 224 49 l 536 926 b 492 1021 551 969 532 1006 b 463 1025 482 1024 472 1025 b 399 976 433 1025 410 1008 l 86 99 b 128 6 71 56 88 19 b 158 0 139 1 149 0 b 224 49 189 0 213 18 z "},"⁰":{"ha":504,"x_min":0,"x_max":0,"o":"m 474 700 b 247 1025 474 886 374 1025 b 29 703 121 1025 29 886 b 251 425 29 519 121 425 b 474 700 381 425 474 519 z m 210 781 b 250 939 210 900 231 939 b 294 776 271 939 294 897 b 251 631 294 658 272 631 b 210 781 231 631 210 661 z "},"⁴":{"ha":533,"x_min":0,"x_max":0,"o":"m 467 597 b 454 615 464 601 460 608 b 461 628 449 624 451 628 l 469 628 b 504 681 490 628 504 643 b 469 732 504 719 490 732 l 429 732 b 408 757 408 732 408 757 b 460 886 408 821 440 847 b 383 1025 497 964 451 1025 l 322 1025 b 219 964 281 1025 239 1000 l 97 728 b 81 664 86 708 81 683 b 115 628 81 642 94 628 l 289 628 b 296 615 297 628 300 624 b 283 600 292 610 288 603 b 375 422 204 494 258 422 b 467 597 492 422 546 494 z m 226 756 l 281 853 b 318 892 296 879 308 892 b 340 831 331 892 339 869 b 336 761 340 794 342 794 b 301 732 335 744 319 732 l 239 732 b 226 756 221 732 218 739 z "},"₣":{"ha":936,"x_min":0,"x_max":0,"o":"m 488 299 b 472 317 483 303 479 311 l 554 317 b 628 389 599 317 628 344 b 554 463 628 433 599 463 l 397 463 b 508 543 396 522 451 543 b 597 525 540 543 574 536 b 660 511 617 515 638 511 b 774 615 717 511 772 544 b 675 710 774 674 735 710 b 571 679 644 710 610 700 b 472 647 542 664 503 647 b 431 688 449 647 431 658 b 546 790 431 765 496 790 b 733 772 597 790 671 772 b 854 879 800 772 854 793 b 651 1025 854 993 790 1025 b 458 914 600 1025 504 1021 b 424 913 435 857 408 860 b 322 1025 443 993 389 1025 b 196 769 204 1025 119 925 b 271 536 218 724 271 639 b 263 463 271 510 268 485 l 154 463 b 81 389 110 463 81 432 b 154 317 81 344 110 317 l 186 317 b 176 303 182 311 179 308 b 331 0 38 125 132 0 b 488 299 528 0 621 125 z "},"₤":{"ha":846,"x_min":0,"x_max":0,"o":"m 821 260 b 688 503 821 431 750 503 b 608 446 654 503 624 482 b 497 388 589 400 550 388 b 369 431 442 388 399 401 l 424 431 b 497 483 468 431 497 451 b 424 538 497 515 468 538 l 319 538 b 315 561 317 544 317 553 l 424 561 b 497 614 468 561 497 582 b 424 668 497 646 468 668 l 314 668 b 413 806 319 725 339 806 b 467 744 451 806 471 782 b 590 615 460 689 499 615 b 767 790 697 615 767 682 b 413 1025 767 963 590 1025 b 51 797 181 1025 51 918 b 101 668 51 747 72 706 b 33 614 60 667 33 644 b 107 561 33 582 63 561 l 183 561 b 196 538 188 554 193 544 l 107 538 b 33 483 63 538 33 515 b 107 431 33 451 63 431 l 196 431 b 101 303 172 371 117 324 b 228 0 -37 125 57 0 b 393 135 324 0 393 39 b 404 169 393 157 399 169 b 424 143 410 169 417 161 b 633 0 454 57 546 0 b 821 260 715 0 821 51 z "},"€":{"ha":1142,"x_min":0,"x_max":0,"o":"m 1056 303 b 963 511 1075 413 1032 474 b 864 539 929 529 896 539 b 728 438 807 539 757 507 b 622 351 692 361 644 351 b 517 457 576 351 539 392 l 588 457 b 646 506 631 457 646 475 b 588 556 646 536 631 556 l 496 556 b 494 585 494 565 494 574 l 588 585 b 646 633 631 585 646 601 b 588 682 646 664 631 682 l 496 682 b 607 879 508 800 553 879 b 663 781 636 879 669 856 b 789 615 657 693 697 615 b 964 797 901 615 964 686 b 675 1025 964 963 839 1025 b 201 682 433 1025 268 888 l 139 682 b 81 633 96 682 81 663 b 139 585 81 601 96 585 l 181 585 l 176 556 l 139 556 b 81 506 96 556 81 535 b 139 457 81 475 96 457 l 171 457 b 622 0 179 156 363 0 b 1056 303 849 0 1022 121 z "},"™":{"ha":1396,"x_min":0,"x_max":0,"o":"m 1329 539 b 1264 696 1311 561 1264 617 b 1314 853 1264 764 1300 821 b 1197 1025 1367 957 1310 1025 b 1038 926 1107 1025 1043 1006 b 1025 732 1033 865 1064 797 b 957 688 1007 703 982 688 b 896 732 933 688 911 701 b 882 926 856 797 889 865 b 725 1025 876 1006 814 1025 b 606 853 610 1025 554 957 b 656 696 621 821 656 764 b 593 539 656 617 608 561 b 697 335 499 419 563 335 b 801 536 829 335 892 419 b 735 696 783 561 735 617 b 738 749 735 711 738 739 b 760 811 740 794 750 811 b 817 725 779 811 806 754 b 856 503 853 629 843 558 b 960 394 869 446 910 394 b 1065 504 1010 394 1053 444 b 1106 725 1079 558 1069 629 b 1160 811 1117 754 1142 811 b 1182 749 1171 811 1179 794 b 1186 696 1183 739 1186 711 b 1118 536 1186 617 1138 561 b 1225 335 1029 419 1092 335 b 1329 539 1358 335 1421 419 z m 432 536 b 364 696 413 561 364 617 b 408 944 364 724 379 944 b 425 865 425 944 407 899 b 475 836 435 846 454 836 b 569 926 518 836 569 874 b 463 1025 569 1003 526 1025 l 188 1025 b 81 926 125 1025 81 1003 b 175 836 81 874 132 836 b 225 865 196 836 215 846 b 242 944 243 899 225 944 b 286 696 271 944 286 724 b 218 536 286 617 238 561 b 324 335 129 419 190 335 b 326 335 325 335 326 335 b 432 536 460 335 521 419 z "},"℮":{"ha":699,"x_min":0,"x_max":0,"o":"m 672 240 b 613 347 678 308 649 347 b 529 258 583 347 550 319 b 413 161 494 158 431 161 b 294 349 344 161 288 204 b 317 382 296 367 294 379 b 636 544 489 399 636 435 b 390 732 636 633 544 732 b 26 336 169 732 26 563 b 353 0 26 115 161 0 b 672 240 550 0 663 122 z m 282 526 b 365 615 282 575 318 615 b 404 567 382 615 404 611 b 328 478 404 514 374 478 b 282 526 297 478 282 493 z "},"←":{"ha":1349,"x_min":0,"x_max":0,"o":"m 467 138 b 431 235 486 178 460 199 l 382 294 l 1194 294 b 1268 367 1238 294 1268 322 b 1194 440 1268 411 1238 440 l 386 440 l 431 494 b 467 592 460 532 486 553 b 404 640 454 621 431 640 b 369 628 393 640 381 636 l 124 439 b 81 365 94 418 81 396 b 124 290 81 335 94 313 l 369 101 b 404 89 381 93 393 89 b 467 138 431 89 454 110 z "},"↑":{"ha":714,"x_min":0,"x_max":0,"o":"m 433 -154 l 433 651 l 488 608 b 560 565 515 586 535 565 b 583 571 567 565 575 567 b 621 669 625 590 650 631 l 432 915 b 357 957 410 944 388 957 b 282 915 326 957 304 944 l 93 669 b 131 571 64 631 89 590 b 154 565 139 567 147 565 b 226 608 179 565 199 586 l 286 656 l 286 -154 b 358 -228 286 -199 314 -228 b 433 -154 404 -228 433 -199 z "},"→":{"ha":1349,"x_min":0,"x_max":0,"o":"m 979 101 l 1225 290 b 1268 365 1254 313 1268 335 b 1225 439 1268 396 1254 418 l 979 628 b 944 640 968 636 956 640 b 881 592 918 640 894 621 b 918 494 863 553 889 532 l 961 440 l 154 440 b 81 367 110 440 81 411 b 154 294 81 322 110 294 l 965 294 l 918 235 b 881 138 889 199 863 178 b 944 89 894 110 918 89 b 979 101 956 89 968 93 z "},"↓":{"ha":715,"x_min":0,"x_max":0,"o":"m 433 -187 l 622 60 b 585 157 651 97 626 138 b 560 164 575 161 567 164 b 489 121 535 164 517 143 l 429 72 l 429 885 b 357 957 429 928 400 957 b 282 885 311 957 282 928 l 282 76 l 228 121 b 157 164 200 143 182 164 b 131 157 149 164 140 161 b 93 60 89 138 64 97 l 283 -187 b 358 -229 306 -217 328 -229 b 433 -187 389 -229 411 -217 z "},"↔":{"ha":1415,"x_min":0,"x_max":0,"o":"m 1046 101 l 1292 290 b 1335 365 1321 313 1335 335 b 1292 439 1335 396 1321 418 l 1046 628 b 1011 640 1035 636 1022 640 b 949 592 986 640 963 621 b 985 494 929 553 956 532 l 1029 440 l 386 440 l 431 494 b 467 592 460 532 486 553 b 404 640 454 621 431 640 b 369 628 393 640 381 636 l 124 439 b 81 365 94 418 81 396 b 124 290 81 335 94 313 l 369 101 b 404 89 381 93 393 89 b 467 138 431 89 454 110 b 431 235 486 178 460 199 l 382 294 l 1033 294 l 985 235 b 949 138 956 199 929 178 b 1011 89 963 110 986 89 b 1046 101 1024 89 1035 93 z "},"↕":{"ha":715,"x_min":0,"x_max":0,"o":"m 432 -221 l 622 25 b 585 124 651 64 626 104 b 558 131 575 128 567 131 b 488 88 533 131 515 110 l 433 43 l 433 685 l 488 642 b 558 599 515 619 533 599 b 585 606 567 599 575 601 b 622 703 626 624 651 665 l 432 949 b 357 993 408 978 388 993 b 282 949 326 993 306 978 l 93 703 b 131 606 64 665 89 624 b 156 599 140 601 149 599 b 226 642 181 599 199 619 l 286 690 l 286 39 l 226 88 b 156 131 199 110 181 131 b 131 124 149 131 140 128 b 93 25 89 104 64 64 l 282 -221 b 357 -262 304 -250 326 -262 b 432 -221 388 -262 410 -250 z "},"∂":{"ha":792,"x_min":0,"x_max":0,"o":"m 758 503 b 422 1025 781 746 719 1025 b 115 814 282 1025 128 963 b 189 732 110 740 146 732 b 306 776 257 732 288 754 b 456 851 331 810 392 851 b 676 663 557 851 656 749 b 664 618 685 633 679 618 b 628 633 656 618 643 624 b 418 678 576 664 506 678 b 21 351 101 678 33 488 b 342 0 -3 83 192 0 b 758 503 565 0 731 182 z m 332 444 b 486 546 336 501 371 546 b 639 435 604 546 644 500 b 475 308 633 375 586 308 b 332 444 360 308 326 379 z "},"Δ":{"ha":1029,"x_min":0,"x_max":0,"o":"m 943 99 l 631 967 b 513 1031 615 1008 564 1031 b 400 967 464 1031 417 1010 l 88 99 b 189 0 58 17 128 0 l 840 0 b 943 99 917 0 964 42 z m 472 739 l 683 147 l 260 147 z "},"∏":{"ha":1151,"x_min":0,"x_max":0,"o":"m 903 -219 l 903 879 l 997 879 b 1069 950 1040 879 1069 907 l 1069 953 b 997 1025 1069 997 1040 1025 l 154 1025 b 81 950 110 1025 81 996 b 154 879 81 907 110 879 l 247 879 l 247 -219 b 361 -292 247 -262 292 -292 b 481 -219 433 -292 481 -262 l 481 879 l 671 879 l 671 -219 b 785 -292 671 -262 714 -292 b 903 -219 856 -292 903 -262 z "},"∑":{"ha":1174,"x_min":0,"x_max":0,"o":"m 358 -335 b 1026 -307 446 -335 981 -328 b 1092 -204 1067 -287 1092 -250 b 981 -8 1092 -132 1079 -8 b 474 -28 813 -8 643 -26 b 801 425 561 68 801 297 b 785 483 801 447 794 465 b 682 592 760 525 715 558 b 482 801 614 661 547 731 b 965 801 644 804 804 801 b 1074 913 1028 801 1074 853 b 924 1024 1074 999 996 1024 b 808 1024 886 1024 846 1024 l 579 1021 b 464 1021 542 1021 501 1021 b 235 1025 386 1021 310 1025 b 125 924 172 1025 125 983 b 144 858 125 900 133 879 b 494 497 186 786 368 607 b 494 358 551 447 556 411 b 81 -217 328 217 81 -42 b 358 -335 81 -351 268 -335 z "},"−":{"ha":639,"x_min":0,"x_max":0,"o":"m 617 454 b 543 529 617 500 588 529 l 96 529 b 22 454 51 529 22 499 b 96 382 22 410 51 382 l 543 382 b 617 454 588 382 617 410 z "},"√":{"ha":882,"x_min":0,"x_max":0,"o":"m 639 135 l 799 1176 b 753 1271 806 1221 794 1256 b 724 1276 743 1274 733 1276 b 661 1226 692 1276 665 1260 l 513 232 l 467 446 b 329 556 451 511 396 556 b 164 454 258 556 194 515 l 89 301 b 118 213 71 267 83 231 b 151 203 129 207 142 203 b 206 240 175 203 194 217 l 265 358 l 314 142 b 490 0 333 56 403 0 b 639 135 535 0 618 6 z "},"∞":{"ha":1081,"x_min":0,"x_max":0,"o":"m 1053 458 b 757 781 1053 617 969 781 b 510 653 642 781 550 732 b 486 651 497 629 492 629 b 299 758 464 729 386 758 b 28 458 135 758 28 656 b 299 157 28 260 135 157 b 486 264 386 157 464 186 b 510 263 492 286 497 286 b 757 135 550 183 642 135 b 1053 458 969 135 1053 299 z m 181 458 b 293 567 181 507 213 567 b 428 458 381 567 428 532 b 293 349 428 383 381 349 b 181 458 213 349 181 408 z m 546 457 b 714 547 546 511 615 547 b 853 461 807 547 853 517 b 710 368 853 404 807 368 b 546 457 615 368 546 403 z "},"∫":{"ha":561,"x_min":0,"x_max":0,"o":"m 522 236 b 493 1126 522 533 440 1126 b 594 1049 518 1126 486 1049 b 718 1136 640 1049 718 1035 b 532 1286 718 1263 596 1286 b 276 864 410 1286 276 1200 b 306 -26 276 744 358 -26 b 206 51 281 -26 314 51 b 81 -36 160 51 81 65 b 268 -187 81 -162 204 -187 b 522 236 389 -187 522 -100 z "},"≈":{"ha":657,"x_min":0,"x_max":0,"o":"m 618 665 b 578 694 617 694 597 694 b 536 667 567 694 556 688 b 472 610 528 657 515 610 b 192 696 414 610 285 696 b 32 463 78 696 17 564 b 60 433 35 446 42 433 b 108 463 89 433 92 438 b 183 519 117 474 129 519 b 464 433 257 519 371 433 b 618 665 586 433 621 583 z m 626 338 b 586 367 625 367 607 367 b 544 339 576 367 564 358 b 481 282 536 329 525 282 b 201 368 422 282 293 368 b 40 135 88 368 25 236 b 68 106 43 118 50 106 b 118 135 97 106 100 110 b 192 192 125 146 138 192 b 474 106 265 192 379 106 b 626 338 594 106 631 256 z "},"≠":{"ha":696,"x_min":0,"x_max":0,"o":"m 307 49 l 381 253 l 601 253 b 675 324 646 253 675 281 b 601 399 675 369 646 399 l 432 399 l 474 515 l 601 515 b 675 588 646 515 675 543 b 601 663 675 633 646 663 l 525 663 l 621 926 b 575 1021 635 969 617 1006 b 547 1025 565 1024 556 1025 b 483 976 518 1025 494 1008 l 371 663 l 154 663 b 81 588 110 663 81 631 b 154 515 81 543 110 515 l 319 515 l 276 399 l 154 399 b 81 324 110 399 81 368 b 154 253 81 281 110 253 l 224 253 l 169 99 b 213 6 156 56 171 19 b 242 0 222 1 233 0 b 307 49 272 0 296 18 z "},"≤":{"ha":607,"x_min":0,"x_max":0,"o":"m 569 297 b 533 394 589 338 572 375 l 251 525 l 533 654 b 569 751 572 674 589 711 b 506 796 556 781 532 796 b 472 788 494 796 483 793 l 65 599 b 22 525 32 585 22 556 b 65 450 22 493 32 464 l 472 261 b 506 253 483 256 494 253 b 569 297 532 253 556 268 z m 576 72 b 504 147 576 118 547 147 l 96 147 b 22 75 51 147 22 119 l 22 72 b 96 0 22 28 51 0 l 504 0 b 576 72 547 0 576 28 z "},"≥":{"ha":607,"x_min":0,"x_max":0,"o":"m 135 261 l 542 450 b 585 525 574 464 585 493 b 542 599 585 556 574 585 l 135 788 b 101 796 124 793 113 796 b 38 751 74 796 50 781 b 74 654 18 711 35 674 l 354 525 l 74 394 b 38 297 35 375 18 338 b 101 253 50 268 74 253 b 135 261 113 253 124 256 z m 585 72 l 585 75 b 511 147 585 119 556 147 l 103 147 b 31 72 60 147 31 118 b 103 0 31 28 60 0 l 511 0 b 585 72 556 0 585 28 z "},"":{"ha":921,"x_min":0,"x_max":0,"o":"m 850 299 b 751 536 822 336 751 419 b 825 776 751 639 806 724 b 451 1025 875 924 715 1025 b 96 776 186 1025 44 924 b 167 536 115 724 167 639 b 72 303 167 419 97 336 b 228 0 -65 125 28 0 b 392 289 421 0 513 121 b 461 410 342 358 374 410 b 528 288 549 410 576 357 b 694 0 407 118 501 0 b 850 299 892 0 983 125 z m 329 710 b 461 806 351 756 397 806 b 592 710 526 806 569 757 b 458 528 639 610 572 528 b 329 710 346 528 281 608 z "},"":{"ha":890,"x_min":0,"x_max":0,"o":"m 844 246 b 810 622 806 314 768 444 b 424 1025 890 967 657 1025 b 56 797 182 1025 56 963 b 231 615 56 686 119 615 b 357 781 324 615 364 693 b 413 879 351 856 383 879 b 553 676 469 879 535 799 b 446 571 561 615 513 568 b 19 335 233 581 19 589 b 293 0 19 119 124 0 b 519 172 432 0 510 79 b 532 208 522 193 528 208 b 542 135 538 208 542 189 b 707 0 542 39 613 0 b 844 246 861 0 915 126 z m 296 396 b 433 471 296 435 353 471 b 521 415 465 471 521 464 b 397 339 521 364 460 339 b 296 396 331 339 296 365 z "},"":{"ha":832,"x_min":0,"x_max":0,"o":"m 813 290 b 728 508 835 413 790 474 b 625 538 692 529 657 538 b 476 404 538 538 474 474 b 425 351 478 365 456 351 b 364 407 393 351 364 367 b 444 517 364 456 400 499 b 490 575 475 531 490 551 b 443 624 490 603 472 622 b 297 724 344 628 297 654 b 404 806 297 782 332 806 b 469 760 446 806 468 799 b 579 674 471 721 493 674 b 643 681 597 674 618 675 b 760 790 746 701 760 740 b 406 1025 760 963 585 1025 b 44 767 175 1025 44 918 b 203 565 44 667 107 589 b 204 546 224 561 224 556 b 18 292 104 503 18 411 b 419 0 18 83 233 0 b 813 290 608 0 775 88 z "},"":{"ha":910,"x_min":0,"x_max":0,"o":"m 892 301 b 800 511 913 413 868 474 b 701 539 765 529 732 539 b 563 438 643 539 594 507 b 461 351 529 361 482 351 b 368 411 429 351 396 374 b 401 481 346 443 361 472 b 836 813 606 521 836 636 b 517 1025 836 957 683 1025 b 17 475 204 1025 17 788 b 463 0 17 161 203 0 b 892 301 688 0 858 121 z m 313 663 b 447 879 325 790 394 879 b 513 797 482 879 513 840 b 375 611 513 753 483 651 b 354 607 368 608 361 607 b 313 663 328 607 310 629 z "},"":{"ha":724,"x_min":0,"x_max":0,"o":"m 663 281 b 601 536 663 376 601 426 b 678 772 601 639 654 724 b 569 1025 751 925 693 1025 b 475 928 514 1025 488 981 b 463 906 472 913 468 906 b 444 922 458 906 453 911 b 257 1025 403 982 344 1025 b 28 693 89 1025 28 864 b 222 410 28 435 165 410 b 424 521 311 410 385 469 b 449 519 444 553 454 551 b 293 351 440 450 381 351 b 163 382 243 351 210 382 b 29 193 71 382 29 260 b 307 0 29 93 124 0 b 663 281 513 0 663 129 z m 276 763 b 371 864 276 838 329 864 b 471 753 425 864 471 817 b 367 658 471 674 399 658 b 276 763 315 658 276 700 z "},"":{"ha":1396,"x_min":0,"x_max":0,"o":"m 1326 299 b 1226 536 1299 336 1226 419 b 1311 856 1226 617 1311 732 b 1131 1025 1311 972 1236 1025 b 814 879 999 1025 883 943 b 790 867 806 871 797 867 b 774 890 782 867 776 875 b 622 1025 760 965 732 1025 b 356 872 492 1025 417 939 b 336 857 347 863 340 857 b 332 886 331 857 329 867 b 213 1025 346 972 294 1025 b 94 769 101 1025 18 925 b 168 536 117 724 168 639 b 74 303 168 419 99 336 b 229 0 -64 125 29 0 b 385 299 426 0 518 125 b 286 536 357 336 286 419 b 472 774 286 689 365 774 b 640 536 619 774 640 613 b 544 303 640 419 569 336 b 700 0 407 125 501 0 b 857 299 897 0 990 125 b 757 536 829 336 757 419 b 942 774 757 644 819 774 b 1110 536 1089 774 1110 613 b 1014 303 1110 419 1039 336 b 1169 0 876 125 971 0 b 1326 299 1367 0 1460 125 z "},"":{"ha":926,"x_min":0,"x_max":0,"o":"m 857 299 b 757 536 829 336 757 419 b 842 856 757 617 842 732 b 646 1025 842 972 765 1025 b 356 872 492 1025 417 939 b 336 857 347 863 340 857 b 332 886 331 857 329 867 b 213 1025 346 972 294 1025 b 94 769 101 1025 18 925 b 168 536 117 724 168 639 b 74 303 168 419 99 336 b 229 0 -64 125 29 0 b 385 299 426 0 518 125 b 286 536 357 336 286 419 b 472 774 286 689 365 774 b 640 536 619 774 640 613 b 544 303 640 419 569 336 b 700 0 407 125 501 0 b 857 299 897 0 990 125 z "},"":{"ha":786,"x_min":0,"x_max":0,"o":"m 385 299 b 286 536 357 336 286 419 b 404 774 286 689 336 774 b 468 708 413 774 454 772 b 628 619 482 654 522 608 b 783 814 747 635 783 704 b 608 1025 783 972 707 1025 b 356 872 492 1025 406 953 b 339 856 349 861 343 856 b 332 886 332 856 329 867 b 213 1025 346 972 294 1025 b 94 769 101 1025 18 925 b 168 536 117 724 168 639 b 74 303 168 419 99 336 b 229 0 -64 125 29 0 b 385 299 426 0 518 125 z "},"":{"ha":761,"x_min":0,"x_max":0,"o":"m 739 310 b 628 531 739 417 701 493 b 556 549 604 542 579 549 b 439 428 500 549 450 515 b 388 356 431 350 394 356 b 486 907 317 356 408 907 b 511 789 513 907 486 839 b 586 746 526 758 556 746 b 728 879 651 746 728 800 b 568 1025 728 993 663 1025 l 161 1025 b 1 879 65 1025 1 993 b 142 746 1 800 78 746 b 218 789 174 746 203 758 b 250 907 243 839 217 907 b 174 457 322 907 254 618 b 415 1 36 185 168 1 b 739 310 608 1 739 113 z "},"":{"ha":850,"x_min":0,"x_max":0,"o":"m 778 299 b 678 536 750 336 678 419 b 756 771 678 639 732 724 b 619 1025 832 925 743 1025 b 486 769 493 1025 410 925 b 561 517 507 726 561 649 b 389 351 561 446 483 351 b 243 533 315 351 243 413 b 321 771 243 639 297 724 b 185 1025 397 925 308 1025 b 51 769 58 1025 -25 925 b 126 546 74 724 126 639 b 24 253 126 419 24 385 b 244 0 24 85 129 0 b 472 139 344 0 426 64 b 496 168 485 158 490 168 b 508 132 500 168 503 157 b 665 0 522 43 590 0 b 778 299 818 0 910 125 z "},"":{"ha":836,"x_min":0,"x_max":0,"o":"m 814 310 b 701 531 814 417 776 493 b 636 546 679 540 657 546 b 515 417 576 546 526 506 b 461 342 506 336 471 342 b 461 561 415 342 424 506 b 704 718 500 614 646 681 b 715 999 844 807 824 936 b 619 1026 683 1017 651 1026 b 443 843 542 1026 471 969 b 368 646 438 819 389 646 b 354 664 363 646 358 653 b 339 871 329 726 350 794 b 181 1026 322 975 257 1026 b 82 999 149 1026 114 1018 b 113 701 -26 936 -46 808 b 278 561 136 685 240 613 b 219 306 332 482 250 426 b 482 1 183 158 243 1 b 814 310 683 1 814 113 z "},"":{"ha":760,"x_min":0,"x_max":0,"o":"m 719 296 b 651 618 719 397 651 479 b 722 815 651 726 693 756 b 593 1025 782 936 718 1025 b 457 810 467 1025 375 936 b 535 675 490 758 535 729 b 390 567 535 590 429 567 b 272 696 325 567 272 628 b 296 781 272 726 285 756 b 185 1025 374 936 310 1025 b 40 822 58 1025 -33 936 b 156 653 83 756 156 726 b 60 457 156 569 60 565 b 228 322 60 375 114 322 b 489 444 336 322 433 371 b 513 465 501 461 508 465 b 519 446 519 465 519 453 b 338 264 515 351 453 264 b 272 274 311 264 292 268 l 233 285 b 168 294 214 290 194 294 b 56 193 97 294 56 260 b 333 0 56 93 150 0 b 719 296 539 0 719 129 z "},"":{"ha":1528,"x_min":0,"x_max":0,"o":"m 519 299 b 419 536 492 336 419 419 b 449 803 419 631 435 732 b 582 907 457 856 515 907 b 778 536 719 907 778 699 b 682 303 778 419 707 336 b 838 0 544 125 638 0 b 993 299 1035 0 1126 125 b 1065 499 918 388 914 499 b 1144 303 1214 499 1221 396 b 1300 0 1007 125 1100 0 b 1456 299 1497 0 1589 125 b 1357 536 1428 336 1357 419 b 1435 771 1357 639 1411 724 b 1299 1025 1510 925 1422 1025 b 1165 769 1172 1025 1089 925 b 1068 615 1207 683 1167 615 b 972 771 965 615 929 685 b 836 1025 1046 917 951 1025 l 158 1025 b -1 879 63 1025 -1 993 b 139 746 -1 800 75 746 b 215 789 171 746 200 758 b 239 907 240 839 214 907 b 275 803 260 907 267 856 b 303 536 289 732 303 631 b 204 299 303 419 232 336 b 360 0 71 125 163 0 b 363 0 361 0 363 0 b 519 299 561 0 653 125 z "},"":{"ha":1204,"x_min":0,"x_max":0,"o":"m 519 299 b 419 536 492 336 419 419 b 449 803 419 631 435 732 b 539 904 457 851 476 904 l 664 904 b 756 803 728 904 746 851 b 783 536 768 732 783 631 b 683 299 783 419 711 336 b 840 0 550 125 643 0 b 843 0 842 0 843 0 b 1000 299 1040 0 1133 125 b 900 536 972 336 900 419 b 964 907 900 582 924 907 b 988 789 989 907 963 839 b 1064 746 1003 758 1032 746 b 1204 879 1128 746 1204 800 b 1044 1025 1204 993 1140 1025 l 158 1025 b -1 879 63 1025 -1 993 b 139 746 -1 800 75 746 b 215 789 171 746 200 758 b 239 907 240 839 214 907 b 275 803 260 907 267 856 b 303 536 289 732 303 631 b 204 299 303 419 232 336 b 360 0 71 125 163 0 b 363 0 361 0 363 0 b 519 299 561 0 653 125 z "},"":{"ha":1197,"x_min":0,"x_max":0,"o":"m 1182 192 b 1079 333 1182 286 1136 333 b 1047 329 1069 333 1058 332 b 997 313 1022 322 1011 313 b 925 549 931 313 925 514 b 926 592 925 564 925 576 b 954 615 928 606 940 615 l 1086 615 b 1144 674 1121 615 1144 639 b 1086 732 1144 710 1121 732 l 976 732 b 994 889 935 732 994 769 b 703 1129 994 1099 810 1129 b 394 863 497 1129 394 1015 b 408 764 394 828 400 794 b 385 732 415 744 406 732 l 383 732 b 19 336 163 732 19 563 b 346 0 19 115 154 0 b 667 244 543 0 656 122 b 519 413 675 364 585 413 b 353 308 426 413 424 308 b 268 440 326 308 268 322 b 363 615 268 546 315 615 b 408 567 379 615 408 607 b 493 493 408 522 446 493 b 593 601 564 493 593 557 b 568 668 593 626 583 647 b 511 840 528 721 511 789 b 661 992 511 949 586 992 b 781 732 844 992 886 732 l 722 732 b 664 674 686 732 664 708 b 722 615 664 639 686 615 l 783 615 b 808 592 799 615 807 607 b 808 581 808 588 808 585 b 728 288 808 419 753 336 b 942 0 651 135 718 0 b 1182 192 1056 0 1182 36 z "},"ﬆ":{"ha":1156,"x_min":0,"x_max":0,"o":"m 1139 192 b 1036 333 1139 286 1094 333 b 1004 329 1026 333 1015 332 b 954 313 979 322 969 313 b 883 549 889 313 883 514 b 885 592 883 564 883 576 b 913 615 886 606 897 615 l 1044 615 b 1103 674 1079 615 1103 639 b 1044 732 1103 710 1079 732 l 935 732 b 951 889 892 732 951 769 b 661 1129 951 1099 767 1129 b 372 872 454 1129 372 1015 b 389 774 372 835 378 803 b 357 732 397 747 385 732 b 44 551 192 732 44 669 b 344 325 44 381 344 388 b 297 293 344 311 328 293 b 138 369 233 293 246 369 b 19 247 56 369 19 325 b 311 0 19 122 113 0 b 604 243 474 0 604 83 b 285 531 604 490 285 413 b 357 586 285 574 331 586 b 408 553 379 586 408 576 b 493 493 408 522 446 493 b 593 601 564 493 593 557 b 560 676 593 631 579 653 b 489 854 513 731 489 786 b 618 992 489 949 543 992 b 738 732 803 992 843 732 l 679 732 b 621 674 644 732 621 708 b 679 615 621 639 644 615 l 740 615 b 765 592 756 615 764 607 b 765 581 765 588 765 585 b 685 288 765 419 710 336 b 899 0 610 135 675 0 b 1139 192 1013 0 1139 36 z "},"Đ":{"ha":986,"x_min":0,"x_max":0,"o":"m 967 467 b 593 1025 967 788 815 1025 b 368 885 544 1025 436 1013 b 340 863 360 869 350 863 b 328 897 329 863 321 875 b 225 1025 350 983 299 1025 b 104 769 113 1025 29 925 b 163 642 118 739 144 696 l 104 642 b 32 567 61 642 32 611 b 104 494 32 522 61 494 l 176 494 b 85 303 164 400 107 331 b 211 0 -53 125 40 0 b 376 135 307 0 376 39 b 389 169 376 157 382 169 b 408 143 394 169 401 161 b 660 0 443 47 568 0 b 967 467 829 0 967 161 z m 353 494 l 499 494 b 572 567 542 494 572 522 b 499 642 572 613 542 642 l 346 642 b 504 806 363 756 431 806 b 660 586 590 806 660 735 b 504 351 660 443 596 351 b 353 494 431 351 374 406 z "},"ﬁ":{"ha":821,"x_min":0,"x_max":0,"o":"m 776 210 b 681 378 738 269 681 299 b 757 564 681 456 735 517 b 606 732 804 661 735 732 l 251 732 b 271 864 178 732 178 864 b 438 753 354 864 331 753 b 554 865 483 753 554 774 b 317 1025 554 1000 401 1025 b 54 840 157 1025 54 939 b 126 744 54 778 97 756 b 124 732 144 738 142 732 l 79 732 b 19 674 43 732 19 708 b 79 615 19 638 43 615 l 110 615 b 146 586 128 615 143 603 b 150 531 149 568 150 549 b 79 313 150 419 94 336 b 210 0 -53 125 56 0 b 333 322 364 0 471 125 b 267 531 325 336 267 419 b 264 586 267 546 265 565 b 290 615 263 603 274 615 l 425 615 b 563 388 553 615 563 482 b 442 194 563 299 478 269 b 624 0 389 90 482 0 b 776 210 763 0 854 90 z "},"ﬂ":{"ha":817,"x_min":0,"x_max":0,"o":"m 742 322 b 675 539 733 336 675 419 b 725 744 675 639 715 724 b 390 1025 832 961 590 1025 b 54 840 157 1025 54 939 b 119 747 54 778 97 756 b 124 732 144 738 142 732 l 79 732 b 19 674 43 732 19 708 b 79 615 19 638 43 615 l 110 615 b 147 576 128 615 143 603 b 150 532 149 568 150 549 b 79 313 150 419 94 336 b 210 0 -53 125 56 0 b 333 322 364 0 471 125 b 267 529 325 336 267 419 b 265 565 267 546 265 565 b 290 615 263 603 274 615 l 375 615 b 435 675 411 615 435 639 b 375 732 435 710 411 732 l 251 732 b 332 864 178 732 178 864 b 558 567 476 864 558 747 b 488 313 558 419 503 336 b 618 0 356 125 464 0 b 742 322 772 0 879 125 z "},"ı":{"ha":406,"x_min":0,"x_max":0,"o":"m 363 210 b 265 378 324 269 265 299 b 340 560 265 456 319 517 b 207 732 390 661 288 732 b 76 560 125 732 28 661 b 149 388 96 517 149 456 b 28 194 149 299 64 269 b 208 0 -25 90 68 0 b 363 210 347 0 440 90 z "},"̦":{"ha":374,"x_min":0,"x_max":0,"o":"m 107 -182 b 347 129 251 -153 347 -10 b 188 322 347 251 275 322 b 25 161 99 322 25 251 b 104 22 25 108 51 61 b 133 -85 153 -12 167 -49 b 82 -126 121 -100 97 -118 b 51 -169 57 -142 50 -156 b 78 -186 53 -179 60 -186 b 107 -182 85 -186 94 -185 z "},"∕":{"ha":622,"x_min":0,"x_max":0,"o":"m 224 49 l 536 926 b 492 1021 551 969 532 1006 b 463 1025 482 1024 472 1025 b 399 976 433 1025 410 1008 l 86 99 b 128 6 71 56 88 19 b 158 0 139 1 149 0 b 224 49 189 0 213 18 z "},"∙":{"ha":372,"x_min":0,"x_max":0,"o":"m 347 469 b 181 625 344 558 269 628 b 25 458 92 622 22 547 b 192 303 28 369 103 300 b 347 469 281 306 350 381 z "},"₧":{"ha":1967,"x_min":0,"x_max":0,"o":"m 386 299 b 339 364 375 314 356 336 b 331 392 326 382 324 392 b 357 381 336 392 344 388 b 497 342 403 356 444 342 b 785 696 632 342 785 439 b 529 1025 785 865 718 1025 b 356 914 499 1025 401 1021 b 321 913 332 857 306 860 b 219 1025 342 993 288 1025 b 94 769 101 1025 18 925 b 168 536 117 724 168 639 b 74 303 168 419 99 336 b 229 0 -64 125 29 0 b 386 299 426 0 518 125 z m 1324 192 b 1221 333 1324 286 1279 333 b 1189 329 1211 333 1200 332 b 1139 313 1164 322 1154 313 b 1068 549 1074 313 1068 514 b 1069 592 1068 564 1068 576 b 1097 615 1071 606 1082 615 l 1229 615 b 1288 674 1264 615 1288 639 b 1229 732 1288 710 1264 732 l 1119 732 b 1151 842 1076 732 1131 772 b 1026 1025 1181 938 1129 1025 b 903 825 897 1025 875 914 b 922 732 921 763 960 732 l 864 732 b 806 674 829 732 806 708 b 864 615 806 639 829 615 l 925 615 b 950 592 940 615 949 607 b 950 581 950 588 950 585 b 869 288 950 419 894 336 b 1083 0 794 135 860 0 b 1324 192 1197 0 1324 36 z m 303 690 b 400 790 303 750 339 790 b 496 690 468 790 496 739 b 393 593 496 619 439 593 b 303 690 339 593 303 628 z m 1943 243 b 1624 531 1943 490 1624 413 b 1696 586 1624 574 1669 586 b 1747 553 1718 586 1747 576 b 1832 493 1747 522 1785 493 b 1932 601 1903 493 1932 557 b 1696 732 1932 681 1844 732 b 1383 551 1531 732 1383 669 b 1683 325 1383 381 1683 388 b 1636 293 1683 311 1667 293 b 1476 369 1572 293 1585 369 b 1358 247 1394 369 1358 325 b 1650 0 1358 122 1451 0 b 1943 243 1813 0 1943 83 z "},"ﬀ":{"ha":889,"x_min":0,"x_max":0,"o":"m 333 322 b 267 531 325 336 267 419 b 264 586 267 546 265 565 b 290 615 263 603 274 615 l 375 615 b 435 674 411 615 435 639 b 375 732 435 710 411 732 l 251 732 b 224 864 178 732 178 864 b 349 753 265 864 243 753 b 467 865 396 753 467 774 b 260 1025 467 1000 314 1025 b 54 840 157 1025 54 939 b 126 744 54 778 97 756 b 124 732 144 738 142 732 l 79 732 b 19 674 43 732 19 708 b 79 615 19 638 43 615 l 110 615 b 146 586 128 615 143 603 b 150 531 149 568 150 549 b 79 313 150 419 94 336 b 210 0 -53 125 56 0 b 333 322 364 0 471 125 z m 778 322 b 711 531 769 336 711 419 b 708 586 711 546 710 565 b 735 615 707 603 718 615 l 819 615 b 879 674 856 615 879 639 b 819 732 879 710 856 732 l 696 732 b 668 864 622 732 622 864 b 793 753 710 864 688 753 b 911 865 840 753 911 774 b 704 1025 911 1000 758 1025 b 499 840 601 1025 499 939 b 571 744 499 778 542 756 b 568 732 589 738 586 732 l 524 732 b 464 674 488 732 464 708 b 524 615 464 638 488 615 l 554 615 b 590 586 572 615 588 603 b 594 531 593 568 594 549 b 524 313 594 419 539 336 b 654 0 392 125 500 0 b 778 322 808 0 915 125 z "},"Ā":{"ha":936,"x_min":0,"x_max":0,"o":"m 738 1139 b 665 1213 738 1183 708 1213 l 271 1213 b 199 1139 228 1213 199 1182 b 271 1067 199 1094 228 1067 l 665 1067 b 738 1139 708 1067 738 1094 z m 754 11 b 835 344 947 56 1011 201 b 690 549 804 369 717 435 b 711 792 667 649 699 743 b 468 1025 747 954 608 1025 b 225 792 328 1026 186 957 b 246 549 236 743 268 649 b 100 344 219 435 131 369 b 181 11 -75 201 -12 56 b 265 0 211 4 240 0 b 404 264 404 0 476 99 b 469 356 382 318 410 356 b 531 264 529 356 554 318 b 669 0 460 99 531 0 b 754 11 696 0 724 4 z m 396 625 b 474 701 419 676 447 701 b 547 625 501 701 528 676 b 468 474 585 526 543 474 b 396 625 393 474 353 526 z "},"ā":{"ha":717,"x_min":0,"x_max":0,"o":"m 628 863 b 556 938 628 908 599 938 l 161 938 b 89 863 118 938 89 907 b 161 790 89 818 118 790 l 556 790 b 628 863 599 790 628 818 z m 651 221 b 657 475 594 358 636 431 b 567 732 733 633 676 732 b 472 636 511 732 485 689 b 460 614 469 621 465 614 b 442 629 456 614 450 619 b 254 732 400 690 342 732 b 25 371 86 732 25 571 b 217 0 25 143 106 0 b 439 161 308 0 400 97 b 453 158 454 185 456 186 b 564 0 435 17 513 0 b 651 221 707 0 689 126 z m 274 440 b 368 571 274 544 326 571 b 468 435 422 571 468 525 b 369 308 468 322 396 308 b 274 440 344 308 274 321 z "},"Ă":{"ha":936,"x_min":0,"x_max":0,"o":"m 650 1264 b 614 1300 651 1285 636 1300 b 567 1265 597 1300 583 1290 b 468 1215 544 1235 497 1215 b 369 1265 439 1215 392 1235 b 322 1300 353 1290 339 1300 b 286 1264 299 1300 285 1285 b 468 1067 299 1144 368 1067 b 650 1264 568 1067 639 1144 z m 754 11 b 835 344 947 56 1011 201 b 690 549 804 369 717 435 b 711 792 667 649 699 743 b 468 1025 747 954 608 1025 b 225 792 328 1026 186 957 b 246 549 236 743 268 649 b 100 344 219 435 131 369 b 181 11 -75 201 -12 56 b 265 0 211 4 240 0 b 404 264 404 0 476 99 b 469 356 382 318 410 356 b 531 264 529 356 554 318 b 669 0 460 99 531 0 b 754 11 696 0 724 4 z m 396 625 b 474 701 419 676 447 701 b 547 625 501 701 528 676 b 468 474 585 526 543 474 b 396 625 393 474 353 526 z "},"ă":{"ha":717,"x_min":0,"x_max":0,"o":"m 540 974 b 504 1010 542 994 526 1010 b 457 975 488 1010 474 1000 b 358 925 435 944 388 925 b 260 975 329 925 282 944 b 213 1010 243 1000 229 1010 b 176 974 189 1010 175 994 b 358 776 189 854 258 776 b 540 974 458 776 528 854 z m 651 221 b 657 475 594 358 636 431 b 567 732 733 633 676 732 b 472 636 511 732 485 689 b 460 614 469 621 465 614 b 442 629 456 614 450 619 b 254 732 400 690 342 732 b 25 371 86 732 25 571 b 217 0 25 143 106 0 b 439 161 308 0 400 97 b 453 158 454 185 456 186 b 564 0 435 17 513 0 b 651 221 707 0 689 126 z m 274 440 b 368 571 274 544 326 571 b 468 435 422 571 468 525 b 369 308 468 322 396 308 b 274 440 344 308 274 321 z "},"Ą":{"ha":936,"x_min":0,"x_max":0,"o":"m 729 -300 b 763 -261 749 -299 763 -282 b 729 -224 763 -243 750 -229 b 653 -136 693 -215 653 -190 b 747 8 653 -86 685 -42 b 754 11 749 10 751 10 b 835 344 947 56 1011 201 b 690 549 804 369 717 435 b 711 792 667 649 699 743 b 468 1025 747 954 608 1025 b 225 792 328 1026 186 957 b 246 549 236 743 268 649 b 100 344 219 435 131 369 b 181 11 -75 201 -12 56 b 265 0 211 4 240 0 b 404 264 404 0 476 99 b 469 356 382 318 410 356 b 531 264 529 356 554 318 b 617 6 469 122 514 29 b 492 -164 553 -28 492 -93 b 729 -300 492 -262 617 -307 z m 396 625 b 474 701 419 676 447 701 b 547 625 501 701 528 676 b 468 474 585 526 543 474 b 396 625 393 474 353 526 z "},"ą":{"ha":717,"x_min":0,"x_max":0,"o":"m 567 -300 b 600 -261 585 -299 600 -282 b 567 -224 600 -243 586 -229 b 490 -136 529 -215 490 -190 b 574 0 490 -89 518 -46 b 651 221 706 7 689 129 b 657 475 594 358 636 431 b 567 732 733 633 676 732 b 472 636 511 732 485 689 b 460 614 469 621 465 614 b 442 629 456 614 450 619 b 254 732 400 690 342 732 b 25 371 86 732 25 571 b 217 0 25 143 106 0 b 439 161 308 0 400 97 b 453 158 454 185 456 186 b 488 21 443 82 461 42 b 329 -164 415 -4 329 -81 b 567 -300 329 -262 454 -307 z m 274 440 b 368 571 274 544 326 571 b 468 435 422 571 468 525 b 369 308 468 322 396 308 b 274 440 344 308 274 321 z "},"Ć":{"ha":917,"x_min":0,"x_max":0,"o":"m 444 1110 l 589 1281 b 554 1382 628 1328 614 1368 l 464 1404 b 346 1328 404 1418 357 1388 l 307 1121 b 354 1068 301 1089 319 1068 b 444 1110 388 1068 422 1083 z m 900 303 b 808 511 921 413 878 474 b 710 539 775 529 742 539 b 572 438 653 539 603 507 b 468 351 538 361 489 351 b 310 615 392 351 310 460 b 453 879 310 769 389 879 b 508 781 482 879 514 856 b 635 615 503 693 543 615 b 810 797 747 615 810 686 b 519 1025 810 963 683 1025 b 17 475 204 1025 17 788 b 468 0 17 161 204 0 b 900 303 694 0 867 121 z "},"ć":{"ha":682,"x_min":0,"x_max":0,"o":"m 328 818 l 471 990 b 438 1090 510 1036 497 1076 l 346 1113 b 228 1036 286 1128 240 1097 l 190 831 b 236 776 183 799 201 776 b 328 818 271 776 306 792 z m 667 244 b 519 413 675 364 585 413 b 353 308 426 413 424 308 b 268 440 326 308 268 322 b 363 615 268 546 315 615 b 408 567 379 615 408 607 b 493 493 408 522 446 493 b 593 601 564 493 593 557 b 383 732 593 681 506 732 b 19 336 163 732 19 563 b 346 0 19 115 154 0 b 667 244 543 0 656 122 z "},"Ĉ":{"ha":917,"x_min":0,"x_max":0,"o":"m 617 1067 l 679 1089 b 713 1190 738 1110 751 1143 l 569 1361 b 458 1400 543 1392 499 1400 b 349 1361 417 1400 372 1392 l 204 1190 b 238 1089 165 1143 179 1110 l 300 1067 b 331 1061 311 1063 321 1061 b 418 1143 374 1061 406 1096 l 460 1290 l 499 1143 b 585 1061 507 1094 542 1061 b 617 1067 594 1061 606 1063 z m 900 303 b 808 511 921 413 878 474 b 710 539 775 529 742 539 b 572 438 653 539 603 507 b 468 351 538 361 489 351 b 310 615 392 351 310 460 b 453 879 310 769 389 879 b 508 781 482 879 514 856 b 635 615 503 693 543 615 b 810 797 747 615 810 686 b 519 1025 810 963 683 1025 b 17 475 204 1025 17 788 b 468 0 17 161 204 0 b 900 303 694 0 867 121 z "},"ĉ":{"ha":682,"x_min":0,"x_max":0,"o":"m 500 771 l 561 792 b 594 893 619 813 635 846 l 451 1064 b 340 1104 425 1094 382 1104 b 231 1064 300 1104 256 1094 l 88 893 b 121 792 47 846 63 813 l 182 771 b 213 765 193 767 203 765 b 301 846 256 765 288 800 l 342 994 l 382 846 b 467 765 390 797 424 765 b 500 771 478 765 489 767 z m 667 244 b 519 413 675 364 585 413 b 353 308 426 413 424 308 b 268 440 326 308 268 322 b 363 615 268 546 315 615 b 408 567 379 615 408 607 b 493 493 408 522 446 493 b 593 601 564 493 593 557 b 383 732 593 681 506 732 b 19 336 163 732 19 563 b 346 0 19 115 154 0 b 667 244 543 0 656 122 z "},"Ċ":{"ha":917,"x_min":0,"x_max":0,"o":"m 619 1228 b 458 1389 619 1317 547 1389 b 297 1228 369 1389 297 1317 b 458 1067 297 1139 369 1067 b 619 1228 547 1067 619 1139 z m 900 303 b 808 511 921 413 878 474 b 710 539 775 529 742 539 b 572 438 653 539 603 507 b 468 351 538 361 489 351 b 310 615 392 351 310 460 b 453 879 310 769 389 879 b 508 781 482 879 514 856 b 635 615 503 693 543 615 b 810 797 747 615 810 686 b 519 1025 810 963 683 1025 b 17 475 204 1025 17 788 b 468 0 17 161 204 0 b 900 303 694 0 867 121 z "},"ċ":{"ha":682,"x_min":0,"x_max":0,"o":"m 501 938 b 342 1099 501 1026 431 1099 b 181 938 253 1099 181 1026 b 342 776 181 849 253 776 b 501 938 431 776 501 849 z m 667 244 b 519 413 675 364 585 413 b 353 308 426 413 424 308 b 268 440 326 308 268 322 b 363 615 268 546 315 615 b 408 567 379 615 408 607 b 493 493 408 522 446 493 b 593 601 564 493 593 557 b 383 732 593 681 506 732 b 19 336 163 732 19 563 b 346 0 19 115 154 0 b 667 244 543 0 656 122 z "},"Č":{"ha":917,"x_min":0,"x_max":0,"o":"m 569 1108 l 713 1279 b 679 1381 751 1326 738 1360 l 617 1401 b 583 1407 606 1406 594 1407 b 499 1326 540 1407 507 1375 l 460 1178 l 418 1326 b 331 1407 406 1372 374 1407 b 300 1401 321 1407 311 1406 l 238 1381 b 204 1279 179 1360 165 1326 l 349 1108 b 458 1068 374 1078 417 1068 b 569 1108 499 1068 543 1076 z m 900 303 b 808 511 921 413 878 474 b 710 539 775 529 742 539 b 572 438 653 539 603 507 b 468 351 538 361 489 351 b 310 615 392 351 310 460 b 453 879 310 769 389 879 b 508 781 482 879 514 856 b 635 615 503 693 543 615 b 810 797 747 615 810 686 b 519 1025 810 963 683 1025 b 17 475 204 1025 17 788 b 468 0 17 161 204 0 b 900 303 694 0 867 121 z "},"č":{"ha":682,"x_min":0,"x_max":0,"o":"m 451 818 l 594 990 b 561 1090 635 1036 619 1071 l 500 1113 b 468 1118 489 1117 478 1118 b 382 1036 424 1118 390 1085 l 342 889 l 301 1036 b 213 1118 288 1083 256 1118 b 182 1113 203 1118 193 1117 l 121 1090 b 88 990 63 1071 47 1036 l 231 818 b 340 779 256 788 300 779 b 451 818 382 779 425 788 z m 667 244 b 519 413 675 364 585 413 b 353 308 426 413 424 308 b 268 440 326 308 268 322 b 363 615 268 546 315 615 b 408 567 379 615 408 607 b 493 493 408 522 446 493 b 593 601 564 493 593 557 b 383 732 593 681 506 732 b 19 336 163 732 19 563 b 346 0 19 115 154 0 b 667 244 543 0 656 122 z "},"Ď":{"ha":976,"x_min":0,"x_max":0,"o":"m 599 1108 l 742 1279 b 708 1381 782 1326 767 1360 l 647 1401 b 614 1407 636 1406 625 1407 b 529 1326 571 1407 538 1375 l 489 1178 l 449 1326 b 360 1407 435 1372 403 1407 b 329 1401 350 1407 340 1406 l 268 1381 b 235 1279 210 1360 194 1326 l 378 1108 b 488 1068 403 1078 447 1068 b 599 1108 529 1068 572 1076 z m 957 467 b 583 1025 957 788 806 1025 b 358 885 535 1025 426 1013 b 331 863 350 869 340 863 b 318 897 319 863 311 875 b 215 1025 340 983 289 1025 b 94 769 103 1025 19 925 b 169 536 117 724 169 639 b 75 303 169 419 100 336 b 201 0 -62 125 31 0 b 367 135 297 0 367 39 b 379 169 367 157 372 169 b 399 143 385 169 392 161 b 650 0 433 47 558 0 b 957 467 819 0 957 161 z m 332 586 b 494 806 332 739 411 806 b 650 586 581 806 650 735 b 494 351 650 443 586 351 b 332 586 400 351 332 446 z "},"ď":{"ha":1040,"x_min":0,"x_max":0,"o":"m 764 701 b 1004 1013 910 731 1004 874 b 844 1206 1004 1133 933 1206 b 682 1044 756 1206 682 1133 b 761 906 682 992 708 944 b 790 799 810 871 825 835 b 739 757 778 783 754 765 b 708 714 715 742 707 728 b 764 701 711 700 724 693 z m 654 313 b 583 531 639 336 583 419 b 633 750 583 639 621 724 b 525 1025 719 925 621 1025 b 399 782 429 1025 326 925 b 443 638 418 743 426 701 b 278 732 401 697 344 732 b 22 333 136 732 22 563 b 240 0 22 115 126 0 b 447 161 329 0 414 72 b 460 158 457 188 461 186 b 588 0 450 36 519 0 b 654 313 714 0 786 125 z m 271 440 b 372 586 271 544 324 586 b 465 453 419 586 464 547 b 367 308 465 389 446 308 b 271 440 342 308 271 321 z "},"Ē":{"ha":814,"x_min":0,"x_max":0,"o":"m 676 1139 b 604 1213 676 1183 647 1213 l 210 1213 b 138 1139 167 1213 138 1182 b 210 1067 138 1094 167 1067 l 604 1067 b 676 1139 647 1067 676 1094 z m 794 260 b 661 503 794 431 724 503 b 582 446 628 503 597 482 b 471 388 564 400 524 388 b 307 490 388 388 307 419 b 385 554 307 539 343 554 b 486 531 421 554 461 543 b 561 513 510 518 536 513 b 674 615 619 513 672 546 b 575 710 674 674 633 710 b 469 679 543 710 508 700 b 375 649 443 664 406 649 b 329 699 349 649 329 661 b 450 790 329 765 394 790 b 636 769 500 790 574 769 b 754 888 701 769 754 793 b 550 1025 754 993 689 1025 b 357 914 499 1025 403 1021 b 322 913 333 857 307 860 b 221 1025 343 993 289 1025 b 94 769 103 1025 19 925 b 169 536 117 724 169 639 b 75 303 169 419 100 336 b 201 0 -62 125 31 0 b 367 135 297 0 367 39 b 379 169 367 157 372 169 b 399 143 385 169 392 161 b 607 0 429 57 519 0 b 794 260 689 0 794 51 z "},"ē":{"ha":682,"x_min":0,"x_max":0,"o":"m 611 863 b 538 938 611 908 582 938 l 144 938 b 71 863 100 938 71 907 b 144 790 71 818 100 790 l 538 790 b 611 863 582 790 611 818 z m 667 244 b 519 413 675 364 585 413 b 353 308 426 413 424 308 b 288 349 338 308 307 314 b 310 382 279 365 288 379 b 593 608 482 399 593 483 b 383 732 593 681 506 732 b 19 336 163 732 19 563 b 346 0 19 115 154 0 b 667 244 543 0 656 122 z m 275 526 b 358 615 275 575 311 615 b 397 567 375 615 397 611 b 321 478 397 514 367 478 b 275 526 290 478 275 493 z "},"Ĕ":{"ha":814,"x_min":0,"x_max":0,"o":"m 589 1264 b 553 1300 590 1285 575 1300 b 506 1265 536 1300 522 1290 b 407 1215 483 1235 436 1215 b 308 1265 378 1215 331 1235 b 261 1300 292 1290 278 1300 b 225 1264 238 1300 224 1285 b 407 1067 238 1144 307 1067 b 589 1264 507 1067 578 1144 z m 794 260 b 661 503 794 431 724 503 b 582 446 628 503 597 482 b 471 388 564 400 524 388 b 307 490 388 388 307 419 b 385 554 307 539 343 554 b 486 531 421 554 461 543 b 561 513 510 518 536 513 b 674 615 619 513 672 546 b 575 710 674 674 633 710 b 469 679 543 710 508 700 b 375 649 443 664 406 649 b 329 699 349 649 329 661 b 450 790 329 765 394 790 b 636 769 500 790 574 769 b 754 888 701 769 754 793 b 550 1025 754 993 689 1025 b 357 914 499 1025 403 1021 b 322 913 333 857 307 860 b 221 1025 343 993 289 1025 b 94 769 103 1025 19 925 b 169 536 117 724 169 639 b 75 303 169 419 100 336 b 201 0 -62 125 31 0 b 367 135 297 0 367 39 b 379 169 367 157 372 169 b 399 143 385 169 392 161 b 607 0 429 57 519 0 b 794 260 689 0 794 51 z "},"ĕ":{"ha":682,"x_min":0,"x_max":0,"o":"m 522 974 b 488 1010 524 994 510 1010 b 439 975 469 1010 457 1000 b 342 925 417 944 371 925 b 243 975 311 925 265 944 b 194 1010 225 1000 213 1010 b 160 974 171 1010 158 994 b 342 776 171 854 242 776 b 522 974 440 776 511 854 z m 667 244 b 519 413 675 364 585 413 b 353 308 426 413 424 308 b 288 349 338 308 307 314 b 310 382 279 365 288 379 b 593 608 482 399 593 483 b 383 732 593 681 506 732 b 19 336 163 732 19 563 b 346 0 19 115 154 0 b 667 244 543 0 656 122 z m 275 526 b 358 615 275 575 311 615 b 397 567 375 615 397 611 b 321 478 397 514 367 478 b 275 526 290 478 275 493 z "},"Ė":{"ha":814,"x_min":0,"x_max":0,"o":"m 568 1228 b 407 1389 568 1317 496 1389 b 246 1228 318 1389 246 1317 b 407 1067 246 1139 318 1067 b 568 1228 496 1067 568 1139 z m 794 260 b 661 503 794 431 724 503 b 582 446 628 503 597 482 b 471 388 564 400 524 388 b 307 490 388 388 307 419 b 385 554 307 539 343 554 b 486 531 421 554 461 543 b 561 513 510 518 536 513 b 674 615 619 513 672 546 b 575 710 674 674 633 710 b 469 679 543 710 508 700 b 375 649 443 664 406 649 b 329 699 349 649 329 661 b 450 790 329 765 394 790 b 636 769 500 790 574 769 b 754 888 701 769 754 793 b 550 1025 754 993 689 1025 b 357 914 499 1025 403 1021 b 322 913 333 857 307 860 b 221 1025 343 993 289 1025 b 94 769 103 1025 19 925 b 169 536 117 724 169 639 b 75 303 169 419 100 336 b 201 0 -62 125 31 0 b 367 135 297 0 367 39 b 379 169 367 157 372 169 b 399 143 385 169 392 161 b 607 0 429 57 519 0 b 794 260 689 0 794 51 z "},"ė":{"ha":682,"x_min":0,"x_max":0,"o":"m 501 938 b 342 1099 501 1026 431 1099 b 181 938 253 1099 181 1026 b 342 776 181 849 253 776 b 501 938 431 776 501 849 z m 667 244 b 519 413 675 364 585 413 b 353 308 426 413 424 308 b 288 349 338 308 307 314 b 310 382 279 365 288 379 b 593 608 482 399 593 483 b 383 732 593 681 506 732 b 19 336 163 732 19 563 b 346 0 19 115 154 0 b 667 244 543 0 656 122 z m 275 526 b 358 615 275 575 311 615 b 397 567 375 615 397 611 b 321 478 397 514 367 478 b 275 526 290 478 275 493 z "},"Ę":{"ha":814,"x_min":0,"x_max":0,"o":"m 629 -314 b 664 -275 649 -312 664 -296 b 629 -237 664 -257 650 -243 b 554 -150 593 -229 554 -204 b 667 10 554 -96 592 -47 b 794 260 732 33 794 100 b 661 503 794 431 724 503 b 582 446 628 503 597 482 b 471 388 564 400 524 388 b 307 490 388 388 307 419 b 385 554 307 539 343 554 b 486 531 421 554 461 543 b 561 513 510 518 536 513 b 674 615 619 513 672 546 b 575 710 674 674 633 710 b 469 679 543 710 508 700 b 375 649 443 664 406 649 b 329 699 349 649 329 661 b 450 790 329 765 394 790 b 636 769 500 790 574 769 b 754 888 701 769 754 793 b 550 1025 754 993 689 1025 b 357 914 499 1025 403 1021 b 322 913 333 857 307 860 b 221 1025 343 993 289 1025 b 94 769 103 1025 19 925 b 169 536 117 724 169 639 b 75 303 169 419 100 336 b 201 0 -62 125 31 0 b 367 135 297 0 367 39 b 379 169 367 157 372 169 b 399 143 385 169 392 161 b 553 8 422 75 485 25 b 393 -178 479 -18 393 -93 b 629 -314 393 -276 517 -321 z "},"ę":{"ha":682,"x_min":0,"x_max":0,"o":"m 350 -314 b 385 -275 369 -312 385 -296 b 350 -237 385 -257 371 -243 b 275 -150 314 -229 275 -204 b 376 1 275 -99 308 -51 b 667 244 554 13 657 128 b 519 413 675 364 585 413 b 353 308 426 413 424 308 b 288 349 338 308 307 314 b 310 382 279 365 288 379 b 593 608 482 399 593 483 b 383 732 593 681 506 732 b 19 336 163 732 19 563 b 271 7 19 144 119 33 b 114 -178 199 -19 114 -94 b 350 -314 114 -276 238 -321 z m 275 526 b 358 615 275 575 311 615 b 397 567 375 615 397 611 b 321 478 397 514 367 478 b 275 526 290 478 275 493 z "},"Ě":{"ha":814,"x_min":0,"x_max":0,"o":"m 518 1108 l 661 1279 b 628 1381 700 1326 686 1360 l 565 1401 b 532 1407 554 1406 543 1407 b 447 1326 489 1407 456 1375 l 408 1178 l 367 1326 b 279 1407 354 1372 322 1407 b 249 1401 269 1407 260 1406 l 186 1381 b 153 1279 128 1360 114 1326 l 297 1108 b 407 1068 322 1078 365 1068 b 518 1108 447 1068 492 1076 z m 794 260 b 661 503 794 431 724 503 b 582 446 628 503 597 482 b 471 388 564 400 524 388 b 307 490 388 388 307 419 b 385 554 307 539 343 554 b 486 531 421 554 461 543 b 561 513 510 518 536 513 b 674 615 619 513 672 546 b 575 710 674 674 633 710 b 469 679 543 710 508 700 b 375 649 443 664 406 649 b 329 699 349 649 329 661 b 450 790 329 765 394 790 b 636 769 500 790 574 769 b 754 888 701 769 754 793 b 550 1025 754 993 689 1025 b 357 914 499 1025 403 1021 b 322 913 333 857 307 860 b 221 1025 343 993 289 1025 b 94 769 103 1025 19 925 b 169 536 117 724 169 639 b 75 303 169 419 100 336 b 201 0 -62 125 31 0 b 367 135 297 0 367 39 b 379 169 367 157 372 169 b 399 143 385 169 392 161 b 607 0 429 57 519 0 b 794 260 689 0 794 51 z "},"ě":{"ha":682,"x_min":0,"x_max":0,"o":"m 451 818 l 594 990 b 561 1090 635 1036 619 1071 l 500 1113 b 468 1118 489 1117 478 1118 b 382 1036 424 1118 390 1085 l 342 889 l 301 1036 b 213 1118 288 1083 256 1118 b 182 1113 203 1118 193 1117 l 121 1090 b 88 990 63 1071 47 1036 l 231 818 b 340 779 256 788 300 779 b 451 818 382 779 425 788 z m 667 244 b 519 413 675 364 585 413 b 353 308 426 413 424 308 b 288 349 338 308 307 314 b 310 382 279 365 288 379 b 593 608 482 399 593 483 b 383 732 593 681 506 732 b 19 336 163 732 19 563 b 346 0 19 115 154 0 b 667 244 543 0 656 122 z m 275 526 b 358 615 275 575 311 615 b 397 567 375 615 397 611 b 321 478 397 514 367 478 b 275 526 290 478 275 493 z "},"Ĝ":{"ha":901,"x_min":0,"x_max":0,"o":"m 610 1067 l 671 1089 b 704 1190 729 1110 744 1143 l 561 1361 b 450 1400 535 1392 492 1400 b 340 1361 410 1400 365 1392 l 197 1190 b 231 1089 157 1143 172 1110 l 292 1067 b 322 1061 303 1063 313 1061 b 411 1143 365 1061 397 1096 l 451 1290 l 492 1143 b 578 1061 500 1094 535 1061 b 610 1067 588 1061 599 1063 z m 886 126 b 854 393 886 199 819 232 b 656 586 875 492 867 583 b 474 450 465 588 351 514 b 479 351 556 406 539 351 b 311 617 393 351 311 460 b 444 879 311 769 390 879 b 510 781 483 879 515 856 b 636 615 504 693 544 615 b 811 797 749 615 811 686 b 513 1025 811 963 685 1025 b 18 475 206 1025 18 788 b 324 0 18 161 154 0 b 529 183 443 0 501 79 b 593 289 549 258 576 289 b 606 269 600 289 606 282 b 544 104 603 229 544 163 b 706 0 544 42 611 0 b 886 126 810 0 886 50 z "},"ĝ":{"ha":707,"x_min":0,"x_max":0,"o":"m 513 771 l 574 792 b 607 893 632 813 647 846 l 464 1064 b 353 1104 438 1094 394 1104 b 243 1064 313 1104 268 1094 l 100 893 b 133 792 60 846 75 813 l 194 771 b 225 765 206 767 215 765 b 314 846 268 765 300 800 l 354 994 l 394 846 b 479 765 403 797 436 765 b 513 771 490 765 501 767 z m 646 -44 b 585 243 646 54 585 133 b 660 479 585 346 636 431 b 567 732 733 633 676 732 b 472 636 511 732 485 689 b 460 614 469 621 465 614 b 442 629 456 614 450 619 b 254 732 400 690 342 732 b 25 371 86 732 25 571 b 231 0 25 143 106 0 b 421 111 308 0 382 60 b 446 110 442 143 451 142 b 290 -58 438 40 378 -58 b 139 -28 240 -58 207 -28 b 26 -128 68 -28 26 -62 b 304 -322 26 -229 121 -322 b 646 -44 510 -322 646 -193 z m 274 440 b 368 571 274 544 326 571 b 468 435 422 571 468 525 b 369 308 468 322 396 308 b 274 440 344 308 274 321 z "},"Ğ":{"ha":901,"x_min":0,"x_max":0,"o":"m 632 1264 b 597 1300 635 1285 619 1300 b 549 1265 579 1300 567 1290 b 451 1215 526 1235 481 1215 b 353 1265 421 1215 375 1235 b 304 1300 335 1290 322 1300 b 269 1264 281 1300 268 1285 b 451 1067 281 1144 351 1067 b 632 1264 550 1067 621 1144 z m 886 126 b 854 393 886 199 819 232 b 656 586 875 492 867 583 b 474 450 465 588 351 514 b 479 351 556 406 539 351 b 311 617 393 351 311 460 b 444 879 311 769 390 879 b 510 781 483 879 515 856 b 636 615 504 693 544 615 b 811 797 749 615 811 686 b 513 1025 811 963 685 1025 b 18 475 206 1025 18 788 b 324 0 18 161 154 0 b 529 183 443 0 501 79 b 593 289 549 258 576 289 b 606 269 600 289 606 282 b 544 104 603 229 544 163 b 706 0 544 42 611 0 b 886 126 810 0 886 50 z "},"ğ":{"ha":707,"x_min":0,"x_max":0,"o":"m 535 974 b 500 1010 536 994 522 1010 b 451 975 482 1010 469 1000 b 354 925 429 944 383 925 b 256 975 324 925 278 944 b 207 1010 238 1000 225 1010 b 172 974 183 1010 171 994 b 354 776 183 854 254 776 b 535 974 453 776 524 854 z m 646 -44 b 585 243 646 54 585 133 b 660 479 585 346 636 431 b 567 732 733 633 676 732 b 472 636 511 732 485 689 b 460 614 469 621 465 614 b 442 629 456 614 450 619 b 254 732 400 690 342 732 b 25 371 86 732 25 571 b 231 0 25 143 106 0 b 421 111 308 0 382 60 b 446 110 442 143 451 142 b 290 -58 438 40 378 -58 b 139 -28 240 -58 207 -28 b 26 -128 68 -28 26 -62 b 304 -322 26 -229 121 -322 b 646 -44 510 -322 646 -193 z m 274 440 b 368 571 274 544 326 571 b 468 435 422 571 468 525 b 369 308 468 322 396 308 b 274 440 344 308 274 321 z "},"Ġ":{"ha":901,"x_min":0,"x_max":0,"o":"m 611 1228 b 451 1389 611 1317 540 1389 b 290 1228 363 1389 290 1317 b 451 1067 290 1139 363 1067 b 611 1228 540 1067 611 1139 z m 886 126 b 854 393 886 199 819 232 b 656 586 875 492 867 583 b 474 450 465 588 351 514 b 479 351 556 406 539 351 b 311 617 393 351 311 460 b 444 879 311 769 390 879 b 510 781 483 879 515 856 b 636 615 504 693 544 615 b 811 797 749 615 811 686 b 513 1025 811 963 685 1025 b 18 475 206 1025 18 788 b 324 0 18 161 154 0 b 529 183 443 0 501 79 b 593 289 549 258 576 289 b 606 269 600 289 606 282 b 544 104 603 229 544 163 b 706 0 544 42 611 0 b 886 126 810 0 886 50 z "},"ġ":{"ha":707,"x_min":0,"x_max":0,"o":"m 514 938 b 354 1099 514 1026 443 1099 b 193 938 265 1099 193 1026 b 354 776 193 849 265 776 b 514 938 443 776 514 849 z m 646 -44 b 585 243 646 54 585 133 b 660 479 585 346 636 431 b 567 732 733 633 676 732 b 472 636 511 732 485 689 b 460 614 469 621 465 614 b 442 629 456 614 450 619 b 254 732 400 690 342 732 b 25 371 86 732 25 571 b 231 0 25 143 106 0 b 421 111 308 0 382 60 b 446 110 442 143 451 142 b 290 -58 438 40 378 -58 b 139 -28 240 -58 207 -28 b 26 -128 68 -28 26 -62 b 304 -322 26 -229 121 -322 b 646 -44 510 -322 646 -193 z m 274 440 b 368 571 274 544 326 571 b 468 435 422 571 468 525 b 369 308 468 322 396 308 b 274 440 344 308 274 321 z "},"Ģ":{"ha":901,"x_min":0,"x_max":0,"o":"m 886 126 b 854 393 886 199 819 232 b 656 586 875 492 867 583 b 474 450 465 588 351 514 b 479 351 556 406 539 351 b 311 617 393 351 311 460 b 444 879 311 769 390 879 b 510 781 483 879 515 856 b 636 615 504 693 544 615 b 811 797 749 615 811 686 b 513 1025 811 963 685 1025 b 18 475 206 1025 18 788 b 324 0 18 161 154 0 b 529 183 443 0 501 79 b 593 289 549 258 576 289 b 606 269 600 289 606 282 b 544 104 603 229 544 163 b 706 0 544 42 611 0 b 886 126 810 0 886 50 z m 374 -556 b 613 -244 518 -526 613 -383 b 453 -51 613 -124 542 -51 b 292 -212 364 -51 292 -124 b 369 -351 292 -265 318 -314 b 400 -458 418 -386 433 -421 b 349 -500 386 -474 363 -492 b 318 -543 324 -515 315 -529 b 343 -560 319 -553 326 -560 b 374 -556 351 -560 361 -558 z "},"ģ":{"ha":707,"x_min":0,"x_max":0,"o":"m 513 950 b 433 1089 513 1003 486 1050 b 404 1196 385 1124 371 1158 b 456 1238 418 1211 440 1229 b 486 1281 481 1253 488 1267 b 431 1293 483 1294 472 1301 b 190 982 286 1264 190 1121 b 350 789 190 860 263 789 b 513 950 439 789 513 860 z m 646 -44 b 585 243 646 54 585 133 b 660 479 585 346 636 431 b 567 732 733 633 676 732 b 472 636 511 732 485 689 b 460 614 469 621 465 614 b 442 629 456 614 450 619 b 254 732 400 690 342 732 b 25 371 86 732 25 571 b 231 0 25 143 106 0 b 421 111 308 0 382 60 b 446 110 442 143 451 142 b 290 -58 438 40 378 -58 b 139 -28 240 -58 207 -28 b 26 -128 68 -28 26 -62 b 304 -322 26 -229 121 -322 b 646 -44 510 -322 646 -193 z m 274 440 b 368 571 274 544 326 571 b 468 435 422 571 468 525 b 369 308 468 322 396 308 b 274 440 344 308 274 321 z "},"Ĥ":{"ha":919,"x_min":0,"x_max":0,"o":"m 618 1067 l 681 1089 b 714 1190 739 1110 753 1143 l 571 1361 b 460 1400 544 1392 500 1400 b 350 1361 418 1400 374 1392 l 206 1190 b 239 1089 167 1143 181 1110 l 301 1067 b 332 1061 313 1063 322 1061 b 419 1143 375 1061 407 1096 l 461 1290 l 500 1143 b 586 1061 508 1094 543 1061 b 618 1067 596 1061 607 1063 z m 847 299 b 749 536 819 336 749 419 b 826 771 749 639 803 724 b 690 1025 901 925 814 1025 b 557 769 564 1025 481 925 b 460 615 599 683 558 615 b 364 771 357 615 321 685 b 228 1025 440 924 351 1025 b 94 769 101 1025 18 925 b 168 536 117 724 168 639 b 74 303 168 419 99 336 b 229 0 -64 125 29 0 b 385 299 426 0 518 125 b 457 499 310 388 304 499 b 536 303 604 499 613 396 b 692 0 399 125 492 0 b 847 299 889 0 981 125 z "},"ĥ":{"ha":806,"x_min":0,"x_max":0,"o":"m 561 1044 l 622 1067 b 656 1168 681 1088 694 1121 l 513 1339 b 401 1379 486 1369 442 1379 b 292 1339 360 1379 317 1369 l 147 1168 b 182 1067 108 1121 122 1088 l 243 1044 b 272 1039 253 1042 264 1039 b 361 1121 317 1039 349 1074 l 403 1269 l 442 1121 b 529 1039 451 1072 485 1039 b 561 1044 539 1039 550 1040 z m 764 210 b 667 375 725 269 667 299 b 733 594 667 456 733 515 b 538 732 733 679 657 732 b 313 622 493 732 390 725 b 282 593 297 601 288 593 b 275 636 272 593 272 611 b 310 747 282 692 306 738 b 200 1025 399 925 296 1025 b 90 750 104 1025 6 925 b 142 531 104 724 142 639 b 71 313 142 419 86 336 b 201 0 -61 125 47 0 b 325 322 356 0 461 125 b 269 447 318 333 269 378 b 415 532 269 521 375 532 b 550 394 497 532 550 471 b 429 194 550 299 465 269 b 610 0 376 90 469 0 b 764 210 749 0 842 90 z "},"Ħ":{"ha":919,"x_min":0,"x_max":0,"o":"m 729 1125 b 656 1200 729 1171 700 1200 l 263 1200 b 189 1125 218 1200 189 1169 b 263 1054 189 1082 218 1054 l 656 1054 b 729 1125 700 1054 729 1082 z m 847 299 b 749 536 819 336 749 419 b 826 771 749 639 803 724 b 690 1025 901 925 814 1025 b 557 769 564 1025 481 925 b 460 615 599 683 558 615 b 364 771 357 615 321 685 b 228 1025 440 924 351 1025 b 94 769 101 1025 18 925 b 168 536 117 724 168 639 b 74 303 168 419 99 336 b 229 0 -64 125 29 0 b 385 299 426 0 518 125 b 457 499 310 388 304 499 b 536 303 604 499 613 396 b 692 0 399 125 492 0 b 847 299 889 0 981 125 z "},"ħ":{"ha":806,"x_min":0,"x_max":0,"o":"m 764 210 b 667 375 725 269 667 299 b 733 594 667 456 733 515 b 538 732 733 679 657 732 b 313 622 493 732 390 725 b 282 593 297 601 288 593 b 275 636 272 593 272 611 b 304 733 281 676 294 713 l 388 733 b 461 804 432 733 461 761 b 388 879 461 850 432 879 l 343 879 b 200 1025 340 974 268 1025 b 58 878 131 1025 61 974 b -3 804 21 874 -3 844 b 71 733 -3 761 26 733 l 99 733 b 142 531 115 696 142 621 b 71 313 142 419 86 336 b 201 0 -61 125 47 0 b 325 322 356 0 461 125 b 269 447 318 333 269 378 b 415 532 269 521 375 532 b 550 394 497 532 550 471 b 429 194 550 299 465 269 b 610 0 376 90 469 0 b 764 210 749 0 842 90 z "},"Ĩ":{"ha":457,"x_min":0,"x_max":0,"o":"m 443 1254 b 401 1283 442 1283 422 1283 b 361 1256 392 1283 379 1276 b 325 1243 351 1247 340 1243 b 167 1285 282 1243 240 1285 b 17 1096 64 1285 1 1197 b 44 1067 19 1079 26 1067 b 94 1096 74 1067 76 1071 b 135 1110 101 1107 115 1110 b 306 1067 213 1110 239 1067 b 443 1254 410 1067 446 1172 z m 385 299 b 286 536 357 336 286 419 b 364 771 286 639 340 724 b 228 1025 439 925 351 1025 b 94 769 101 1025 18 925 b 168 536 117 724 168 639 b 74 303 168 419 99 336 b 229 0 -64 125 29 0 b 385 299 426 0 518 125 z "},"ĩ":{"ha":406,"x_min":0,"x_max":0,"o":"m 417 964 b 376 993 415 993 396 993 b 335 965 365 993 354 985 b 300 951 326 956 314 951 b 142 994 256 951 215 994 b -10 806 38 994 -24 907 b 18 776 -7 788 1 776 b 68 806 49 776 51 781 b 110 818 76 815 89 818 b 279 776 188 818 214 776 b 417 964 385 776 419 882 z m 363 210 b 265 378 324 269 265 299 b 340 560 265 456 319 517 b 207 732 390 661 288 732 b 76 560 125 732 28 661 b 149 388 96 517 149 456 b 28 194 149 299 64 269 b 208 0 -25 90 68 0 b 363 210 347 0 440 90 z "},"Ī":{"ha":457,"x_min":0,"x_max":0,"o":"m 499 1139 b 425 1213 499 1183 469 1213 l 32 1213 b -42 1139 -12 1213 -42 1182 b 32 1067 -42 1094 -12 1067 l 425 1067 b 499 1139 469 1067 499 1094 z m 385 299 b 286 536 357 336 286 419 b 364 771 286 639 340 724 b 228 1025 439 925 351 1025 b 94 769 101 1025 18 925 b 168 536 117 724 168 639 b 74 303 168 419 99 336 b 229 0 -64 125 29 0 b 385 299 426 0 518 125 z "},"ī":{"ha":406,"x_min":0,"x_max":0,"o":"m 406 863 b 350 938 406 908 383 938 l 56 938 b 0 863 22 938 0 907 b 56 790 0 818 22 790 l 350 790 b 406 863 383 790 406 818 z m 363 210 b 265 378 324 269 265 299 b 340 560 265 456 319 517 b 207 732 390 661 288 732 b 76 560 125 732 28 661 b 149 388 96 517 149 456 b 28 194 149 299 64 269 b 208 0 -25 90 68 0 b 363 210 347 0 440 90 z "},"Į":{"ha":457,"x_min":0,"x_max":0,"o":"m 253 -314 b 286 -275 272 -312 286 -296 b 253 -237 286 -257 274 -243 b 176 -150 217 -229 176 -204 b 281 4 176 -97 211 -50 b 385 299 442 24 506 142 b 286 536 357 336 286 419 b 364 771 286 639 340 724 b 228 1025 439 925 351 1025 b 94 769 101 1025 18 925 b 168 536 117 724 168 639 b 74 303 168 419 99 336 b 168 4 -49 144 13 28 b 15 -178 96 -24 15 -96 b 253 -314 15 -276 140 -321 z "},"į":{"ha":406,"x_min":0,"x_max":0,"o":"m 342 904 b 203 1025 342 976 269 1025 b 64 904 138 1025 64 976 b 203 783 64 832 138 783 b 342 904 269 783 342 832 z m 265 -314 b 299 -275 285 -312 299 -296 b 265 -237 299 -257 286 -243 b 189 -150 229 -229 189 -204 b 308 14 189 -94 229 -44 l 297 14 b 363 210 382 44 422 118 b 265 378 324 269 265 299 b 340 560 265 456 319 517 b 207 732 390 661 288 732 b 76 560 125 732 28 661 b 149 388 96 517 149 456 b 28 194 149 299 64 269 b 175 3 -21 99 54 15 b 28 -178 104 -28 28 -99 b 265 -314 28 -276 153 -321 z "},"İ":{"ha":457,"x_min":0,"x_max":0,"o":"m 389 1228 b 229 1389 389 1317 318 1389 b 68 1228 140 1389 68 1317 b 229 1067 68 1139 140 1067 b 389 1228 318 1067 389 1139 z m 385 299 b 286 536 357 336 286 419 b 364 771 286 639 340 724 b 228 1025 439 925 351 1025 b 94 769 101 1025 18 925 b 168 536 117 724 168 639 b 74 303 168 419 99 336 b 229 0 -64 125 29 0 b 385 299 426 0 518 125 z "},"Ĳ":{"ha":1089,"x_min":0,"x_max":0,"o":"m 385 299 b 286 536 357 336 286 419 b 364 771 286 639 340 724 b 228 1025 439 925 351 1025 b 94 769 101 1025 18 925 b 168 536 117 724 168 639 b 74 303 168 419 99 336 b 229 0 -64 125 29 0 b 385 299 426 0 518 125 z m 1028 211 b 971 536 1040 336 971 419 b 1044 769 971 639 1024 724 b 913 1025 1121 925 1038 1025 b 776 771 788 1025 700 925 b 853 544 799 724 853 639 b 756 388 853 464 813 388 b 686 444 713 388 694 429 b 594 504 665 483 631 504 b 463 296 531 504 463 439 b 749 0 463 104 582 0 b 1028 211 825 0 1008 24 z "},"ĳ":{"ha":721,"x_min":0,"x_max":0,"o":"m 342 904 b 203 1025 342 976 269 1025 b 64 904 138 1025 64 976 b 203 783 64 832 138 783 b 342 904 269 783 342 832 z m 690 904 b 551 1025 690 976 617 1025 b 411 904 485 1025 411 976 b 551 783 411 832 485 783 b 690 904 617 783 690 832 z m 363 210 b 265 378 324 269 265 299 b 340 560 265 456 319 517 b 207 732 390 661 288 732 b 76 560 125 732 28 661 b 149 388 96 517 149 456 b 28 194 149 299 64 269 b 208 0 -25 90 68 0 b 363 210 347 0 440 90 z m 725 -114 b 614 324 725 35 614 136 b 689 560 614 456 668 517 b 556 732 738 661 636 732 b 424 560 474 732 375 661 b 497 200 444 517 497 456 b 440 -58 497 94 488 -58 b 347 -42 425 -58 394 -42 b 238 -137 279 -42 238 -78 b 482 -322 238 -229 331 -322 b 725 -114 574 -322 725 -286 z "},"Ĵ":{"ha":632,"x_min":0,"x_max":0,"o":"m 475 1067 l 536 1089 b 569 1190 594 1110 610 1143 l 426 1361 b 315 1400 400 1392 357 1400 b 206 1361 275 1400 231 1392 l 63 1190 b 96 1089 22 1143 38 1110 l 157 1067 b 188 1061 168 1063 178 1061 b 276 1143 231 1061 263 1096 l 317 1290 l 357 1143 b 443 1061 365 1094 400 1061 b 475 1067 453 1061 464 1063 z m 571 211 b 514 536 583 336 514 419 b 588 769 514 639 567 724 b 456 1025 664 925 581 1025 b 319 771 331 1025 243 925 b 396 544 342 724 396 639 b 299 388 396 464 356 388 b 229 444 256 388 238 429 b 138 504 208 483 174 504 b 6 296 74 504 6 439 b 292 0 6 104 125 0 b 571 211 368 0 551 24 z "},"ĵ":{"ha":324,"x_min":0,"x_max":0,"o":"m 321 771 l 382 792 b 415 893 440 813 456 846 l 272 1064 b 161 1104 246 1094 203 1104 b 51 1064 121 1104 76 1094 l -92 893 b -58 792 -132 846 -117 813 l 3 771 b 33 765 14 767 24 765 b 122 846 76 765 108 800 l 163 994 l 203 846 b 288 765 211 797 244 765 b 321 771 299 765 310 767 z m 328 -114 b 217 324 328 35 217 136 b 292 560 217 456 271 517 b 158 732 340 661 239 732 b 26 560 76 732 -22 661 b 100 200 47 517 100 456 b 43 -58 100 94 90 -58 b -50 -42 28 -58 -3 -42 b -160 -137 -119 -42 -160 -78 b 85 -322 -160 -229 -67 -322 b 328 -114 176 -322 328 -286 z "},"Ķ":{"ha":903,"x_min":0,"x_max":0,"o":"m 849 263 b 511 529 785 340 642 458 b 504 569 493 539 489 556 b 557 618 526 592 544 608 b 703 700 601 656 668 682 b 746 986 858 779 846 913 b 640 1025 713 1011 675 1025 b 488 863 571 1025 508 974 b 454 696 479 819 472 744 b 317 503 433 642 379 567 b 301 493 310 496 306 493 b 286 536 288 493 286 522 b 364 771 286 639 340 724 b 228 1025 439 925 351 1025 b 94 769 101 1025 18 925 b 168 536 117 724 168 639 b 74 303 168 419 99 336 b 229 0 -64 125 29 0 b 385 299 426 0 518 125 b 356 338 376 311 364 325 b 350 406 339 363 340 385 b 392 438 360 424 375 438 b 422 421 401 438 411 432 b 481 189 454 385 461 322 b 676 0 492 103 503 0 b 849 263 869 0 963 125 z m 367 -503 b 606 -192 511 -474 606 -331 b 447 1 606 -71 535 1 b 285 -160 357 1 285 -71 b 364 -299 285 -212 311 -261 b 393 -406 411 -333 426 -368 b 342 -447 379 -421 356 -439 b 311 -490 317 -462 310 -476 b 336 -507 313 -500 319 -507 b 367 -503 344 -507 354 -506 z "},"ķ":{"ha":803,"x_min":0,"x_max":0,"o":"m 761 240 b 469 399 694 319 526 329 b 485 432 460 411 465 428 b 600 453 529 444 572 451 b 711 672 753 460 765 597 b 589 733 683 711 638 733 b 446 644 536 733 482 707 b 292 476 417 593 356 531 b 263 486 276 464 265 469 b 258 539 258 503 258 521 b 308 746 258 639 299 724 b 200 1025 399 925 296 1025 b 90 750 104 1025 6 925 b 142 539 104 724 142 639 b 71 313 142 419 86 336 b 201 0 -61 125 47 0 b 325 322 356 0 463 125 b 313 342 324 325 319 331 b 326 381 304 356 308 376 b 346 386 332 382 339 386 b 365 365 353 386 360 381 b 425 192 390 283 415 229 b 621 0 443 121 517 0 b 761 240 735 0 840 146 z m 321 -506 b 561 -193 465 -475 561 -332 b 401 0 561 -72 489 0 b 239 -161 313 0 239 -72 b 318 -300 239 -214 265 -262 b 347 -407 367 -335 381 -371 b 296 -450 333 -424 311 -440 b 265 -492 271 -464 264 -479 b 321 -506 268 -507 279 -514 z "},"ĸ":{"ha":803,"x_min":0,"x_max":0,"o":"m 761 240 b 469 399 694 319 526 329 b 485 432 460 411 465 428 b 600 453 529 444 572 451 b 711 672 753 460 765 597 b 589 733 683 711 638 733 b 446 644 536 733 482 707 b 292 476 417 593 356 531 b 263 486 276 464 263 468 b 307 618 260 524 267 567 b 218 817 397 732 319 817 b 131 544 128 817 31 747 b 71 313 169 468 161 444 b 201 0 -61 125 47 0 b 325 322 356 0 463 125 b 313 342 324 325 319 331 b 326 381 304 356 308 376 b 346 386 332 382 339 386 b 365 365 353 386 360 381 b 425 192 390 283 415 229 b 621 0 443 121 517 0 b 761 240 735 0 840 146 z "},"Ĺ":{"ha":803,"x_min":0,"x_max":0,"o":"m 388 1110 l 532 1281 b 497 1382 571 1328 557 1368 l 407 1404 b 289 1328 347 1418 300 1388 l 250 1121 b 297 1068 244 1089 263 1068 b 388 1110 331 1068 365 1083 z m 794 260 b 661 503 794 431 724 503 b 582 446 628 503 597 482 b 471 388 564 400 524 388 b 286 553 344 388 286 464 b 364 771 286 639 340 724 b 228 1025 440 925 353 1025 b 94 769 103 1025 19 925 b 169 536 117 724 169 639 b 75 303 169 419 100 336 b 201 0 -62 125 31 0 b 367 135 297 0 367 39 b 379 169 367 157 372 169 b 399 143 385 169 392 161 b 607 0 429 57 519 0 b 794 260 689 0 794 51 z "},"ĺ":{"ha":400,"x_min":0,"x_max":0,"o":"m 269 1119 l 413 1292 b 379 1392 453 1338 439 1378 l 289 1414 b 169 1338 228 1429 182 1399 l 132 1132 b 178 1078 126 1100 143 1078 b 269 1119 213 1078 247 1093 z m 325 322 b 258 539 317 336 258 419 b 308 746 258 639 299 724 b 200 1025 399 925 296 1025 b 90 750 104 1025 6 925 b 142 539 104 724 142 639 b 71 313 142 419 86 336 b 201 0 -61 125 47 0 b 325 322 356 0 463 125 z "},"Ļ":{"ha":803,"x_min":0,"x_max":0,"o":"m 794 260 b 661 503 794 431 724 503 b 582 446 628 503 597 482 b 471 388 564 400 524 388 b 286 553 344 388 286 464 b 364 771 286 639 340 724 b 228 1025 440 925 353 1025 b 94 769 103 1025 19 925 b 169 536 117 724 169 639 b 75 303 169 419 100 336 b 201 0 -62 125 31 0 b 367 135 297 0 367 39 b 379 169 367 157 372 169 b 399 143 385 169 392 161 b 607 0 429 57 519 0 b 794 260 689 0 794 51 z m 324 -524 b 564 -212 468 -494 564 -351 b 404 -19 564 -92 492 -19 b 242 -181 315 -19 242 -92 b 321 -319 242 -233 268 -282 b 350 -426 369 -354 383 -390 b 299 -468 338 -442 314 -460 b 268 -511 274 -483 267 -499 b 293 -528 269 -522 276 -528 b 324 -524 301 -528 311 -526 z "},"ļ":{"ha":400,"x_min":0,"x_max":0,"o":"m 325 322 b 258 539 317 336 258 419 b 308 746 258 639 299 724 b 200 1025 399 925 296 1025 b 90 750 104 1025 6 925 b 142 539 104 724 142 639 b 71 313 142 419 86 336 b 201 0 -61 125 47 0 b 325 322 356 0 463 125 z m 121 -533 b 361 -222 265 -504 361 -361 b 201 -29 361 -100 289 -29 b 39 -189 113 -29 39 -100 b 118 -328 39 -242 65 -290 b 147 -435 167 -364 181 -399 b 96 -478 133 -451 111 -469 b 65 -521 71 -492 64 -507 b 121 -533 68 -535 79 -542 z "},"Ľ":{"ha":803,"x_min":0,"x_max":0,"o":"m 508 532 b 747 844 653 563 747 706 b 588 1038 747 965 676 1038 b 426 876 499 1038 426 965 b 504 738 426 824 453 775 b 533 631 553 703 568 667 b 483 588 521 614 497 597 b 451 546 458 574 450 558 b 508 532 456 531 467 524 z m 794 260 b 661 503 794 431 724 503 b 582 446 628 503 597 482 b 471 388 564 400 524 388 b 286 553 344 388 286 464 b 364 771 286 639 340 724 b 228 1025 440 925 353 1025 b 94 769 103 1025 19 925 b 169 536 117 724 169 639 b 75 303 169 419 100 336 b 201 0 -62 125 31 0 b 367 135 297 0 367 39 b 379 169 367 157 372 169 b 399 143 385 169 392 161 b 607 0 429 57 519 0 b 794 260 689 0 794 51 z "},"ľ":{"ha":785,"x_min":0,"x_max":0,"o":"m 493 521 b 733 832 639 550 733 693 b 574 1025 733 953 661 1025 b 411 864 485 1025 411 953 b 490 725 411 811 438 764 b 519 618 539 690 554 654 b 468 576 507 603 483 585 b 438 533 444 561 436 547 b 493 521 440 519 453 513 z m 325 322 b 258 539 317 336 258 419 b 308 746 258 639 299 724 b 200 1025 399 925 296 1025 b 90 750 104 1025 6 925 b 142 539 104 724 142 639 b 71 313 142 419 86 336 b 201 0 -61 125 47 0 b 325 322 356 0 463 125 z "},"Ŀ":{"ha":803,"x_min":0,"x_max":0,"o":"m 794 260 b 661 503 794 431 724 503 b 582 446 628 503 597 482 b 471 388 564 400 524 388 b 286 553 344 388 286 464 b 364 771 286 639 340 724 b 228 1025 440 925 353 1025 b 94 769 103 1025 19 925 b 169 536 117 724 169 639 b 75 303 169 419 100 336 b 201 0 -62 125 31 0 b 367 135 297 0 367 39 b 379 169 367 157 372 169 b 399 143 385 169 392 161 b 607 0 429 57 519 0 b 794 260 689 0 794 51 z m 733 700 b 567 856 729 789 656 858 b 411 689 478 853 408 778 b 578 533 414 600 489 531 b 733 700 667 536 736 611 z "},"ŀ":{"ha":726,"x_min":0,"x_max":0,"o":"m 325 322 b 258 539 317 336 258 419 b 308 746 258 639 299 724 b 200 1025 399 925 296 1025 b 90 750 104 1025 6 925 b 142 539 104 724 142 639 b 71 313 142 419 86 336 b 201 0 -61 125 47 0 b 325 322 356 0 463 125 z m 701 469 b 535 625 699 558 624 628 b 379 458 446 622 376 547 b 546 303 382 369 457 300 b 701 469 635 306 704 381 z "},"Ń":{"ha":982,"x_min":0,"x_max":0,"o":"m 478 1110 l 621 1281 b 588 1382 660 1328 647 1368 l 496 1404 b 378 1328 436 1418 389 1388 l 340 1121 b 386 1068 333 1089 351 1068 b 478 1110 421 1068 456 1083 z m 899 318 b 814 539 861 368 814 446 b 892 771 814 639 868 724 b 756 1025 968 925 881 1025 b 622 769 629 1025 546 925 b 697 538 644 724 697 639 b 696 483 697 521 696 490 b 665 432 693 450 683 432 b 604 478 651 432 631 446 b 489 760 539 556 499 671 b 229 1025 469 936 349 1025 b 94 769 101 1025 18 925 b 168 536 117 724 168 639 b 74 303 168 419 99 336 b 229 0 -64 125 29 0 b 385 299 426 0 518 125 b 286 539 357 336 286 419 b 290 617 286 557 288 597 b 317 660 293 643 301 660 b 393 599 333 660 358 642 b 492 275 453 521 504 413 b 753 0 476 81 590 0 b 899 318 954 0 1047 125 z "},"ń":{"ha":815,"x_min":0,"x_max":0,"o":"m 394 818 l 538 990 b 504 1090 576 1036 564 1076 l 413 1113 b 294 1036 353 1128 307 1097 l 257 831 b 303 776 250 799 268 776 b 394 818 338 776 372 792 z m 774 210 b 676 375 735 269 676 299 b 743 594 676 456 743 515 b 547 732 743 679 667 732 b 315 613 503 732 400 725 b 293 590 304 597 297 590 b 285 633 286 590 288 610 b 178 732 278 697 246 732 b 61 567 83 732 15 661 b 151 382 85 517 151 456 b 31 194 151 299 67 269 b 211 0 -22 90 71 0 b 365 210 350 0 443 90 b 268 388 328 267 268 296 b 425 532 268 508 374 532 b 560 394 507 532 560 471 b 439 194 560 299 475 269 b 619 0 386 90 479 0 b 774 210 758 0 851 90 z "},"Ņ":{"ha":982,"x_min":0,"x_max":0,"o":"m 899 318 b 814 539 861 368 814 446 b 892 771 814 639 868 724 b 756 1025 968 925 881 1025 b 622 769 629 1025 546 925 b 697 538 644 724 697 639 b 696 483 697 521 696 490 b 665 432 693 450 683 432 b 604 478 651 432 631 446 b 489 760 539 556 499 671 b 229 1025 469 936 349 1025 b 94 769 101 1025 18 925 b 168 536 117 724 168 639 b 74 303 168 419 99 336 b 229 0 -64 125 29 0 b 385 299 426 0 518 125 b 286 539 357 336 286 419 b 290 617 286 557 288 597 b 317 660 293 643 301 660 b 393 599 333 660 358 642 b 492 275 453 521 504 413 b 753 0 476 81 590 0 b 899 318 954 0 1047 125 z m 411 -503 b 651 -192 556 -474 651 -331 b 492 3 651 -69 579 3 b 329 -158 403 3 329 -69 b 408 -297 329 -211 356 -260 b 438 -404 457 -333 471 -368 b 386 -447 424 -421 401 -439 b 356 -489 361 -461 354 -476 b 411 -503 358 -504 369 -511 z "},"ņ":{"ha":815,"x_min":0,"x_max":0,"o":"m 774 210 b 676 375 735 269 676 299 b 743 594 676 456 743 515 b 547 732 743 679 667 732 b 315 613 503 732 400 725 b 293 590 304 597 297 590 b 285 633 286 590 288 610 b 178 732 278 697 246 732 b 61 567 83 732 15 661 b 151 382 85 517 151 456 b 31 194 151 299 67 269 b 211 0 -22 90 71 0 b 365 210 350 0 443 90 b 268 388 328 267 268 296 b 425 532 268 508 374 532 b 560 394 507 532 560 471 b 439 194 560 299 475 269 b 619 0 386 90 479 0 b 774 210 758 0 851 90 z m 329 -507 b 569 -196 475 -478 569 -335 b 410 -3 569 -75 497 -3 b 247 -164 321 -3 247 -75 b 326 -303 247 -217 274 -265 b 356 -410 375 -337 389 -374 b 304 -451 343 -425 319 -443 b 274 -494 279 -467 272 -481 b 300 -511 275 -504 282 -511 b 329 -507 307 -511 317 -510 z "},"Ň":{"ha":982,"x_min":0,"x_max":0,"o":"m 601 1108 l 744 1279 b 711 1381 785 1326 769 1360 l 650 1401 b 617 1407 639 1406 628 1407 b 532 1326 574 1407 540 1375 l 492 1178 l 451 1326 b 363 1407 438 1372 406 1407 b 332 1401 353 1407 343 1406 l 271 1381 b 238 1279 213 1360 197 1326 l 381 1108 b 490 1068 406 1078 450 1068 b 601 1108 532 1068 575 1076 z m 899 318 b 814 539 861 368 814 446 b 892 771 814 639 868 724 b 756 1025 968 925 881 1025 b 622 769 629 1025 546 925 b 697 538 644 724 697 639 b 696 483 697 521 696 490 b 665 432 693 450 683 432 b 604 478 651 432 631 446 b 489 760 539 556 499 671 b 229 1025 469 936 349 1025 b 94 769 101 1025 18 925 b 168 536 117 724 168 639 b 74 303 168 419 99 336 b 229 0 -64 125 29 0 b 385 299 426 0 518 125 b 286 539 357 336 286 419 b 290 617 286 557 288 597 b 317 660 293 643 301 660 b 393 599 333 660 358 642 b 492 275 453 521 504 413 b 753 0 476 81 590 0 b 899 318 954 0 1047 125 z "},"ň":{"ha":815,"x_min":0,"x_max":0,"o":"m 518 818 l 661 990 b 628 1090 701 1036 686 1071 l 567 1113 b 535 1118 556 1117 544 1118 b 449 1036 490 1118 457 1085 l 408 889 l 368 1036 b 279 1118 354 1083 322 1118 b 249 1113 269 1118 260 1117 l 188 1090 b 154 990 129 1071 114 1036 l 297 818 b 407 779 322 788 367 779 b 518 818 449 779 492 788 z m 774 210 b 676 375 735 269 676 299 b 743 594 676 456 743 515 b 547 732 743 679 667 732 b 315 613 503 732 400 725 b 293 590 304 597 297 590 b 285 633 286 590 288 610 b 178 732 278 697 246 732 b 61 567 83 732 15 661 b 151 382 85 517 151 456 b 31 194 151 299 67 269 b 211 0 -22 90 71 0 b 365 210 350 0 443 90 b 268 388 328 267 268 296 b 425 532 268 508 374 532 b 560 394 507 532 560 471 b 439 194 560 299 475 269 b 619 0 386 90 479 0 b 774 210 758 0 851 90 z "},"ŉ":{"ha":1067,"x_min":0,"x_max":0,"o":"m 75 526 b 315 838 219 556 315 699 b 156 1031 315 960 243 1031 b -7 871 67 1031 -7 960 b 72 731 -7 818 19 769 b 101 625 121 696 135 661 b 50 582 89 608 65 590 b 19 539 25 567 18 553 b 75 526 22 525 35 518 z m 1025 210 b 928 375 986 269 928 299 b 994 594 928 456 994 515 b 799 732 994 679 918 732 b 567 613 754 732 651 725 b 544 590 556 597 549 590 b 536 633 538 590 539 610 b 429 732 529 697 497 732 b 313 567 335 732 267 661 b 403 382 336 517 403 456 b 282 194 403 299 318 269 b 463 0 229 90 322 0 b 617 210 601 0 694 90 b 519 388 579 267 519 296 b 676 532 519 508 625 532 b 811 394 758 532 811 471 b 690 194 811 299 726 269 b 871 0 638 90 731 0 b 1025 210 1010 0 1103 90 z "},"Ō":{"ha":938,"x_min":0,"x_max":0,"o":"m 739 1139 b 665 1213 739 1183 710 1213 l 272 1213 b 199 1139 228 1213 199 1182 b 272 1067 199 1094 228 1067 l 665 1067 b 739 1139 710 1067 739 1094 z m 919 469 b 460 1025 919 788 717 1025 b 17 475 204 1025 17 788 b 469 0 17 161 204 0 b 919 469 732 0 919 161 z m 310 610 b 464 879 310 769 389 879 b 626 600 543 879 626 764 b 471 351 626 443 550 351 b 310 610 392 351 310 446 z "},"ō":{"ha":732,"x_min":0,"x_max":0,"o":"m 636 863 b 563 938 636 908 607 938 l 169 938 b 96 863 125 938 96 907 b 169 790 96 818 125 790 l 563 790 b 636 863 607 790 636 818 z m 711 335 b 358 732 711 563 556 732 b 19 339 163 732 19 563 b 367 0 19 115 163 0 b 711 335 568 0 711 115 z m 268 447 b 363 615 268 546 315 615 b 463 440 410 615 463 544 b 368 308 463 321 393 308 b 268 447 342 308 268 322 z "},"Ŏ":{"ha":938,"x_min":0,"x_max":0,"o":"m 650 1264 b 615 1300 653 1285 638 1300 b 567 1265 597 1300 585 1290 b 469 1215 544 1235 499 1215 b 371 1265 439 1215 393 1235 b 322 1300 353 1290 340 1300 b 288 1264 299 1300 286 1285 b 469 1067 299 1144 369 1067 b 650 1264 568 1067 639 1144 z m 919 469 b 460 1025 919 788 717 1025 b 17 475 204 1025 17 788 b 469 0 17 161 204 0 b 919 469 732 0 919 161 z m 310 610 b 464 879 310 769 389 879 b 626 600 543 879 626 764 b 471 351 626 443 550 351 b 310 610 392 351 310 446 z "},"ŏ":{"ha":732,"x_min":0,"x_max":0,"o":"m 547 974 b 513 1010 549 994 535 1010 b 464 975 494 1010 482 1000 b 367 925 442 944 396 925 b 268 975 336 925 290 944 b 219 1010 250 1000 238 1010 b 185 974 196 1010 183 994 b 367 776 196 854 267 776 b 547 974 465 776 536 854 z m 711 335 b 358 732 711 563 556 732 b 19 339 163 732 19 563 b 367 0 19 115 163 0 b 711 335 568 0 711 115 z m 268 447 b 363 615 268 546 315 615 b 463 440 410 615 463 544 b 368 308 463 321 393 308 b 268 447 342 308 268 322 z "},"Ő":{"ha":938,"x_min":0,"x_max":0,"o":"m 606 1110 l 750 1281 b 715 1382 789 1328 776 1368 l 625 1404 b 507 1328 565 1418 518 1388 l 468 1121 b 515 1067 463 1089 481 1067 b 606 1110 549 1067 583 1083 z m 304 1110 l 447 1281 b 414 1382 488 1328 474 1368 l 324 1404 b 206 1328 264 1418 217 1388 l 167 1121 b 214 1067 161 1089 179 1067 b 304 1110 247 1067 282 1083 z m 919 469 b 460 1025 919 788 717 1025 b 17 475 204 1025 17 788 b 469 0 17 161 204 0 b 919 469 732 0 919 161 z m 310 610 b 464 879 310 769 389 879 b 626 600 543 879 626 764 b 471 351 626 443 550 351 b 310 610 392 351 310 446 z "},"ő":{"ha":732,"x_min":0,"x_max":0,"o":"m 503 818 l 646 990 b 613 1090 686 1036 672 1076 l 522 1113 b 404 1036 463 1128 415 1097 l 365 831 b 413 776 360 799 378 776 b 503 818 446 776 481 792 z m 201 818 l 344 990 b 311 1090 385 1036 371 1076 l 221 1113 b 103 1036 161 1128 114 1097 l 64 831 b 111 776 58 799 76 776 b 201 818 144 776 179 792 z m 711 335 b 358 732 711 563 556 732 b 19 339 163 732 19 563 b 367 0 19 115 163 0 b 711 335 568 0 711 115 z m 268 447 b 363 615 268 546 315 615 b 463 440 410 615 463 544 b 368 308 463 321 393 308 b 268 447 342 308 268 322 z "},"Ŕ":{"ha":906,"x_min":0,"x_max":0,"o":"m 439 1110 l 583 1281 b 549 1382 622 1328 608 1368 l 458 1404 b 340 1328 399 1418 351 1388 l 301 1121 b 349 1068 296 1089 314 1068 b 439 1110 382 1068 417 1083 z m 838 267 b 556 467 801 303 690 401 b 560 507 521 483 524 497 b 785 753 669 539 785 603 b 529 1025 785 865 718 1025 b 356 914 499 1025 401 1021 b 321 913 332 857 306 860 b 219 1025 342 993 288 1025 b 94 769 101 1025 18 925 b 168 536 117 724 168 639 b 74 303 168 419 99 336 b 229 0 -64 125 29 0 b 411 265 426 0 518 125 b 325 447 375 314 338 393 b 332 479 321 468 322 479 b 365 465 339 479 350 474 b 494 189 433 428 468 378 b 692 0 508 103 517 0 b 838 267 885 0 976 125 z m 303 690 b 400 790 303 750 339 790 b 496 690 468 790 496 739 b 393 593 496 619 439 593 b 303 690 339 593 303 628 z "},"ŕ":{"ha":628,"x_min":0,"x_max":0,"o":"m 300 818 l 443 990 b 410 1090 483 1036 469 1076 l 319 1113 b 201 1036 260 1128 213 1097 l 163 831 b 210 776 157 799 175 776 b 300 818 243 776 278 792 z m 365 210 b 268 396 328 267 268 296 b 368 517 268 508 343 517 b 421 497 388 517 401 511 b 494 468 444 478 469 468 b 581 513 524 468 553 482 b 585 696 636 572 638 646 b 482 732 557 724 525 732 b 311 614 456 732 383 732 b 292 590 301 597 294 590 b 285 633 286 590 288 610 b 178 732 278 697 246 732 b 61 567 83 732 15 661 b 151 382 85 517 151 456 b 31 194 151 299 67 269 b 211 0 -22 90 71 0 b 365 210 350 0 443 90 z "},"Ŗ":{"ha":906,"x_min":0,"x_max":0,"o":"m 838 267 b 556 467 801 303 690 401 b 560 507 521 483 524 497 b 785 753 669 539 785 603 b 529 1025 785 865 718 1025 b 356 914 499 1025 401 1021 b 321 913 332 857 306 860 b 219 1025 342 993 288 1025 b 94 769 101 1025 18 925 b 168 536 117 724 168 639 b 74 303 168 419 99 336 b 229 0 -64 125 29 0 b 411 265 426 0 518 125 b 325 447 375 314 338 393 b 332 479 321 468 322 479 b 365 465 339 479 350 474 b 494 189 433 428 468 378 b 692 0 508 103 517 0 b 838 267 885 0 976 125 z m 303 690 b 400 790 303 750 339 790 b 496 690 468 790 496 739 b 393 593 496 619 439 593 b 303 690 339 593 303 628 z m 378 -507 b 617 -196 522 -478 617 -335 b 458 -3 617 -74 546 -3 b 296 -162 368 -3 296 -74 b 375 -303 296 -215 322 -264 b 404 -408 422 -337 438 -372 b 353 -451 390 -425 367 -443 b 322 -494 328 -467 321 -481 b 378 -507 325 -508 336 -515 z "},"ŗ":{"ha":628,"x_min":0,"x_max":0,"o":"m 365 210 b 268 396 328 267 268 296 b 368 517 268 508 343 517 b 421 497 388 517 401 511 b 494 468 444 478 469 468 b 581 513 524 468 553 482 b 585 696 636 572 638 646 b 482 732 557 724 525 732 b 311 614 456 732 383 732 b 292 590 301 597 294 590 b 285 633 286 590 288 610 b 178 732 278 697 246 732 b 61 567 83 732 15 661 b 151 382 85 517 151 456 b 31 194 151 299 67 269 b 211 0 -22 90 71 0 b 365 210 350 0 443 90 z m 358 -504 b 599 -192 503 -474 599 -331 b 439 1 599 -71 526 1 b 276 -160 350 1 276 -71 b 356 -299 276 -212 303 -261 b 385 -406 404 -333 418 -369 b 333 -447 372 -422 349 -439 b 303 -490 308 -462 301 -478 b 358 -504 306 -506 318 -512 z "},"Ř":{"ha":906,"x_min":0,"x_max":0,"o":"m 564 1108 l 707 1279 b 674 1381 746 1326 732 1360 l 611 1401 b 578 1407 600 1406 589 1407 b 493 1326 535 1407 501 1375 l 454 1178 l 413 1326 b 325 1407 400 1372 368 1407 b 294 1401 315 1407 306 1406 l 232 1381 b 199 1279 174 1360 160 1326 l 343 1108 b 453 1068 368 1078 411 1068 b 564 1108 493 1068 538 1076 z m 838 267 b 556 467 801 303 690 401 b 560 507 521 483 524 497 b 785 753 669 539 785 603 b 529 1025 785 865 718 1025 b 356 914 499 1025 401 1021 b 321 913 332 857 306 860 b 219 1025 342 993 288 1025 b 94 769 101 1025 18 925 b 168 536 117 724 168 639 b 74 303 168 419 99 336 b 229 0 -64 125 29 0 b 411 265 426 0 518 125 b 325 447 375 314 338 393 b 332 479 321 468 322 479 b 365 465 339 479 350 474 b 494 189 433 428 468 378 b 692 0 508 103 517 0 b 838 267 885 0 976 125 z m 303 690 b 400 790 303 750 339 790 b 496 690 468 790 496 739 b 393 593 496 619 439 593 b 303 690 339 593 303 628 z "},"ř":{"ha":628,"x_min":0,"x_max":0,"o":"m 425 818 l 568 990 b 535 1090 607 1036 593 1071 l 472 1113 b 440 1118 461 1117 450 1118 b 354 1036 396 1118 363 1085 l 315 889 l 274 1036 b 186 1118 260 1083 229 1118 b 156 1113 176 1118 167 1117 l 93 1090 b 60 990 35 1071 21 1036 l 204 818 b 314 779 228 788 272 779 b 425 818 354 779 399 788 z m 365 210 b 268 396 328 267 268 296 b 368 517 268 508 343 517 b 421 497 388 517 401 511 b 494 468 444 478 469 468 b 581 513 524 468 553 482 b 585 696 636 572 638 646 b 482 732 557 724 525 732 b 311 614 456 732 383 732 b 292 590 301 597 294 590 b 285 633 286 590 288 610 b 178 732 278 697 246 732 b 61 567 83 732 15 661 b 151 382 85 517 151 456 b 31 194 151 299 67 269 b 211 0 -22 90 71 0 b 365 210 350 0 443 90 z "},"Ś":{"ha":832,"x_min":0,"x_max":0,"o":"m 403 1110 l 546 1281 b 513 1382 585 1328 572 1368 l 421 1404 b 303 1328 361 1418 314 1388 l 265 1121 b 311 1068 258 1089 276 1068 b 403 1110 346 1068 381 1083 z m 814 292 b 321 740 814 607 321 583 b 413 806 321 782 354 806 b 483 744 469 806 488 782 b 607 615 476 689 515 615 b 783 790 714 615 783 682 b 429 1025 783 963 608 1025 b 68 776 199 1025 68 918 b 469 407 68 529 469 560 b 407 351 469 367 440 351 b 356 404 376 351 354 365 b 207 538 360 474 294 538 b 104 508 175 538 140 529 b 19 290 42 474 -3 413 b 414 0 58 88 225 0 b 814 292 599 0 814 83 z "},"ś":{"ha":628,"x_min":0,"x_max":0,"o":"m 300 818 l 443 990 b 410 1090 483 1036 469 1076 l 319 1113 b 201 1036 260 1128 213 1097 l 163 831 b 210 776 157 799 175 776 b 300 818 243 776 278 792 z m 604 243 b 285 531 604 490 285 413 b 357 586 285 574 331 586 b 408 553 379 586 408 576 b 493 493 408 522 446 493 b 593 601 564 493 593 557 b 357 732 593 681 506 732 b 44 551 192 732 44 669 b 344 325 44 381 344 388 b 297 293 344 311 328 293 b 138 369 233 293 246 369 b 19 247 56 369 19 325 b 311 0 19 122 113 0 b 604 243 474 0 604 83 z "}}}
